OpenSans-CondensedSemiBold.ufo
<glyph name="exclam" format="2">
  <advance width="519.8380952380952"/>
  <unicode hex="0021"/>
  <note>
exclam
</note>
  <outline>
    <contour>
      <point x="178.46666666666667" y="435.8380952380952" type="line"/>
      <point x="342.0190476190476" y="435.8380952380952" type="line"/>
      <point x="387.6095238095238" y="1462.0" type="line"/>
      <point x="134.20000000000002" y="1462.0" type="line"/>
    </contour>
    <contour>
      <point x="259.4190476190476" y="-23.28095238095238" type="curve" smooth="yes"/>
      <point x="343.45714285714286" y="-23.28095238095238"/>
      <point x="395.6666666666667" y="27.238095238095234"/>
      <point x="395.6666666666667" y="121.10952380952382" type="curve" smooth="yes"/>
      <point x="395.6666666666667" y="217.98095238095237"/>
      <point x="346.76666666666665" y="265.83809523809526"/>
      <point x="259.4190476190476" y="265.83809523809526" type="curve" smooth="yes"/>
      <point x="169.69047619047618" y="265.83809523809526"/>
      <point x="123.83333333333334" y="213.95238095238093"/>
      <point x="123.83333333333334" y="121.10952380952382" type="curve" smooth="yes"/>
      <point x="123.83333333333334" y="28.928571428571427"/>
      <point x="169.6904761904762" y="-23.28095238095238"/>
    </contour>
  </outline>
</glyph>
<glyph name="numbersign" format="2">
  <advance width="1030.8285714285714"/>
  <unicode hex="0023"/>
  <note>
numbersign
</note>
  <outline>
    <contour>
      <point x="164.59047619047618" y="0.0" type="line"/>
      <point x="317.04761904761904" y="0.0" type="line"/>
      <point x="373.6952380952381" y="429.27142857142854" type="line"/>
      <point x="572.2761904761904" y="429.27142857142854" type="line"/>
      <point x="513.9666666666667" y="0.0" type="line"/>
      <point x="668.7761904761904" y="0.0" type="line"/>
      <point x="726.4095238095238" y="429.27142857142854" type="line"/>
      <point x="940.1952380952381" y="429.27142857142854" type="line"/>
      <point x="940.1952380952381" y="588.1095238095238" type="line"/>
      <point x="747.0" y="588.1095238095238" type="line"/>
      <point x="786.0428571428572" y="889.8095238095239" type="line"/>
      <point x="991.1666666666666" y="889.8095238095239" type="line"/>
      <point x="991.1666666666666" y="1047.2952380952381" type="line"/>
      <point x="809.6190476190476" y="1047.2952380952381" type="line"/>
      <point x="864.5619047619047" y="1462.0" type="line"/>
      <point x="714.4285714285714" y="1462.0" type="line"/>
      <point x="657.4857142857144" y="1047.2952380952381" type="line"/>
      <point x="456.56666666666666" y="1047.2952380952381" type="line"/>
      <point x="512.1857142857143" y="1462.0" type="line"/>
      <point x="360.0238095238095" y="1462.0" type="line"/>
      <point x="305.0809523809524" y="1047.2952380952381" type="line"/>
      <point x="89.28095238095239" y="1047.2952380952381" type="line"/>
      <point x="89.28095238095239" y="889.8095238095239" type="line"/>
      <point x="282.5047619047619" y="889.8095238095239" type="line"/>
      <point x="242.8" y="588.1095238095238" type="line"/>
      <point x="39.647619047619045" y="588.1095238095238" type="line"/>
      <point x="39.647619047619045" y="429.27142857142854" type="line"/>
      <point x="220.2238095238095" y="429.27142857142854" type="line"/>
    </contour>
    <contour>
      <point x="396.2714285714286" y="588.1095238095238" type="line"/>
      <point x="433.9904761904762" y="889.8095238095239" type="line"/>
      <point x="634.5714285714286" y="889.8095238095239" type="line"/>
      <point x="594.1904761904763" y="588.1095238095238" type="line"/>
    </contour>
  </outline>
</glyph>
<glyph name="dollar" format="2">
  <advance width="904.3857142857142"/>
  <unicode hex="0024"/>
  <note>
dollar
</note>
  <outline>
    <contour>
      <point x="398.0433333333333" y="-119.0" type="line"/>
      <point x="502.28333333333336" y="-119.0" type="line"/>
      <point x="502.28333333333336" y="103.51666666666667" type="line"/>
      <point x="705.5699999999999" y="127.81"/>
      <point x="824.3000000000001" y="256.83333333333337"/>
      <point x="824.3000000000001" y="452.80333333333334" type="curve" smooth="yes"/>
      <point x="824.3000000000001" y="642.19"/>
      <point x="725.5199999999999" y="728.2633333333333"/>
      <point x="523.7433333333333" y="816.6999999999999" type="curve"/>
      <point x="502.28333333333336" y="826.5033333333333" type="line"/>
      <point x="502.28333333333336" y="1208.0133333333335" type="line"/>
      <point x="570.3566666666667" y="1203.2333333333333"/>
      <point x="645.2833333333334" y="1180.99"/>
      <point x="728.38" y="1141.2833333333333" type="curve"/>
      <point x="793.6433333333333" y="1311.61" type="line"/>
      <point x="699.8166666666667" y="1358.4133333333334"/>
      <point x="602.2333333333333" y="1383.9733333333334"/>
      <point x="502.28333333333336" y="1389.29" type="curve"/>
      <point x="502.28333333333336" y="1556.0" type="line"/>
      <point x="398.0433333333333" y="1556.0" type="line"/>
      <point x="398.0433333333333" y="1386.68" type="line"/>
      <point x="202.73333333333332" y="1362.1433333333332"/>
      <point x="84.07666666666667" y="1235.46"/>
      <point x="84.07666666666667" y="1044.3666666666668" type="curve" smooth="yes"/>
      <point x="84.07666666666667" y="982.44"/>
      <point x="94.00333333333333" y="929.5866666666666"/>
      <point x="117.32000000000001" y="882.3433333333332" type="curve" smooth="yes"/>
      <point x="157.56333333333333" y="801.7833333333333"/>
      <point x="236.90333333333336" y="738.37"/>
      <point x="374.26666666666665" y="676.64" type="curve"/>
      <point x="398.0433333333333" y="665.4466666666667" type="line"/>
      <point x="398.0433333333333" y="274.30666666666673" type="line"/>
      <point x="293.7033333333333" y="278.0133333333333"/>
      <point x="175.04666666666668" y="314.5233333333333"/>
      <point x="80.56333333333333" y="369.34999999999997" type="curve"/>
      <point x="80.56333333333333" y="171.83" type="line"/>
      <point x="168.73" y="125.71000000000001"/>
      <point x="274.5566666666667" y="101.22333333333333"/>
      <point x="398.0433333333333" y="98.44333333333333" type="curve"/>
    </contour>
    <contour>
      <point x="502.28333333333336" y="281.38" type="curve"/>
      <point x="502.28333333333336" y="619.01" type="line"/>
      <point x="607.6533333333333" y="569.5699999999999"/>
      <point x="635.9499999999999" y="523.6633333333333"/>
      <point x="635.9499999999999" y="450.97333333333336" type="curve" smooth="yes"/>
      <point x="635.9499999999999" y="358.63"/>
      <point x="589.0433333333333" y="298.9666666666667"/>
    </contour>
    <contour>
      <point x="398.0433333333333" y="873.8666666666667" type="line"/>
      <point x="307.52666666666664" y="914.1133333333333"/>
      <point x="272.81666666666666" y="959.5066666666667"/>
      <point x="272.81666666666666" y="1048.9766666666667" type="curve" smooth="yes"/>
      <point x="272.81666666666666" y="1132.6399999999999"/>
      <point x="317.9666666666667" y="1190.5966666666666"/>
      <point x="398.0433333333333" y="1205.72" type="curve"/>
    </contour>
  </outline>
</glyph>
<glyph name="percent" format="2">
  <advance width="1437.0190476190478"/>
  <unicode hex="0025"/>
  <note>
percent
</note>
  <outline>
    <contour>
      <point x="355.7571428571428" y="0.0" type="line"/>
      <point x="521.8619047619048" y="0.0" type="line"/>
      <point x="1082.247619047619" y="1462.0" type="line"/>
      <point x="914.1571428571428" y="1462.0" type="line"/>
    </contour>
    <contour>
      <point x="334.71428571428567" y="565.0" type="curve" smooth="yes"/>
      <point x="532.7523809523809" y="565.0"/>
      <point x="597.9619047619047" y="775.8619047619047"/>
      <point x="597.9619047619047" y="1025.3380952380953" type="curve" smooth="yes"/>
      <point x="597.9619047619047" y="1277.4619047619046"/>
      <point x="540.0904761904762" y="1483.0"/>
      <point x="331.40476190476187" y="1483.0" type="curve" smooth="yes"/>
      <point x="130.02857142857144" y="1483.0"/>
      <point x="73.48095238095237" y="1277.7857142857142"/>
      <point x="73.48095238095237" y="1025.3380952380953" type="curve" smooth="yes"/>
      <point x="73.48095238095237" y="774.552380952381"/>
      <point x="129.36666666666667" y="565.0"/>
    </contour>
    <contour>
      <point x="335.3904761904762" y="721.1476190476191" type="curve" smooth="yes"/>
      <point x="304.9809523809524" y="721.1476190476191"/>
      <point x="279.9523809523809" y="743.8809523809523"/>
      <point x="265.6" y="795.6285714285714" type="curve" smooth="yes"/>
      <point x="251.9095238095238" y="844.7285714285714"/>
      <point x="245.55714285714285" y="920.1952380952381"/>
      <point x="245.55714285714285" y="1025.352380952381" type="curve" smooth="yes"/>
      <point x="245.55714285714285" y="1121.904761904762"/>
      <point x="250.90952380952382" y="1201.3428571428572"/>
      <point x="265.9238095238095" y="1255.7380952380952" type="curve" smooth="yes"/>
      <point x="279.6142857142857" y="1303.1761904761906"/>
      <point x="301.6571428571429" y="1328.8809523809525"/>
      <point x="333.3761904761905" y="1328.8809523809525" type="curve" smooth="yes"/>
      <point x="365.1095238095238" y="1328.8809523809525"/>
      <point x="390.4761904761905" y="1303.8095238095239"/>
      <point x="405.84285714285716" y="1252.0190476190476" type="curve" smooth="yes"/>
      <point x="419.53333333333336" y="1202.9190476190477"/>
      <point x="426.5476190476191" y="1125.1571428571428"/>
      <point x="426.5476190476191" y="1025.352380952381" type="curve" smooth="yes"/>
      <point x="426.5476190476191" y="920.5190476190476"/>
      <point x="419.53333333333336" y="844.052380952381"/>
      <point x="405.8428571428571" y="795.2904761904762" type="curve" smooth="yes"/>
      <point x="390.4904761904762" y="744.2047619047619"/>
      <point x="366.12380952380954" y="721.1476190476191"/>
    </contour>
    <contour>
      <point x="1098.304761904762" y="-18.676190476190477" type="curve" smooth="yes"/>
      <point x="1301.9761904761906" y="-18.676190476190477"/>
      <point x="1364.2" y="188.86190476190478"/>
      <point x="1364.2" y="442.64761904761906" type="curve" smooth="yes"/>
      <point x="1364.2" y="688.8142857142857"/>
      <point x="1304.342857142857" y="898.3238095238096"/>
      <point x="1100.952380952381" y="898.3238095238096" type="curve" smooth="yes"/>
      <point x="897.5904761904762" y="898.3238095238096"/>
      <point x="840.7190476190476" y="688.8142857142857"/>
      <point x="840.7190476190476" y="434.70476190476194" type="curve" smooth="yes"/>
      <point x="840.7190476190476" y="190.22857142857143"/>
      <point x="898.2666666666667" y="-18.676190476190477"/>
    </contour>
    <contour>
      <point x="1101.6285714285714" y="136.47142857142856" type="curve" smooth="yes"/>
      <point x="1069.2333333333333" y="136.47142857142856"/>
      <point x="1046.1904761904761" y="161.1904761904762"/>
      <point x="1032.5" y="210.95238095238096" type="curve" smooth="yes"/>
      <point x="1018.1476190476191" y="260.05238095238093"/>
      <point x="1012.1333333333333" y="336.18095238095236"/>
      <point x="1012.1333333333333" y="440.0142857142857" type="curve" smooth="yes"/>
      <point x="1012.1333333333333" y="543.847619047619"/>
      <point x="1018.8095238095237" y="621.9619047619047"/>
      <point x="1032.5" y="671.0619047619048" type="curve" smooth="yes"/>
      <point x="1045.8523809523808" y="719.1619047619048"/>
      <point x="1069.8809523809523" y="743.5428571428571"/>
      <point x="1100.2761904761903" y="743.5428571428571" type="curve" smooth="yes"/>
      <point x="1131.3047619047618" y="743.5428571428571"/>
      <point x="1154.3333333333333" y="718.5428571428571"/>
      <point x="1168.6999999999998" y="676.1476190476191" type="curve" smooth="yes"/>
      <point x="1184.7571428571428" y="628.047619047619"/>
      <point x="1192.7857142857144" y="548.5666666666666"/>
      <point x="1192.7857142857144" y="443.3238095238095" type="curve" smooth="yes"/>
      <point x="1192.7857142857144" y="335.1809523809524"/>
      <point x="1185.7714285714287" y="260.03809523809525"/>
      <point x="1171.4190476190474" y="209.95238095238096" type="curve" smooth="yes"/>
      <point x="1156.7285714285715" y="160.85238095238097"/>
      <point x="1133.0238095238096" y="136.47142857142856"/>
    </contour>
  </outline>
</glyph>
<glyph name="ampersand" format="2">
  <advance width="1069.6380952380953"/>
  <unicode hex="0026"/>
  <note>
ampersand
</note>
  <outline>
    <contour>
      <point x="418.6809523809524" y="-20.0" type="curve" smooth="yes"/>
      <point x="547.947619047619" y="-20.0"/>
      <point x="650.4809523809524" y="24.38095238095238"/>
      <point x="743.5095238095238" y="127.6952380952381" type="curve"/>
      <point x="823.6380952380953" y="0.0" type="line"/>
      <point x="1058.4" y="0.0" type="line"/>
      <point x="877.2476190476191" y="266.6190476190476" type="line"/>
      <point x="951.4285714285714" y="394.05238095238093"/>
      <point x="1003.7095238095238" y="561.0380952380953"/>
      <point x="1020.2571428571429" y="726.4142857142857" type="curve"/>
      <point x="834.9142857142857" y="726.4142857142857" type="line"/>
      <point x="824.3238095238095" y="620.6666666666666"/>
      <point x="800.6904761904761" y="517.7095238095238"/>
      <point x="758.7190476190476" y="436.06190476190477" type="curve"/>
      <point x="543.9" y="768.7047619047619" type="line"/>
      <point x="701.2761904761904" y="897.6190476190477"/>
      <point x="757.5428571428572" y="1014.6333333333333"/>
      <point x="757.5428571428572" y="1174.142857142857" type="curve" smooth="yes"/>
      <point x="757.5428571428572" y="1364.1"/>
      <point x="647.8" y="1483.0"/>
      <point x="471.8619047619047" y="1483.0" type="curve" smooth="yes"/>
      <point x="291.62857142857143" y="1483.0"/>
      <point x="173.28095238095239" y="1358.8190476190475"/>
      <point x="173.28095238095239" y="1162.3000000000002" type="curve" smooth="yes"/>
      <point x="173.28095238095239" y="1046.7761904761905"/>
      <point x="195.92857142857142" y="968.0142857142857"/>
      <point x="296.5761904761905" y="803.2380952380952" type="curve" smooth="yes"/>
      <point x="297.5761904761905" y="801.2380952380953" type="line"/>
      <point x="145.92857142857144" y="686.1380952380953"/>
      <point x="61.366666666666674" y="563.2380952380952"/>
      <point x="61.366666666666674" y="374.53333333333336" type="curve" smooth="yes"/>
      <point x="61.366666666666674" y="130.9142857142857"/>
      <point x="193.46190476190478" y="-20.0"/>
    </contour>
    <contour>
      <point x="442.56666666666666" y="168.65238095238092" type="curve" smooth="yes"/>
      <point x="337.5666666666666" y="168.65238095238092"/>
      <point x="272.5380952380952" y="252.10476190476192"/>
      <point x="272.5380952380952" y="392.3904761904762" type="curve" smooth="yes"/>
      <point x="272.5380952380952" y="507.67619047619047"/>
      <point x="307.552380952381" y="584.7761904761905"/>
      <point x="393.51428571428573" y="664.0476190476192" type="curve"/>
      <point x="638.9095238095238" y="281.1952380952381" type="line"/>
      <point x="580.1476190476191" y="205.4857142857143"/>
      <point x="514.0761904761905" y="168.65238095238092"/>
    </contour>
    <contour>
      <point x="452.58095238095234" y="904.9380952380952" type="curve"/>
      <point x="402.56666666666666" y="974.0666666666666"/>
      <point x="369.2142857142857" y="1063.4380952380952"/>
      <point x="369.2142857142857" y="1151.6380952380953" type="curve" smooth="yes"/>
      <point x="369.2142857142857" y="1250.1904761904764"/>
      <point x="408.18571428571425" y="1302.9809523809524"/>
      <point x="465.87619047619046" y="1302.9809523809524" type="curve" smooth="yes"/>
      <point x="525.2857142857143" y="1302.9809523809524"/>
      <point x="562.9333333333333" y="1256.1761904761906"/>
      <point x="562.9333333333333" y="1152.3" type="curve" smooth="yes"/>
      <point x="562.9333333333333" y="1049.6904761904761"/>
      <point x="536.2714285714286" y="977.052380952381"/>
    </contour>
  </outline>
</glyph>
<glyph name="parenright" format="2">
  <advance width="631.8523809523809"/>
  <unicode hex="0029"/>
  <note>
parenright
</note>
  <outline>
    <contour>
      <point x="66.54" y="-324.0" type="curve"/>
      <point x="248.32666666666668" y="-324.0" type="line"/>
      <point x="442.18" y="-101.14666666666666"/>
      <point x="547.6433333333333" y="211.90333333333334"/>
      <point x="547.6433333333333" y="561.0" type="curve" smooth="yes"/>
      <point x="547.6433333333333" y="909.56"/>
      <point x="442.57" y="1230.83"/>
      <point x="248.32666666666668" y="1462.0" type="curve"/>
      <point x="64.54" y="1462.0" type="line"/>
      <point x="249.56333333333333" y="1202.56"/>
      <point x="344.88" y="886.17"/>
      <point x="344.88" y="563.0" type="curve" smooth="yes"/>
      <point x="344.88" y="238.58666666666667"/>
      <point x="244.10000000000002" y="-79.75666666666666"/>
    </contour>
  </outline>
</glyph>
<glyph name="period" format="2">
  <advance width="508.7095238095238"/>
  <unicode hex="002E"/>
  <outline>
    <contour>
      <point x="254.09000000000003" y="-23.413333333333334" type="curve" smooth="yes"/>
      <point x="338.3266666666666" y="-23.413333333333334"/>
      <point x="390.46999999999997" y="26.973333333333333"/>
      <point x="390.46999999999997" y="121.04333333333335" type="curve" smooth="yes"/>
      <point x="390.46999999999997" y="217.64999999999998"/>
      <point x="340.6433333333333" y="265.5733333333334"/>
      <point x="254.09000000000003" y="265.5733333333334" type="curve" smooth="yes"/>
      <point x="164.56" y="265.5733333333334"/>
      <point x="118.17333333333332" y="213.82"/>
      <point x="118.17333333333332" y="121.04333333333335" type="curve" smooth="yes"/>
      <point x="118.17333333333332" y="28.730000000000004"/>
      <point x="165.0233333333333" y="-23.413333333333334"/>
    </contour>
  </outline>
</glyph>
<glyph name="zero" format="2">
  <advance width="904.3857142857142"/>
  <unicode hex="0030"/>
  <outline>
    <contour>
      <point x="452.3547619047619" y="-20.0" type="curve" smooth="yes"/>
      <point x="565.3780952380953" y="-20.0"/>
      <point x="653.7180952380953" y="26.85666666666667"/>
      <point x="716.0580952380951" y="132.07999999999998" type="curve" smooth="yes"/>
      <point x="791.7614285714285" y="253.05666666666667"/>
      <point x="825.2480952380952" y="454.49333333333334"/>
      <point x="825.2480952380952" y="731.61" type="curve" smooth="yes"/>
      <point x="825.2480952380952" y="1020.2133333333334"/>
      <point x="789.9814285714285" y="1237.8666666666666"/>
      <point x="705.1580952380951" y="1351.6733333333334" type="curve" smooth="yes"/>
      <point x="645.2814285714286" y="1444.63"/>
      <point x="556.4047619047619" y="1484.39"/>
      <point x="455.1347619047619" y="1484.39" type="curve" smooth="yes"/>
      <point x="353.5014285714286" y="1484.39"/>
      <point x="272.5514285714286" y="1447.7533333333333"/>
      <point x="212.60142857142858" y="1365.6033333333335" type="curve" smooth="yes"/>
      <point x="120.80142857142857" y="1249.9433333333334"/>
      <point x="79.07142857142858" y="1036.58"/>
      <point x="79.07142857142858" y="731.1466666666666" type="curve" smooth="yes"/>
      <point x="79.07142857142858" y="460.44000000000005"/>
      <point x="108.24142857142857" y="248.05333333333334"/>
      <point x="183.79809523809524" y="127.81" type="curve" smooth="yes"/>
      <point x="243.99142857142857" y="24.636666666666667"/>
      <point x="334.7214285714286" y="-20.0"/>
    </contour>
    <contour>
      <point x="451.8914285714286" y="164.35" type="curve" smooth="yes"/>
      <point x="393.5714285714286" y="164.35"/>
      <point x="353.8614285714286" y="205.45"/>
      <point x="329.51809523809527" y="291.3566666666667" type="curve" smooth="yes"/>
      <point x="305.6380952380952" y="375.33666666666664"/>
      <point x="293.6614285714286" y="521.8033333333333"/>
      <point x="293.6614285714286" y="730.6833333333333" type="curve" smooth="yes"/>
      <point x="293.6614285714286" y="940.1"/>
      <point x="305.6380952380952" y="1087.4933333333336"/>
      <point x="329.51809523809527" y="1172.3266666666666" type="curve" smooth="yes"/>
      <point x="353.8614285714286" y="1259.94"/>
      <point x="394.96142857142854" y="1299.1133333333332"/>
      <point x="450.50142857142856" y="1299.1133333333332" type="curve" smooth="yes"/>
      <point x="503.2347619047619" y="1299.1133333333332"/>
      <point x="543.8214285714286" y="1261.5033333333333"/>
      <point x="567.7747619047618" y="1186.2833333333333" type="curve" smooth="yes"/>
      <point x="597.3147619047619" y="1106.23"/>
      <point x="611.5847619047619" y="962.37"/>
      <point x="611.5847619047619" y="780.26" type="curve" smooth="yes"/>
      <point x="611.5847619047619" y="514.7233333333334"/>
      <point x="597.0947619047619" y="312.58"/>
      <point x="550.1180952380953" y="230.2833333333333" type="curve" smooth="yes"/>
      <point x="525.7747619047618" y="185.37666666666667"/>
      <point x="491.8214285714286" y="164.35"/>
    </contour>
  </outline>
</glyph>
<glyph name="one" format="2">
  <advance width="904.3857142857142"/>
  <unicode hex="0031"/>
  <outline>
    <contour>
      <point x="445.65333333333336" y="0.0" type="line"/>
      <point x="656.0966666666667" y="0.0" type="line"/>
      <point x="656.0966666666667" y="1462.0" type="line"/>
      <point x="468.60333333333335" y="1462.0" type="line"/>
      <point x="115.25" y="1135.7433333333333" type="line"/>
      <point x="233.89666666666665" y="1005.0966666666667" type="line"/>
      <point x="312.96333333333337" y="1083.8700000000001"/>
      <point x="354.89" y="1127.8933333333334"/>
      <point x="390.8666666666667" y="1164.5033333333333" type="curve" smooth="yes"/>
      <point x="423.33333333333337" y="1197.8966666666665"/>
      <point x="443.36" y="1219.9233333333332"/>
      <point x="457.8233333333334" y="1240.3133333333333" type="curve"/>
      <point x="450.0433333333333" y="1125.8766666666668"/>
      <point x="445.65333333333336" y="1022.0733333333335"/>
      <point x="445.65333333333336" y="930.9033333333333" type="curve" smooth="yes"/>
    </contour>
  </outline>
</glyph>
<glyph name="five" format="2">
  <advance width="904.3857142857142"/>
  <unicode hex="0035"/>
  <outline>
    <contour>
      <point x="380.92" y="-20.0" type="curve" smooth="yes"/>
      <point x="650.5233333333333" y="-20.0"/>
      <point x="815.0333333333333" y="166.75666666666666"/>
      <point x="815.0333333333333" y="478.43666666666667" type="curve" smooth="yes"/>
      <point x="815.0333333333333" y="741.3133333333334"/>
      <point x="676.1800000000001" y="901.3366666666667"/>
      <point x="456.7166666666667" y="901.3366666666667" type="curve" smooth="yes"/>
      <point x="404.88666666666666" y="901.3366666666667"/>
      <point x="357.08" y="896.19"/>
      <point x="312.37" y="886.8966666666668" type="curve"/>
      <point x="337.25" y="1269.7733333333333" type="line"/>
      <point x="736.4233333333334" y="1269.7733333333333" type="line"/>
      <point x="736.4233333333334" y="1462.0" type="line"/>
      <point x="156.17000000000002" y="1462.0" type="line"/>
      <point x="112.24333333333334" y="760.3033333333333" type="line"/>
      <point x="186.7266666666667" y="695.4499999999999" type="line"/>
      <point x="251.16666666666666" y="716.84"/>
      <point x="313.68" y="727.3033333333333"/>
      <point x="372.8766666666666" y="727.3033333333333" type="curve" smooth="yes"/>
      <point x="520.1233333333333" y="727.3033333333333"/>
      <point x="599.6633333333333" y="638.7633333333333"/>
      <point x="599.6633333333333" y="462.39000000000004" type="curve" smooth="yes"/>
      <point x="599.6633333333333" y="272.94333333333327"/>
      <point x="514.0733333333334" y="163.91000000000003"/>
      <point x="359.77666666666664" y="163.91000000000003" type="curve" smooth="yes"/>
      <point x="269.99666666666667" y="163.91000000000003"/>
      <point x="162.19666666666666" y="202.42"/>
      <point x="92.44" y="252.4933333333333" type="curve"/>
      <point x="92.44" y="47.04666666666667" type="line"/>
      <point x="164.87666666666667" y="2.17"/>
      <point x="261.1666666666667" y="-20.0"/>
    </contour>
  </outline>
</glyph>
<glyph name="six" format="2">
  <advance width="904.3857142857142"/>
  <unicode hex="0036"/>
  <outline>
    <contour>
      <point x="454.89666666666665" y="-20.0" type="curve" smooth="yes"/>
      <point x="682.7433333333333" y="-20.0"/>
      <point x="824.91" y="163.95"/>
      <point x="824.91" y="477.2633333333333" type="curve" smooth="yes"/>
      <point x="824.91" y="757.9466666666667"/>
      <point x="711.52" y="930.3366666666666"/>
      <point x="521.2533333333333" y="930.3366666666666" type="curve" smooth="yes"/>
      <point x="414.0833333333333" y="930.3366666666666"/>
      <point x="333.0833333333333" y="872.58"/>
      <point x="285.76666666666665" y="764.1666666666667" type="curve"/>
      <point x="275.45" y="764.1666666666667" type="line"/>
      <point x="281.52333333333337" y="914.9333333333333"/>
      <point x="301.79333333333335" y="1031.9166666666665"/>
      <point x="337.7966666666667" y="1112.8" type="curve" smooth="yes"/>
      <point x="385.7733333333333" y="1234.3833333333334"/>
      <point x="476.52666666666664" y="1300.5033333333333"/>
      <point x="611.4466666666667" y="1300.5033333333333" type="curve" smooth="yes"/>
      <point x="657.35" y="1300.5033333333333"/>
      <point x="702.35" y="1294.3566666666666"/>
      <point x="746.4466666666667" y="1281.5266666666666" type="curve"/>
      <point x="746.4466666666667" y="1463.2433333333333" type="line"/>
      <point x="714.3733333333333" y="1473.1466666666668"/>
      <point x="657.4733333333334" y="1481.6100000000001"/>
      <point x="595.8166666666666" y="1481.6100000000001" type="curve" smooth="yes"/>
      <point x="461.11333333333334" y="1481.6100000000001"/>
      <point x="350.19" y="1438.5366666666666"/>
      <point x="269.68" y="1351.7066666666665" type="curve" smooth="yes"/>
      <point x="141.34333333333333" y="1214.78"/>
      <point x="82.85666666666667" y="963.7333333333333"/>
      <point x="82.85666666666667" y="632.73" type="curve" smooth="yes"/>
      <point x="82.85666666666667" y="204.60999999999999"/>
      <point x="206.05" y="-20.0"/>
    </contour>
    <contour>
      <point x="457.35999999999996" y="163.42333333333332" type="curve" smooth="yes"/>
      <point x="414.6766666666667" y="163.42333333333332"/>
      <point x="379.45666666666665" y="187.91"/>
      <point x="355.26" y="233.71333333333334" type="curve" smooth="yes"/>
      <point x="317.05999999999995" y="283.0833333333333"/>
      <point x="295.0566666666667" y="392.2133333333333"/>
      <point x="295.0566666666667" y="523.5366666666666" type="curve" smooth="yes"/>
      <point x="295.0566666666667" y="581.5666666666667"/>
      <point x="313.18" y="647.4466666666667"/>
      <point x="343.28" y="689.6433333333333" type="curve" smooth="yes"/>
      <point x="370.62333333333333" y="729.4733333333332"/>
      <point x="411.50333333333333" y="754.01"/>
      <point x="460.45666666666665" y="754.01" type="curve" smooth="yes"/>
      <point x="563.17" y="754.01"/>
      <point x="615.0999999999999" y="649.03"/>
      <point x="615.0999999999999" y="462.53333333333336" type="curve" smooth="yes"/>
      <point x="615.0999999999999" y="360.50333333333333"/>
      <point x="600.1233333333333" y="283.4266666666667"/>
      <point x="570.2433333333333" y="233.54666666666665" type="curve" smooth="yes"/>
      <point x="542.73" y="185.25333333333333"/>
      <point x="503.53333333333336" y="163.42333333333332"/>
    </contour>
  </outline>
</glyph>
<glyph name="eight" format="2">
  <advance width="904.3857142857142"/>
  <unicode hex="0038"/>
  <outline>
    <contour>
      <point x="453.0433333333333" y="-20.0" type="curve" smooth="yes"/>
      <point x="685.2800000000001" y="-20.0"/>
      <point x="834.3266666666667" y="139.92666666666668"/>
      <point x="834.3266666666667" y="375.4366666666667" type="curve" smooth="yes"/>
      <point x="834.3266666666667" y="545.6333333333333"/>
      <point x="744.13" y="659.9733333333334"/>
      <point x="586.4933333333332" y="769.8766666666667" type="curve"/>
      <point x="740.9333333333333" y="869.0466666666667"/>
      <point x="805.6433333333332" y="984.1466666666666"/>
      <point x="805.6433333333332" y="1128.4666666666667" type="curve" smooth="yes"/>
      <point x="805.6433333333332" y="1347.1966666666667"/>
      <point x="666.4266666666667" y="1481.6100000000001"/>
      <point x="454.6266666666666" y="1481.6100000000001" type="curve" smooth="yes"/>
      <point x="247.28999999999996" y="1481.6100000000001"/>
      <point x="100.44" y="1343.0733333333333"/>
      <point x="100.44" y="1124.4666666666667" type="curve" smooth="yes"/>
      <point x="100.44" y="986.8066666666667"/>
      <point x="160.71" y="870.9266666666666"/>
      <point x="299.8566666666667" y="762.0" type="curve"/>
      <point x="139.24333333333334" y="657.3633333333333"/>
      <point x="72.0" y="532.3633333333333"/>
      <point x="72.0" y="362.0466666666666" type="curve" smooth="yes"/>
      <point x="72.0" y="123.05000000000001"/>
      <point x="224.41333333333333" y="-20.0"/>
    </contour>
    <contour>
      <point x="453.84666666666664" y="151.54666666666668" type="curve" smooth="yes"/>
      <point x="340.89" y="151.54666666666668"/>
      <point x="277.3233333333333" y="239.30666666666667"/>
      <point x="277.3233333333333" y="369.77666666666664" type="curve" smooth="yes"/>
      <point x="277.3233333333333" y="509.73333333333335"/>
      <point x="324.52" y="592.4433333333333"/>
      <point x="438.26" y="671.8866666666665" type="curve"/>
      <point x="574.8533333333334" y="562.64"/>
      <point x="627.54" y="486.3933333333333"/>
      <point x="627.54" y="380.90000000000003" type="curve" smooth="yes"/>
      <point x="627.54" y="238.13666666666668"/>
      <point x="563.34" y="151.54666666666668"/>
    </contour>
    <contour>
      <point x="453.09" y="862.1366666666667" type="curve"/>
      <point x="341.01" y="944.5300000000001"/>
      <point x="307.08" y="1015.4366666666666"/>
      <point x="307.08" y="1118.6133333333335" type="curve" smooth="yes"/>
      <point x="307.08" y="1243.8633333333335"/>
      <point x="359.59666666666664" y="1311.4533333333334"/>
      <point x="452.1633333333333" y="1311.4533333333334" type="curve" smooth="yes"/>
      <point x="548.4866666666667" y="1311.4533333333334"/>
      <point x="599.0033333333333" y="1244.3266666666666"/>
      <point x="599.0033333333333" y="1117.6866666666667" type="curve" smooth="yes"/>
      <point x="599.0033333333333" y="1015.9"/>
      <point x="560.56" y="937.0899999999999"/>
    </contour>
  </outline>
</glyph>
<glyph name="nine" format="2">
  <advance width="904.3857142857142"/>
  <unicode hex="0039"/>
  <outline>
    <contour>
      <point x="287.4866666666667" y="-20.0" type="curve" smooth="yes"/>
      <point x="408.84999999999997" y="-20.0"/>
      <point x="510.28666666666663" y="16.05"/>
      <point x="590.3333333333333" y="88.15" type="curve" smooth="yes"/>
      <point x="738.79" y="215.95666666666665"/>
      <point x="814.7866666666666" y="460.46999999999997"/>
      <point x="814.7866666666666" y="824.1766666666666" type="curve" smooth="yes"/>
      <point x="814.7866666666666" y="937.2"/>
      <point x="805.3966666666666" y="1036.8333333333333"/>
      <point x="788.6166666666667" y="1121.54" type="curve" smooth="yes"/>
      <point x="739.2766666666666" y="1359.2933333333333"/>
      <point x="621.4266666666666" y="1481.6100000000001"/>
      <point x="444.55333333333334" y="1481.6100000000001" type="curve" smooth="yes"/>
      <point x="215.36333333333334" y="1481.6100000000001"/>
      <point x="72.73333333333333" y="1294.3433333333335"/>
      <point x="72.73333333333333" y="983.8833333333333" type="curve" smooth="yes"/>
      <point x="72.73333333333333" y="704.8833333333333"/>
      <point x="187.36666666666667" y="530.2733333333334"/>
      <point x="377.31666666666666" y="530.2733333333334" type="curve" smooth="yes"/>
      <point x="488.1933333333333" y="530.2733333333334"/>
      <point x="565.95" y="592.2"/>
      <point x="610.9499999999999" y="696.4433333333334" type="curve"/>
      <point x="619.4133333333333" y="696.4433333333334" type="line"/>
      <point x="607.8033333333333" y="339.35999999999996"/>
      <point x="490.34000000000003" y="159.71666666666664"/>
      <point x="283.90333333333336" y="159.71666666666664" type="curve" smooth="yes"/>
      <point x="230.92666666666668" y="159.71666666666664"/>
      <point x="191.26666666666665" y="166.32666666666668"/>
      <point x="146.39" y="182.32666666666665" type="curve"/>
      <point x="146.39" y="-2.1700000000000004" type="line"/>
      <point x="177.58333333333334" y="-12.706666666666665"/>
      <point x="239.8766666666667" y="-20.0"/>
    </contour>
    <contour>
      <point x="433.01666666666665" y="706.1366666666667" type="curve" smooth="yes"/>
      <point x="333.5466666666667" y="706.1366666666667"/>
      <point x="282.5433333333333" y="810.19"/>
      <point x="282.5433333333333" y="997.6133333333333" type="curve" smooth="yes"/>
      <point x="282.5433333333333" y="1099.1833333333332"/>
      <point x="300.57" y="1187.5033333333333"/>
      <point x="335.18333333333334" y="1234.92" type="curve" smooth="yes"/>
      <point x="359.91666666666663" y="1274.6266666666666"/>
      <point x="399.21" y="1296.3333333333333"/>
      <point x="441.7966666666666" y="1296.3333333333333" type="curve" smooth="yes"/>
      <point x="476.9933333333333" y="1296.3333333333333"/>
      <point x="503.40999999999997" y="1280.26"/>
      <point x="526.6066666666667" y="1253.21" type="curve" smooth="yes"/>
      <point x="573.9266666666666" y="1196.72"/>
      <point x="603.0500000000001" y="1098.3466666666666"/>
      <point x="603.0500000000001" y="942.93" type="curve" smooth="yes"/>
      <point x="603.0500000000001" y="901.34"/>
      <point x="592.9033333333333" y="855.3133333333334"/>
      <point x="574.6833333333334" y="814.19" type="curve" smooth="yes"/>
      <point x="546.4866666666667" y="751.04"/>
      <point x="497.16666666666663" y="706.1366666666667"/>
    </contour>
  </outline>
</glyph>
<glyph name="equal" format="2">
  <advance width="884.5285714285715"/>
  <unicode hex="003D"/>
  <note>
equal
</note>
  <outline>
    <contour>
      <point x="90.10952380952381" y="842.0476190476192" type="line"/>
      <point x="793.7571428571429" y="842.0476190476192" type="line"/>
      <point x="793.7571428571429" y="1005.4619047619046" type="line"/>
      <point x="90.10952380952381" y="1005.4619047619046" type="line"/>
    </contour>
    <contour>
      <point x="90.10952380952381" y="436.53809523809525" type="line"/>
      <point x="793.7571428571429" y="436.53809523809525" type="line"/>
      <point x="793.7571428571429" y="601.2761904761904" type="line"/>
      <point x="90.10952380952381" y="601.2761904761904" type="line"/>
    </contour>
  </outline>
</glyph>
<glyph name="greater" format="2">
  <advance width="884.5285714285715"/>
  <unicode hex="003E"/>
  <note>
greater
</note>
  <outline>
    <contour>
      <point x="89.43333333333334" y="235.37142857142857" type="line"/>
      <point x="793.0952380952381" y="660.2142857142857" type="line"/>
      <point x="793.0952380952381" y="786.4619047619047" type="line"/>
      <point x="89.43333333333334" y="1208.6285714285714" type="line"/>
      <point x="89.43333333333334" y="1025.8904761904762" type="line"/>
      <point x="615.3000000000001" y="723.0" type="line"/>
      <point x="89.43333333333334" y="418.7857142857143" type="line"/>
    </contour>
  </outline>
</glyph>
<glyph name="question" format="2">
  <advance width="713.0285714285714"/>
  <unicode hex="003F"/>
  <note>
question
</note>
  <outline>
    <contour>
      <point x="209.46" y="435.5733333333333" type="line"/>
      <point x="390.02666666666664" y="435.5733333333333" type="line"/>
      <point x="390.02666666666664" y="488.71666666666664" type="line" smooth="yes"/>
      <point x="390.02666666666664" y="532.1333333333333"/>
      <point x="393.63666666666666" y="567.4033333333333"/>
      <point x="407.88" y="604.3066666666667" type="curve" smooth="yes"/>
      <point x="423.4166666666667" y="648.1633333333333"/>
      <point x="450.5633333333334" y="689.6533333333333"/>
      <point x="495.17333333333335" y="744.2900000000001" type="curve" smooth="yes"/>
      <point x="566.3433333333334" y="830.0733333333334"/>
      <point x="608.27" y="893.5133333333333"/>
      <point x="632.1966666666667" y="954.8066666666666" type="curve" smooth="yes"/>
      <point x="656.44" y="1017.1233333333333"/>
      <point x="661.5866666666667" y="1078.2896428571428"/>
      <point x="661.5866666666667" y="1157.1466666666668" type="curve" smooth="yes"/>
      <point x="661.5866666666667" y="1353.32"/>
      <point x="538.64" y="1483.0"/>
      <point x="335.9866666666667" y="1483.0" type="curve" smooth="yes"/>
      <point x="221.87" y="1483.0"/>
      <point x="120.46000000000001" y="1450.5866666666666"/>
      <point x="28.050000000000004" y="1387.2233333333331" type="curve"/>
      <point x="106.55666666666667" y="1229.2133333333334" type="line"/>
      <point x="177.77333333333334" y="1275.48"/>
      <point x="241.45333333333335" y="1300.3333333333333"/>
      <point x="320.23333333333335" y="1300.3333333333333" type="curve" smooth="yes"/>
      <point x="405.77333333333337" y="1300.3333333333333"/>
      <point x="457.3366666666667" y="1232.0133333333333"/>
      <point x="457.3366666666667" y="1130.76" type="curve" smooth="yes"/>
      <point x="457.3366666666667" y="1037.1966666666667"/>
      <point x="447.2133333333333" y="978.2666666666667"/>
      <point x="357.09333333333336" y="867.0433333333333" type="curve" smooth="yes"/>
      <point x="343.16666666666663" y="849.2133333333334"/>
      <point x="328.63" y="830.8466666666667"/>
      <point x="314.48333333333335" y="811.4066666666666" type="curve" smooth="yes"/>
      <point x="231.46" y="705.1366666666667"/>
      <point x="209.46" y="614.0166666666667"/>
      <point x="209.46" y="499.5466666666667" type="curve" smooth="yes"/>
    </contour>
    <contour>
      <point x="302.9633333333333" y="-23.413333333333334" type="curve" smooth="yes"/>
      <point x="387.6633333333333" y="-23.413333333333334"/>
      <point x="438.4166666666667" y="28.826666666666668"/>
      <point x="438.4166666666667" y="120.58000000000001" type="curve" smooth="yes"/>
      <point x="438.4166666666667" y="215.79666666666665"/>
      <point x="389.51666666666665" y="265.5733333333334"/>
      <point x="302.9633333333333" y="265.5733333333334" type="curve" smooth="yes"/>
      <point x="213.04333333333332" y="265.5733333333334"/>
      <point x="167.12" y="214.28333333333333"/>
      <point x="167.12" y="120.58000000000001" type="curve" smooth="yes"/>
      <point x="167.12" y="27.80333333333333"/>
      <point x="214.89666666666665" y="-23.413333333333334"/>
    </contour>
  </outline>
</glyph>
<glyph name="at" format="2">
  <advance width="1399.8"/>
  <unicode hex="0040"/>
  <note>
at
</note>
  <outline>
    <contour>
      <point x="685.9333333333333" y="-172.12333333333333" type="curve" smooth="yes"/>
      <point x="807.49" y="-172.12333333333333"/>
      <point x="910.63" y="-146.10000000000002"/>
      <point x="1006.3566666666666" y="-93.51666666666667" type="curve"/>
      <point x="1006.3566666666666" y="59.32666666666667" type="line"/>
      <point x="908.7066666666667" y="6.8899999999999935"/>
      <point x="797.37" y="-23.573333333333338"/>
      <point x="691.0066666666667" y="-23.573333333333338" type="curve" smooth="yes"/>
      <point x="414.18333333333334" y="-23.573333333333338"/>
      <point x="253.50333333333333" y="208.26"/>
      <point x="253.50333333333333" y="602.95" type="curve" smooth="yes"/>
      <point x="253.50333333333333" y="974.83"/>
      <point x="414.9133333333333" y="1327.01"/>
      <point x="744.2766666666666" y="1327.01" type="curve" smooth="yes"/>
      <point x="1027.0533333333333" y="1327.01"/>
      <point x="1148.2966666666666" y="1067.0233333333333"/>
      <point x="1148.2966666666666" y="746.56" type="curve" smooth="yes"/>
      <point x="1148.2966666666666" y="584.2133333333334"/>
      <point x="1129.3466666666668" y="376.96666666666664"/>
      <point x="1033.3433333333335" y="376.96666666666664" type="curve" smooth="yes"/>
      <point x="1007.83" y="376.96666666666664"/>
      <point x="986.9266666666667" y="387.57666666666665"/>
      <point x="973.17" y="410.3333333333333" type="curve" smooth="yes"/>
      <point x="958.8766666666667" y="433.6266666666666"/>
      <point x="951.73" y="471.91999999999996"/>
      <point x="951.73" y="529.2133333333334" type="curve" smooth="yes"/>
      <point x="951.73" y="544.1166666666667"/>
      <point x="951.73" y="560.02"/>
      <point x="951.73" y="574.9233333333334" type="curve"/>
      <point x="973.1199999999999" y="1044.9733333333334" type="line"/>
      <point x="895.2466666666667" y="1069.9966666666667"/>
      <point x="816.2266666666667" y="1082.7766666666666"/>
      <point x="751.2033333333333" y="1082.7766666666666" type="curve" smooth="yes"/>
      <point x="534.9666666666667" y="1082.7766666666666"/>
      <point x="418.77666666666664" y="896.9766666666667"/>
      <point x="418.77666666666664" y="594.95" type="curve" smooth="yes"/>
      <point x="418.77666666666664" y="355.90333333333336"/>
      <point x="509.48" y="231.0"/>
      <point x="650.5733333333333" y="231.0" type="curve" smooth="yes"/>
      <point x="749.23" y="231.0"/>
      <point x="804.0333333333333" y="288.90333333333336"/>
      <point x="846.4933333333333" y="393.52" type="curve"/>
      <point x="854.1033333333334" y="393.52" type="line"/>
      <point x="869.15" y="296.27"/>
      <point x="927.9033333333333" y="231.0"/>
      <point x="1037.05" y="231.0" type="curve" smooth="yes"/>
      <point x="1212.5333333333333" y="231.0"/>
      <point x="1315.7966666666666" y="414.29"/>
      <point x="1315.7966666666666" y="747.0466666666667" type="curve" smooth="yes"/>
      <point x="1315.7966666666666" y="1160.3566666666666"/>
      <point x="1127.12" y="1476.2433333333333"/>
      <point x="746.2766666666666" y="1476.2433333333333" type="curve" smooth="yes"/>
      <point x="314.48" y="1476.2433333333333"/>
      <point x="86.44333333333333" y="1070.7266666666667"/>
      <point x="86.44333333333333" y="591.12" type="curve" smooth="yes"/>
      <point x="86.44333333333333" y="151.17333333333335"/>
      <point x="281.8933333333333" y="-172.12333333333333"/>
    </contour>
    <contour>
      <point x="683.8633333333333" y="376.96666666666664" type="curve" smooth="yes"/>
      <point x="654.8633333333333" y="376.96666666666664"/>
      <point x="632.7900000000001" y="392.43"/>
      <point x="616.7166666666666" y="427.13666666666666" type="curve" smooth="yes"/>
      <point x="598.35" y="464.9666666666667"/>
      <point x="589.5933333333332" y="522.0666666666666"/>
      <point x="589.5933333333332" y="597.4366666666666" type="curve" smooth="yes"/>
      <point x="589.5933333333332" y="712.61"/>
      <point x="606.3000000000001" y="800.88"/>
      <point x="635.6166666666667" y="860.0033333333333" type="curve" smooth="yes"/>
      <point x="660.2266666666666" y="912.64"/>
      <point x="694.5199999999999" y="941.47"/>
      <point x="737.4966666666667" y="941.47" type="curve" smooth="yes"/>
      <point x="761.4733333333334" y="941.47"/>
      <point x="786.4" y="937.5433333333333"/>
      <point x="802.5466666666666" y="931.6166666666667" type="curve"/>
      <point x="788.8633333333333" y="677.12" type="line" smooth="yes"/>
      <point x="783.3266666666667" y="572.7033333333333"/>
      <point x="771.4" y="496.8966666666667"/>
      <point x="755.7900000000001" y="450.7" type="curve" smooth="yes"/>
      <point x="740.1800000000001" y="404.50333333333333"/>
      <point x="717.1066666666667" y="376.96666666666664"/>
    </contour>
  </outline>
</glyph>
<glyph name="A" format="2">
  <advance width="998.995238095238"/>
  <unicode hex="0041"/>
  <anchor x="499.6666666666667" y="0.0" name="bottom"/>
  <anchor x="945.6833333333333" y="10.0" name="ogonek"/>
  <anchor x="499.6666666666667" y="1462.0" name="top"/>
  <outline>
    <contour>
      <point x="998.7966666666667" y="0.0" type="line"/>
      <point x="636.9433333333333" y="1466.17" type="line"/>
      <point x="358.95" y="1466.17" type="line"/>
      <point x="0.0" y="0.0" type="line"/>
      <point x="214.12666666666667" y="0.0" type="line"/>
      <point x="313.32666666666665" y="423.89666666666665" type="line"/>
      <point x="685.47" y="423.89666666666665" type="line"/>
      <point x="784.8166666666667" y="0.0" type="line"/>
    </contour>
    <contour>
      <point x="355.49333333333334" y="616.0266666666666" type="line"/>
      <point x="403.97999999999996" y="829.0699999999999"/>
      <point x="438.49333333333334" y="984.1233333333333"/>
      <point x="466.5933333333333" y="1113.7666666666667" type="curve" smooth="yes"/>
      <point x="474.96" y="1151.8433333333332"/>
      <point x="483.49666666666667" y="1202.8933333333334"/>
      <point x="497.37333333333333" y="1297.4966666666667" type="curve"/>
      <point x="502.5199999999999" y="1255.0066666666667"/>
      <point x="538.0766666666667" y="1073.76"/>
      <point x="548.2966666666667" y="1025.7333333333333" type="curve" smooth="yes"/>
      <point x="643.4733333333334" y="616.0266666666666" type="line"/>
    </contour>
  </outline>
</glyph>
<glyph name="C" format="2">
  <advance width="918.2476190476191"/>
  <unicode hex="0043"/>
  <anchor x="554.2809523809524" y="0.0" name="bottom"/>
  <anchor x="551.2523809523809" y="1456.0428571428572" name="top"/>
  <outline>
    <contour>
      <point x="589.68" y="-20.0" type="curve" smooth="yes"/>
      <point x="686.2633333333334" y="-20.0"/>
      <point x="774.1866666666666" y="0.09666666666666629"/>
      <point x="838.6966666666666" y="42.14333333333333" type="curve"/>
      <point x="838.6966666666666" y="232.68666666666667" type="line"/>
      <point x="769.7966666666666" y="194.56666666666666"/>
      <point x="692.75" y="169.91"/>
      <point x="612.58" y="169.91" type="curve" smooth="yes"/>
      <point x="539.97" y="169.91"/>
      <point x="481.92" y="196.44666666666666"/>
      <point x="436.11333333333334" y="248.05666666666667" type="curve" smooth="yes"/>
      <point x="353.76666666666665" y="338.37666666666667"/>
      <point x="311.22666666666663" y="506.2366666666666"/>
      <point x="311.22666666666663" y="722.8066666666667" type="curve" smooth="yes"/>
      <point x="311.22666666666663" y="1087.5466666666666"/>
      <point x="422.5" y="1294.6266666666666"/>
      <point x="601.7266666666667" y="1294.6266666666666" type="curve" smooth="yes"/>
      <point x="679.2133333333334" y="1294.6266666666666"/>
      <point x="753.8699999999999" y="1254.3866666666665"/>
      <point x="801.5300000000001" y="1221.63" type="curve"/>
      <point x="876.1833333333333" y="1397.5166666666667" type="line"/>
      <point x="779.0666666666667" y="1459.3666666666666"/>
      <point x="690.8733333333333" y="1483.6100000000001"/>
      <point x="592.6066666666667" y="1483.6100000000001" type="curve" smooth="yes"/>
      <point x="448.64761904761906" y="1483.6761904761904"/>
      <point x="331.7190476190476" y="1424.6904761904761"/>
      <point x="246.76190476190476" y="1314.7190476190476" type="curve" smooth="yes"/>
      <point x="147.7904761904762" y="1185.7190476190476"/>
      <point x="93.12857142857143" y="986.0428571428571"/>
      <point x="93.39333333333333" y="730.3666666666667" type="curve" smooth="yes"/>
      <point x="93.12857142857143" y="324.15714285714284"/>
      <point x="233.74761904761905" y="-20.0"/>
    </contour>
  </outline>
</glyph>
<glyph name="E" format="2">
  <advance width="843.5999999999999"/>
  <unicode hex="0045"/>
  <anchor x="421.8" y="0.0" name="bottom"/>
  <anchor x="758.5766666666666" y="10.0" name="ogonek"/>
  <anchor x="421.8" y="1462.0" name="top"/>
  <anchor x="20.0" y="1462.0" name="topleft"/>
  <outline>
    <contour>
      <point x="754.8666666666667" y="189.44666666666666" type="line"/>
      <point x="352.52000000000004" y="189.44666666666666" type="line"/>
      <point x="352.52000000000004" y="668.4966666666667" type="line"/>
      <point x="728.55" y="668.4966666666667" type="line"/>
      <point x="728.55" y="856.5533333333333" type="line"/>
      <point x="352.52000000000004" y="856.5533333333333" type="line"/>
      <point x="352.52000000000004" y="1274.4066666666668" type="line"/>
      <point x="754.8666666666667" y="1274.4066666666668" type="line"/>
      <point x="754.8666666666667" y="1462.0" type="line"/>
      <point x="139.14999999999998" y="1462.0" type="line"/>
      <point x="139.14999999999998" y="0.0" type="line"/>
      <point x="754.8666666666667" y="0.0" type="line"/>
    </contour>
  </outline>
</glyph>
<glyph name="G" format="2">
  <advance width="1099.4904761904763"/>
  <unicode hex="0047"/>
  <anchor x="575.4133333333333" y="0.0" name="bottom"/>
  <anchor x="665.75" y="1462.0" name="top"/>
  <outline>
    <contour>
      <point x="621.8766666666667" y="-20.0" type="curve" smooth="yes"/>
      <point x="741.4133333333334" y="-20.0"/>
      <point x="876.41" y="4.78"/>
      <point x="998.53" y="56.12" type="curve"/>
      <point x="998.53" y="786.1133333333333" type="line"/>
      <point x="594.6666666666666" y="786.1133333333333" type="line"/>
      <point x="594.6666666666666" y="595.74" type="line"/>
      <point x="789.2566666666667" y="595.74" type="line"/>
      <point x="789.2566666666667" y="193.47333333333333" type="line"/>
      <point x="737.1566666666666" y="177.73999999999998"/>
      <point x="679.8599999999999" y="169.90999999999997"/>
      <point x="620.6833333333333" y="169.90999999999997" type="curve" smooth="yes"/>
      <point x="421.38" y="169.90999999999997"/>
      <point x="312.29999999999995" y="377.94"/>
      <point x="312.29999999999995" y="712.1500000000001" type="curve" smooth="yes"/>
      <point x="312.29999999999995" y="1093.8166666666666"/>
      <point x="446.03333333333336" y="1293.2366666666667"/>
      <point x="675.48" y="1293.2366666666667" type="curve" smooth="yes"/>
      <point x="751.6766666666666" y="1293.2366666666667"/>
      <point x="832.8" y="1267.48"/>
      <point x="918.7766666666666" y="1215.43" type="curve"/>
      <point x="991.26" y="1392.2433333333336" type="line"/>
      <point x="888.1633333333334" y="1452.9266666666667"/>
      <point x="781.3833333333333" y="1483.0"/>
      <point x="662.5066666666667" y="1483.0" type="curve" smooth="yes"/>
      <point x="550.19" y="1483.0"/>
      <point x="451.94666666666666" y="1455.7066666666667"/>
      <point x="371.24" y="1403.2666666666667" type="curve" smooth="yes"/>
      <point x="192.22" y="1289.0466666666666"/>
      <point x="93.39333333333333" y="1055.6333333333332"/>
      <point x="93.39333333333333" y="720.1733333333334" type="curve" smooth="yes"/>
      <point x="93.39333333333333" y="252.73333333333332"/>
      <point x="281.09999999999997" y="-20.0"/>
    </contour>
  </outline>
</glyph>
<glyph name="H" format="2">
  <advance width="1115.357142857143"/>
  <unicode hex="0048"/>
  <anchor x="557.9433333333334" y="0.0" name="bottom"/>
  <anchor x="557.9433333333334" y="731.0" name="center"/>
  <anchor x="557.9433333333334" y="1462.0" name="top"/>
  <anchor x="20.0" y="1462.0" name="topleft"/>
  <outline>
    <contour>
      <point x="975.8100000000001" y="1462.0" type="line"/>
      <point x="762.44" y="1462.0" type="line"/>
      <point x="762.44" y="857.9433333333333" type="line"/>
      <point x="352.52000000000004" y="857.9433333333333" type="line"/>
      <point x="352.65238095238095" y="1462.0" type="line"/>
      <point x="139.15" y="1462.0" type="line"/>
      <point x="139.15" y="0.0" type="line"/>
      <point x="352.52000000000004" y="0.0" type="line"/>
      <point x="352.52000000000004" y="667.57" type="line"/>
      <point x="762.44" y="667.57" type="line"/>
      <point x="762.44" y="0.0" type="line"/>
      <point x="975.8100000000001" y="0.0" type="line"/>
    </contour>
  </outline>
</glyph>
<glyph name="J" format="2">
  <advance width="486.38571428571424"/>
  <unicode hex="004A"/>
  <anchor x="243.62666666666667" y="0.0" name="bottom"/>
  <anchor x="243.62666666666667" y="1462.0" name="top"/>
  <outline>
    <contour>
      <point x="22.36666666666666" y="-404.2133333333333" type="curve" smooth="yes"/>
      <point x="86.60999999999999" y="-404.2133333333333"/>
      <point x="149.89999999999998" y="-384.60333333333335"/>
      <point x="201.7266666666667" y="-346.4566666666667" type="curve" smooth="yes"/>
      <point x="294.28000000000003" y="-281.1166666666667"/>
      <point x="349.46999999999997" y="-150.44"/>
      <point x="349.46999999999997" y="21.94333333333334" type="curve" smooth="yes"/>
      <point x="349.46999999999997" y="1462.0" type="line"/>
      <point x="136.1" y="1462.0" type="line"/>
      <point x="136.1" y="12.066666666666666" type="line" smooth="yes"/>
      <point x="136.1" y="-66.66666666666667"/>
      <point x="122.85666666666668" y="-128.27666666666667"/>
      <point x="95.37" y="-162.57" type="curve" smooth="yes"/>
      <point x="71.59" y="-194.62"/>
      <point x="33.63999999999999" y="-211.30333333333334"/>
      <point x="-9.749999999999993" y="-211.30333333333334" type="curve" smooth="yes"/>
      <point x="-53.75" y="-211.30333333333334"/>
      <point x="-92.67666666666668" y="-204.30333333333334"/>
      <point x="-132.62666666666667" y="-191.30333333333334" type="curve"/>
      <point x="-132.62666666666667" y="-379.2133333333333" type="line"/>
      <point x="-93.60333333333334" y="-396.21333333333337"/>
      <point x="-46.726666666666674" y="-404.2133333333333"/>
    </contour>
  </outline>
</glyph>
<glyph name="K" format="2">
  <advance width="967.3095238095239"/>
  <unicode hex="004B"/>
  <anchor x="483.89000000000004" y="0.0" name="bottom"/>
  <anchor x="483.89000000000004" y="1462.0" name="top"/>
  <outline>
    <contour>
      <point x="607.4566666666667" y="825.9499999999999" type="line"/>
      <point x="955.46" y="1462.0" type="line"/>
      <point x="726.6033333333334" y="1462.0" type="line"/>
      <point x="468.21000000000004" y="960.7333333333333" type="line"/>
      <point x="419.34999999999997" y="860.5533333333333"/>
      <point x="380.3233333333333" y="780.4533333333334"/>
      <point x="352.52000000000004" y="720.8966666666666" type="curve"/>
      <point x="352.52000000000004" y="1462.0" type="line"/>
      <point x="139.14999999999998" y="1462.0" type="line"/>
      <point x="139.14999999999998" y="0.0" type="line"/>
      <point x="352.52000000000004" y="0.0" type="line"/>
      <point x="352.52000000000004" y="537.3733333333334" type="line"/>
      <point x="463.2033333333334" y="660.4266666666666" type="line"/>
      <point x="738.1666666666666" y="0.0" type="line"/>
      <point x="967.7066666666666" y="0.0" type="line"/>
    </contour>
  </outline>
</glyph>
<glyph name="L" format="2">
  <advance width="785.1333333333333"/>
  <unicode hex="004C"/>
  <anchor x="393.06666666666666" y="0.0" name="bottom"/>
  <anchor x="393.06666666666666" y="731.0" name="center"/>
  <anchor x="249.68571428571428" y="1462.0" name="top"/>
  <anchor x="748.8142857142857" y="1462.0" name="topright"/>
  <outline>
    <contour>
      <point x="741.8166666666667" y="0.0" type="line"/>
      <point x="741.8166666666667" y="189.44666666666666" type="line"/>
      <point x="352.52000000000004" y="189.44666666666666" type="line"/>
      <point x="352.52000000000004" y="1462.0" type="line"/>
      <point x="139.14999999999998" y="1462.0" type="line"/>
      <point x="139.14999999999998" y="0.0" type="line"/>
    </contour>
  </outline>
</glyph>
<glyph name="M" format="2">
  <advance width="1534.6619047619047"/>
  <unicode hex="004D"/>
  <anchor x="767.0366666666666" y="0.0" name="bottom"/>
  <anchor x="767.0366666666666" y="1462.0" name="top"/>
  <outline>
    <contour>
      <point x="139.14999999999998" y="0.0" type="line"/>
      <point x="338.3266666666667" y="0.0" type="line"/>
      <point x="338.3266666666667" y="1009.8633333333333" type="line" smooth="yes"/>
      <point x="338.3266666666667" y="1074.6633333333334"/>
      <point x="333.01" y="1163.2"/>
      <point x="322.30333333333334" y="1274.0100000000002" type="curve"/>
      <point x="332.1566666666667" y="1274.0100000000002" type="line"/>
      <point x="647.95" y="0.0" type="line"/>
      <point x="884.5133333333334" y="0.0" type="line"/>
      <point x="1199.2333333333333" y="1272.9366666666667" type="line"/>
      <point x="1209.0866666666666" y="1272.9366666666667" type="line"/>
      <point x="1198.3799999999999" y="1162.1266666666668"/>
      <point x="1193.0633333333333" y="1072.5166666666667"/>
      <point x="1193.0633333333333" y="1005.5699999999999" type="curve" smooth="yes"/>
      <point x="1193.0633333333333" y="0.0" type="line"/>
      <point x="1394.3866666666665" y="0.0" type="line"/>
      <point x="1394.3866666666665" y="1462.0" type="line"/>
      <point x="1065.54" y="1462.0" type="line"/>
      <point x="827.1833333333333" y="490.73" type="line"/>
      <point x="801.9133333333333" y="390.87333333333333"/>
      <point x="782.84" y="306.87333333333333"/>
      <point x="768.89" y="238.41333333333333" type="curve"/>
      <point x="760.8900000000001" y="238.41333333333333" type="line"/>
      <point x="745.8666666666667" y="317.6066666666667"/>
      <point x="727.33" y="401.6066666666666"/>
      <point x="705.2800000000001" y="491.80333333333334" type="curve"/>
      <point x="465.31333333333333" y="1462.0" type="line"/>
      <point x="139.14999999999998" y="1462.0" type="line"/>
    </contour>
  </outline>
</glyph>
<glyph name="R" format="2">
  <advance width="971.9333333333334"/>
  <unicode hex="0052"/>
  <anchor x="485.96666666666664" y="0.0" name="bottom"/>
  <anchor x="485.96666666666664" y="1462.0" name="top"/>
  <outline>
    <contour>
      <point x="139.14999999999998" y="0.0" type="line"/>
      <point x="352.52000000000004" y="0.0" type="line"/>
      <point x="352.52000000000004" y="592.6666666666666" type="line"/>
      <point x="479.6766666666666" y="592.6666666666666" type="line"/>
      <point x="724.8766666666667" y="0.0" type="line"/>
      <point x="954.4166666666667" y="0.0" type="line"/>
      <point x="670.44" y="648.1" type="line"/>
      <point x="810.25" y="718.1966666666667"/>
      <point x="873.9333333333334" y="847.1966666666667"/>
      <point x="873.9333333333334" y="1038.15" type="curve" smooth="yes"/>
      <point x="873.9333333333334" y="1322.83"/>
      <point x="738.5933333333334" y="1462.0"/>
      <point x="442.4733333333333" y="1462.0" type="curve" smooth="yes"/>
      <point x="139.14999999999998" y="1462.0" type="line"/>
    </contour>
    <contour>
      <point x="352.52000000000004" y="778.1133333333333" type="line"/>
      <point x="352.52000000000004" y="1273.7966666666669" type="line"/>
      <point x="434.18333333333334" y="1273.7966666666669" type="line" smooth="yes"/>
      <point x="587.7300000000001" y="1273.7966666666669"/>
      <point x="658.1" y="1204.5733333333333"/>
      <point x="658.1" y="1031.8333333333333" type="curve" smooth="yes"/>
      <point x="658.1" y="863.5566666666667"/>
      <point x="589.6066666666666" y="778.1133333333333"/>
      <point x="445.50333333333333" y="778.1133333333333" type="curve" smooth="yes"/>
    </contour>
  </outline>
</glyph>
<glyph name="T" format="2">
  <advance width="826.1714285714286"/>
  <unicode hex="0054"/>
  <anchor x="406.27809523809526" y="0.0" name="bottom"/>
  <anchor x="413.7914285714286" y="731.0" name="center"/>
  <anchor x="413.7914285714286" y="1462.0" name="top"/>
  <outline>
    <contour>
      <point x="519.1714285714286" y="1272.09" type="line"/>
      <point x="802.7580952380952" y="1272.09" type="line"/>
      <point x="802.7580952380952" y="1462.0" type="line"/>
      <point x="23.14142857142857" y="1462.0" type="line"/>
      <point x="23.14142857142857" y="1272.09" type="line"/>
      <point x="306.72809523809525" y="1272.09" type="line"/>
      <point x="306.72809523809525" y="0.0" type="line"/>
      <point x="519.1714285714286" y="0.0" type="line"/>
    </contour>
  </outline>
</glyph>
<glyph name="V" format="2">
  <advance width="953.2238095238096"/>
  <unicode hex="0056"/>
  <anchor x="476.45000000000005" y="0.0" name="bottom"/>
  <anchor x="476.45000000000005" y="1462.0" name="top"/>
  <outline>
    <contour>
      <point x="342.61" y="0.0" type="line"/>
      <point x="608.6800000000001" y="0.0" type="line"/>
      <point x="953.29" y="1462.0" type="line"/>
      <point x="737.3833333333333" y="1462.0" type="line"/>
      <point x="522.2033333333333" y="488.46" type="line" smooth="yes"/>
      <point x="504.18000000000006" y="401.71"/>
      <point x="487.5466666666667" y="301.3233333333333"/>
      <point x="475.1566666666667" y="201.1566666666667" type="curve"/>
      <point x="461.76666666666665" y="320.1066666666666"/>
      <point x="444.10999999999996" y="430.36333333333334"/>
      <point x="422.93666666666667" y="523.4233333333333" type="curve" smooth="yes"/>
      <point x="215.98000000000002" y="1462.0" type="line"/>
      <point x="0.0" y="1462.0" type="line"/>
    </contour>
  </outline>
</glyph>
<glyph name="Y" format="2">
  <advance width="868.0238095238094"/>
  <unicode hex="0059"/>
  <anchor x="434.74" y="0.0" name="bottom"/>
  <anchor x="434.74" y="1462.0" name="top"/>
  <anchor x="20.0" y="1462.0" name="topleft"/>
  <outline>
    <contour>
      <point x="225.39333333333332" y="1462.0" type="line"/>
      <point x="0.0" y="1462.0" type="line"/>
      <point x="328.2133333333333" y="574.2433333333333" type="line"/>
      <point x="328.2133333333333" y="0.0" type="line"/>
      <point x="538.8033333333333" y="0.0" type="line"/>
      <point x="538.8033333333333" y="580.7300000000001" type="line"/>
      <point x="868.09" y="1462.0" type="line"/>
      <point x="644.5500000000001" y="1462.0" type="line"/>
      <point x="434.34999999999997" y="824.6866666666666" type="line"/>
    </contour>
  </outline>
</glyph>
<glyph name="bracketleft" format="2">
  <advance width="647.6476190476191"/>
  <unicode hex="005B"/>
  <note>
bracketleft
</note>
  <outline>
    <contour>
      <point x="146.66333333333333" y="-324.0" type="line"/>
      <point x="591.85" y="-324.0" type="line"/>
      <point x="591.85" y="-161.18333333333334" type="line"/>
      <point x="341.66999999999996" y="-161.18333333333334" type="line"/>
      <point x="341.66999999999996" y="1300.1833333333334" type="line"/>
      <point x="591.85" y="1300.1833333333334" type="line"/>
      <point x="591.85" y="1462.0" type="line"/>
      <point x="146.66333333333333" y="1462.0" type="line"/>
    </contour>
  </outline>
</glyph>
<glyph name="a" format="2">
  <advance width="897.847619047619"/>
  <unicode hex="0061"/>
  <anchor x="448.99" y="0.0" name="bottom"/>
  <anchor x="839.4433333333334" y="10.0" name="ogonek"/>
  <anchor x="448.99" y="1104.4600000000003" name="top"/>
  <outline>
    <contour>
      <point x="782.9266666666666" y="0.0" type="line"/>
      <point x="782.9266666666666" y="745.0233333333333" type="line" smooth="yes"/>
      <point x="782.9266666666666" y="997.9033333333333"/>
      <point x="676.1033333333334" y="1126.85"/>
      <point x="454.0133333333334" y="1126.85" type="curve" smooth="yes"/>
      <point x="345.53" y="1126.85"/>
      <point x="236.41333333333333" y="1095.51"/>
      <point x="138.71" y="1032.7566666666667" type="curve"/>
      <point x="213.99666666666664" y="886.4033333333333" type="line"/>
      <point x="293.36" y="934.8166666666667"/>
      <point x="364.7" y="958.5233333333334"/>
      <point x="429.9433333333333" y="958.5233333333334" type="curve" smooth="yes"/>
      <point x="529.8" y="958.5233333333334"/>
      <point x="574.4833333333333" y="893.6899999999999"/>
      <point x="574.4833333333333" y="756.4833333333333" type="curve" smooth="yes"/>
      <point x="574.4833333333333" y="673.8966666666666" type="line"/>
      <point x="437.56" y="667.4333333333333" type="line" smooth="yes"/>
      <point x="188.54" y="655.9699999999999"/>
      <point x="62.709999999999994" y="539.2366666666666"/>
      <point x="62.709999999999994" y="311.85" type="curve" smooth="yes"/>
      <point x="62.709999999999994" y="107.09666666666666"/>
      <point x="157.17333333333335" y="-20.0"/>
      <point x="326.9" y="-20.0" type="curve" smooth="yes"/>
      <point x="432.82666666666665" y="-20.0"/>
      <point x="515.5333333333333" y="27.733333333333334"/>
      <point x="582.8233333333333" y="152.0" type="curve"/>
      <point x="588.2133333333334" y="152.0" type="line"/>
      <point x="627.5500000000001" y="0.0" type="line"/>
    </contour>
    <contour>
      <point x="396.54999999999995" y="145.32666666666665" type="curve" smooth="yes"/>
      <point x="320.47333333333336" y="145.32666666666665"/>
      <point x="278.54333333333335" y="198.72"/>
      <point x="278.54333333333335" y="314.4833333333333" type="curve" smooth="yes"/>
      <point x="278.54333333333335" y="452.83"/>
      <point x="345.79" y="523.15"/>
      <point x="482.3333333333333" y="529.8333333333333" type="curve" smooth="yes"/>
      <point x="574.4833333333332" y="534.4433333333333" type="line"/>
      <point x="574.4833333333332" y="433.9533333333333" type="line" smooth="yes"/>
      <point x="574.4833333333332" y="255.20999999999998"/>
      <point x="506.14000000000004" y="145.32666666666665"/>
    </contour>
  </outline>
</glyph>
<glyph name="b" format="2">
  <advance width="974.4142857142857"/>
  <unicode hex="0062"/>
  <anchor x="487.7733333333333" y="0.0" name="bottom"/>
  <anchor x="487.7733333333333" y="1104.4600000000003" name="top"/>
  <outline>
    <contour>
      <point x="568.1333333333333" y="-20.0" type="curve" smooth="yes"/>
      <point x="777.1800000000001" y="-20.0"/>
      <point x="893.52" y="186.34"/>
      <point x="893.52" y="553.4866666666666" type="curve" smooth="yes"/>
      <point x="893.52" y="922.6333333333333"/>
      <point x="776.1800000000001" y="1124.85"/>
      <point x="570.3266666666666" y="1124.85" type="curve" smooth="yes"/>
      <point x="468.96" y="1124.85"/>
      <point x="394.81333333333333" y="1076.24"/>
      <point x="333.4233333333334" y="959.6066666666667" type="curve"/>
      <point x="321.7166666666667" y="959.6066666666667" type="line"/>
      <point x="327.96" y="1035.5766666666666"/>
      <point x="332.2033333333334" y="1104.9866666666667"/>
      <point x="332.2033333333334" y="1151.7666666666667" type="curve" smooth="yes"/>
      <point x="332.2033333333334" y="1556.0" type="line"/>
      <point x="123.68666666666665" y="1556.0" type="line"/>
      <point x="123.68666666666665" y="0.0" type="line"/>
      <point x="279.99" y="0.0" type="line"/>
      <point x="314.30333333333334" y="134.71" type="line"/>
      <point x="328.3266666666667" y="134.71" type="line"/>
      <point x="390.81333333333333" y="25.490000000000002"/>
      <point x="471.79" y="-20.0"/>
    </contour>
    <contour>
      <point x="508.58000000000004" y="160.52" type="curve" smooth="yes"/>
      <point x="361.7433333333333" y="160.52"/>
      <point x="332.2033333333334" y="345.77"/>
      <point x="332.2033333333334" y="547.3366666666667" type="curve" smooth="yes"/>
      <point x="332.2033333333334" y="573.7266666666667" type="line" smooth="yes"/>
      <point x="332.2033333333334" y="773.6633333333334"/>
      <point x="359.4" y="945.11"/>
      <point x="503.96999999999997" y="945.11" type="curve" smooth="yes"/>
      <point x="626.9766666666666" y="945.11"/>
      <point x="680.0766666666667" y="816.2033333333333"/>
      <point x="680.0766666666667" y="556.1933333333333" type="curve" smooth="yes"/>
      <point x="680.0766666666667" y="360.40333333333336"/>
      <point x="651.8066666666666" y="160.52"/>
    </contour>
  </outline>
</glyph>
<glyph name="d" format="2">
  <advance width="974.4142857142857"/>
  <unicode hex="0064"/>
  <anchor x="487.7733333333333" y="0.0" name="bottom"/>
  <anchor x="487.7733333333333" y="552.2666666666667" name="center"/>
  <anchor x="487.7733333333333" y="1104.46" name="top"/>
  <anchor x="954.5466666666666" y="1104.46" name="topright"/>
  <outline>
    <contour>
      <point x="409.5366666666667" y="-20.0" type="curve" smooth="yes"/>
      <point x="507.73333333333335" y="-20.0"/>
      <point x="595.44" y="30.806666666666665"/>
      <point x="653.0" y="146.90333333333336" type="curve"/>
      <point x="662.0" y="146.90333333333336" type="line"/>
      <point x="694.5566666666666" y="0.0" type="line"/>
      <point x="851.7866666666666" y="0.0" type="line"/>
      <point x="851.7866666666666" y="1556.0" type="line"/>
      <point x="643.7333333333333" y="1556.0" type="line"/>
      <point x="643.7333333333333" y="1144.9866666666665" type="line" smooth="yes"/>
      <point x="644.27" y="1097.5733333333333"/>
      <point x="647.1966666666667" y="1043.1366666666668"/>
      <point x="652.83" y="963.2900000000001" type="curve"/>
      <point x="639.7333333333333" y="963.2900000000001" type="line"/>
      <point x="583.1" y="1070.63"/>
      <point x="503.9266666666666" y="1125.46"/>
      <point x="405.5366666666667" y="1125.46" type="curve" smooth="yes"/>
      <point x="196.82999999999998" y="1125.46"/>
      <point x="80.56333333333333" y="914.0966666666667"/>
      <point x="80.56333333333333" y="552.5833333333334" type="curve" smooth="yes"/>
      <point x="80.56333333333333" y="183.21666666666667"/>
      <point x="199.0" y="-20.0"/>
    </contour>
    <contour>
      <point x="466.9666666666667" y="157.05666666666664" type="curve" smooth="yes"/>
      <point x="324.81333333333333" y="157.05666666666664"/>
      <point x="295.39666666666665" y="345.99000000000007"/>
      <point x="295.39666666666665" y="545.4866666666666" type="curve" smooth="yes"/>
      <point x="295.39666666666665" y="747.9333333333333"/>
      <point x="323.13" y="942.33"/>
      <point x="463.43" y="942.33" type="curve" smooth="yes"/>
      <point x="618.2666666666667" y="942.33"/>
      <point x="641.8800000000001" y="757.2266666666666"/>
      <point x="641.8800000000001" y="548.8766666666667" type="curve" smooth="yes"/>
      <point x="641.8800000000001" y="504.4833333333333" type="line" smooth="yes"/>
      <point x="641.8800000000001" y="323.94"/>
      <point x="607.51" y="157.05666666666664"/>
    </contour>
  </outline>
</glyph>
<glyph name="e" format="2">
  <advance width="895.0047619047618"/>
  <unicode hex="0065"/>
  <anchor x="471.96333333333337" y="0.0" name="bottom"/>
  <anchor x="751.07" y="31.953333333333333" name="ogonek"/>
  <anchor x="447.4066666666667" y="1104.4600000000003" name="top"/>
  <outline>
    <contour>
      <point x="499.7966666666667" y="-20.0" type="curve" smooth="yes"/>
      <point x="604.5966666666667" y="-20.0"/>
      <point x="697.52" y="5.243333333333334"/>
      <point x="777.1766666666667" y="52.876666666666665" type="curve"/>
      <point x="777.1766666666667" y="229.20333333333335" type="line"/>
      <point x="691.52" y="178.17999999999998"/>
      <point x="609.3266666666667" y="152.47333333333333"/>
      <point x="528.8166666666666" y="152.47333333333333" type="curve" smooth="yes"/>
      <point x="378.7633333333333" y="152.47333333333333"/>
      <point x="296.54333333333335" y="268.7"/>
      <point x="293.08" y="507.3233333333333" type="curve"/>
      <point x="820.98" y="507.3233333333333" type="line"/>
      <point x="820.98" y="631.0" type="line" smooth="yes"/>
      <point x="820.98" y="940.9966666666667"/>
      <point x="684.4966666666667" y="1125.46"/>
      <point x="462.7966666666667" y="1125.46" type="curve" smooth="yes"/>
      <point x="221.04666666666668" y="1125.46"/>
      <point x="81.17333333333333" y="913.4133333333333"/>
      <point x="81.17333333333333" y="544.2666666666667" type="curve" smooth="yes"/>
      <point x="81.17333333333333" y="186.0"/>
      <point x="237.89999999999998" y="-20.0"/>
    </contour>
    <contour>
      <point x="296.47" y="664.2133333333334" type="line"/>
      <point x="305.7633333333334" y="864.5166666666667"/>
      <point x="365.18" y="960.6933333333334"/>
      <point x="459.57666666666665" y="960.6933333333334" type="curve" smooth="yes"/>
      <point x="555.3133333333334" y="960.6933333333334"/>
      <point x="613.8533333333332" y="852.7099999999999"/>
      <point x="616.17" y="664.2133333333334" type="curve"/>
    </contour>
  </outline>
</glyph>
<glyph name="f" format="2">
  <advance width="558.2428571428572"/>
  <unicode hex="0066"/>
  <anchor x="279.3566666666667" y="0.0" name="bottom"/>
  <anchor x="279.3566666666667" y="1104.4600000000003" name="top"/>
  <outline>
    <contour>
      <point x="158.0" y="0.0" type="line"/>
      <point x="365.97999999999996" y="0.0" type="line"/>
      <point x="365.97999999999996" y="936.1333333333333" type="line"/>
      <point x="545.2466666666667" y="936.1333333333333" type="line"/>
      <point x="545.2466666666667" y="1104.4600000000003" type="line"/>
      <point x="365.97999999999996" y="1104.4600000000003" type="line"/>
      <point x="365.97999999999996" y="1189.4366666666665" type="line" smooth="yes"/>
      <point x="365.97999999999996" y="1245.5866666666666"/>
      <point x="371.8333333333333" y="1294.4666666666667"/>
      <point x="383.53999999999996" y="1322.1766666666667" type="curve" smooth="yes"/>
      <point x="394.44333333333327" y="1370.2566666666667"/>
      <point x="412.86" y="1389.5766666666668"/>
      <point x="451.45" y="1389.5766666666668" type="curve" smooth="yes"/>
      <point x="494.81333333333333" y="1389.5766666666668"/>
      <point x="526.8133333333334" y="1383.43"/>
      <point x="565.52" y="1364.5766666666668" type="curve"/>
      <point x="623.0766666666667" y="1528.5633333333333" type="line"/>
      <point x="567.47" y="1554.3666666666668"/>
      <point x="512.4966666666667" y="1567.0"/>
      <point x="443.72" y="1567.0" type="curve" smooth="yes"/>
      <point x="241.48333333333332" y="1567.0"/>
      <point x="158.0" y="1447.976666666667"/>
      <point x="158.0" y="1192.8266666666668" type="curve" smooth="yes"/>
      <point x="158.0" y="1109.4366666666667" type="line"/>
      <point x="26.023333333333333" y="1042.0266666666666" type="line"/>
      <point x="26.023333333333333" y="936.1333333333333" type="line"/>
      <point x="158.0" y="936.1333333333333" type="line"/>
    </contour>
  </outline>
</glyph>
<glyph name="g" format="2">
  <advance width="870.0714285714286"/>
  <unicode hex="0067"/>
  <anchor x="435.4033333333333" y="0.0" name="bottom"/>
  <anchor x="437.72" y="1104.4600000000003" name="top"/>
  <outline>
    <contour>
      <point x="558.9866666666666" y="1102.6066666666668" type="line"/>
      <point x="527.9866666666666" y="1114.7533333333333"/>
      <point x="469.13666666666666" y="1125.46"/>
      <point x="424.13666666666666" y="1125.46" type="curve" smooth="yes"/>
      <point x="209.26666666666665" y="1125.46"/>
      <point x="86.73333333333333" y="985.3133333333334"/>
      <point x="86.73333333333333" y="745.9733333333334" type="curve" smooth="yes"/>
      <point x="86.73333333333333" y="600.85"/>
      <point x="143.73333333333332" y="477.68"/>
      <point x="242.22333333333333" y="423.43666666666667" type="curve"/>
      <point x="168.24666666666667" y="363.97333333333336"/>
      <point x="124.17333333333333" y="319.82666666666665"/>
      <point x="124.17333333333333" y="243.24333333333334" type="curve" smooth="yes"/>
      <point x="124.17333333333333" y="168.92666666666668"/>
      <point x="170.95333333333335" y="111.75666666666666"/>
      <point x="238.41666666666669" y="84.61000000000001" type="curve"/>
      <point x="98.75666666666666" y="37.413333333333334"/>
      <point x="23.416666666666668" y="-60.97666666666667"/>
      <point x="23.416666666666668" y="-189.1" type="curve" smooth="yes"/>
      <point x="23.416666666666668" y="-383.97666666666663"/>
      <point x="151.87666666666667" y="-492.0"/>
      <point x="381.7" y="-492.0" type="curve" smooth="yes"/>
      <point x="676.4699999999999" y="-492.0"/>
      <point x="847.2966666666667" y="-349.73333333333335"/>
      <point x="847.2966666666667" y="-106.22666666666667" type="curve" smooth="yes"/>
      <point x="847.2966666666667" y="92.96666666666665"/>
      <point x="739.0033333333332" y="195.50333333333333"/>
      <point x="549.2466666666667" y="195.50333333333333" type="curve" smooth="yes"/>
      <point x="419.15999999999997" y="195.50333333333333" type="line" smooth="yes"/>
      <point x="338.16" y="195.50333333333333"/>
      <point x="294.03666666666663" y="222.70000000000002"/>
      <point x="294.03666666666663" y="274.89666666666665" type="curve" smooth="yes"/>
      <point x="294.03666666666663" y="321.92333333333335"/>
      <point x="323.77000000000004" y="353.26666666666665"/>
      <point x="364.60333333333335" y="383.44" type="curve"/>
      <point x="380.06666666666666" y="379.5866666666667"/>
      <point x="401.55333333333334" y="377.73333333333335"/>
      <point x="428.1366666666667" y="377.73333333333335" type="curve" smooth="yes"/>
      <point x="632.7866666666666" y="377.73333333333335"/>
      <point x="757.1733333333333" y="518.88"/>
      <point x="757.1733333333333" y="747.0233333333333" type="curve" smooth="yes"/>
      <point x="757.1733333333333" y="828.1"/>
      <point x="738.9033333333333" y="902.6666666666667"/>
      <point x="709.0966666666667" y="951.4233333333334" type="curve"/>
      <point x="846.4399999999999" y="976.7633333333333" type="line"/>
      <point x="846.4399999999999" y="1102.6066666666668" type="line"/>
    </contour>
    <contour>
      <point x="215.64333333333332" y="-173.22333333333333" type="curve" smooth="yes"/>
      <point x="215.64333333333332" y="-62.290000000000006"/>
      <point x="279.21" y="9.910000000000007"/>
      <point x="371.29" y="9.910000000000007" type="curve" smooth="yes"/>
      <point x="480.21" y="9.910000000000007" type="line" smooth="yes"/>
      <point x="605.0899999999999" y="9.910000000000007"/>
      <point x="652.6066666666667" y="-35.82666666666666"/>
      <point x="652.6066666666667" y="-135.32" type="curve" smooth="yes"/>
      <point x="652.6066666666667" y="-261.7166666666667"/>
      <point x="561.4566666666667" y="-338.0133333333333"/>
      <point x="394.5033333333334" y="-338.0133333333333" type="curve" smooth="yes"/>
      <point x="277.84000000000003" y="-338.0133333333333"/>
      <point x="215.64333333333332" y="-277.79"/>
    </contour>
    <contour>
      <point x="289.93333333333334" y="743.9733333333334" type="curve" smooth="yes"/>
      <point x="289.93333333333334" y="897.6866666666666"/>
      <point x="335.79" y="980.74"/>
      <point x="423.99" y="980.74" type="curve" smooth="yes"/>
      <point x="509.6533333333333" y="980.74"/>
      <point x="554.4366666666666" y="899.2233333333334"/>
      <point x="554.4366666666666" y="748.4133333333333" type="curve" smooth="yes"/>
      <point x="554.4366666666666" y="597.09"/>
      <point x="510.8" y="521.6966666666667"/>
      <point x="423.99" y="521.6966666666667" type="curve" smooth="yes"/>
      <point x="338.69333333333327" y="521.6966666666667"/>
      <point x="289.93333333333334" y="597.09"/>
    </contour>
  </outline>
</glyph>
<glyph name="k" format="2">
  <advance width="879.1238095238095"/>
  <unicode hex="006B"/>
  <anchor x="440.32666666666665" y="0.0" name="bottom"/>
  <anchor x="440.32666666666665" y="1104.4600000000003" name="top"/>
  <outline>
    <contour>
      <point x="123.68666666666665" y="0.0" type="line"/>
      <point x="332.2033333333333" y="0.0" type="line"/>
      <point x="332.2033333333333" y="398.29999999999995" type="line"/>
      <point x="441.5466666666666" y="513.6733333333334" type="line"/>
      <point x="654.38" y="0.0" type="line"/>
      <point x="872.5300000000001" y="0.0" type="line"/>
      <point x="581.9966666666668" y="666.54" type="line"/>
      <point x="852.3833333333333" y="1104.4600000000003" type="line"/>
      <point x="631.2333333333332" y="1104.4600000000003" type="line"/>
      <point x="395.2033333333333" y="703.99" type="line" smooth="yes"/>
      <point x="371.34999999999997" y="662.8933333333334"/>
      <point x="351.4233333333333" y="620.7966666666666"/>
      <point x="330.0333333333333" y="578.7" type="curve"/>
      <point x="321.4966666666666" y="578.7" type="line"/>
      <point x="324.88666666666666" y="648.5033333333333"/>
      <point x="332.2033333333333" y="717.7699999999999"/>
      <point x="332.2033333333333" y="787.5733333333333" type="curve"/>
      <point x="332.2033333333333" y="1556.0" type="line"/>
      <point x="123.68666666666665" y="1556.0" type="line"/>
    </contour>
  </outline>
</glyph>
<glyph name="m" format="2">
  <advance width="1492.304761904762"/>
  <unicode hex="006D"/>
  <anchor x="746.52" y="0.0" name="bottom"/>
  <anchor x="746.52" y="1104.4600000000003" name="top"/>
  <outline>
    <contour>
      <point x="123.68666666666665" y="0.0" type="line"/>
      <point x="332.2033333333334" y="0.0" type="line"/>
      <point x="332.2033333333334" y="555.2266666666667" type="line" smooth="yes"/>
      <point x="332.2033333333334" y="693.4233333333333"/>
      <point x="345.88666666666666" y="792.4733333333334"/>
      <point x="374.71666666666664" y="853.3033333333334" type="curve" smooth="yes"/>
      <point x="404.4733333333333" y="916.45"/>
      <point x="450.9133333333333" y="943.89"/>
      <point x="508.08666666666664" y="943.89" type="curve" smooth="yes"/>
      <point x="601.3333333333334" y="943.89"/>
      <point x="645.3833333333333" y="861.8399999999999"/>
      <point x="645.3833333333333" y="689.4233333333334" type="curve" smooth="yes"/>
      <point x="645.3833333333333" y="0.0" type="line"/>
      <point x="854.7533333333333" y="0.0" type="line"/>
      <point x="854.7533333333333" y="572.45" type="line" smooth="yes"/>
      <point x="854.7533333333333" y="698.3033333333333"/>
      <point x="868.8266666666667" y="795.1566666666668"/>
      <point x="896.8033333333334" y="853.9866666666667" type="curve" smooth="yes"/>
      <point x="926.0966666666666" y="917.45"/>
      <point x="973.9266666666667" y="943.89"/>
      <point x="1031.1733333333332" y="943.89" type="curve" smooth="yes"/>
      <point x="1123.3466666666668" y="943.89"/>
      <point x="1167.5433333333333" y="861.23"/>
      <point x="1167.5433333333333" y="689.4233333333334" type="curve" smooth="yes"/>
      <point x="1167.5433333333333" y="0.0" type="line"/>
      <point x="1376.4499999999998" y="0.0" type="line"/>
      <point x="1376.4499999999998" y="721.0466666666667" type="line" smooth="yes"/>
      <point x="1376.4499999999998" y="992.0233333333333"/>
      <point x="1282.1366666666665" y="1125.46"/>
      <point x="1100.0666666666666" y="1125.46" type="curve" smooth="yes"/>
      <point x="975.8233333333333" y="1125.46"/>
      <point x="892.3133333333334" y="1068.6066666666666"/>
      <point x="834.29" y="933.7533333333333" type="curve"/>
      <point x="827.2666666666667" y="933.7533333333333" type="line"/>
      <point x="787.4633333333334" y="1060.3866666666668"/>
      <point x="703.0033333333333" y="1125.46"/>
      <point x="576.9800000000001" y="1125.46" type="curve" smooth="yes"/>
      <point x="466.49333333333334" y="1125.46"/>
      <point x="378.5933333333333" y="1071.24"/>
      <point x="328.6433333333333" y="958.5566666666667" type="curve"/>
      <point x="314.5466666666667" y="958.5566666666667" type="line"/>
      <point x="290.33" y="1104.4600000000003" type="line"/>
      <point x="123.68666666666665" y="1104.4600000000003" type="line"/>
    </contour>
  </outline>
</glyph>
<glyph name="q" format="2">
  <advance width="974.4142857142857"/>
  <unicode hex="0071"/>
  <anchor x="487.7733333333333" y="0.0" name="bottom"/>
  <anchor x="487.7733333333333" y="1104.4600000000003" name="top"/>
  <outline>
    <contour>
      <point x="643.7333333333333" y="-492.0" type="line"/>
      <point x="851.7866666666666" y="-492.0" type="line"/>
      <point x="851.7866666666666" y="1104.4600000000003" type="line"/>
      <point x="677.56" y="1104.4600000000003" type="line"/>
      <point x="652.83" y="960.85" type="line"/>
      <point x="641.1233333333334" y="960.85" type="line"/>
      <point x="584.27" y="1071.8500000000001"/>
      <point x="507.9766666666667" y="1125.46"/>
      <point x="405.3666666666667" y="1125.46" type="curve" smooth="yes"/>
      <point x="200.48999999999998" y="1125.46"/>
      <point x="80.56333333333333" y="920.2933333333333"/>
      <point x="80.56333333333333" y="552.5833333333334" type="curve" smooth="yes"/>
      <point x="80.56333333333333" y="181.92333333333332"/>
      <point x="199.90333333333334" y="-20.0"/>
      <point x="406.9266666666666" y="-20.0" type="curve" smooth="yes"/>
      <point x="513.9266666666666" y="-20.0"/>
      <point x="590.9033333333332" y="37.60999999999999"/>
      <point x="645.1233333333334" y="149.19666666666666" type="curve"/>
      <point x="654.5866666666667" y="149.19666666666666" type="line"/>
      <point x="647.1966666666667" y="65.32000000000001"/>
      <point x="643.7333333333333" y="8.100000000000001"/>
      <point x="643.7333333333333" y="-23.0" type="curve" smooth="yes"/>
    </contour>
    <contour>
      <point x="467.26" y="156.35" type="curve" smooth="yes"/>
      <point x="324.5933333333333" y="156.35"/>
      <point x="295.3966666666667" y="335.74666666666667"/>
      <point x="295.3966666666667" y="545.4866666666666" type="curve" smooth="yes"/>
      <point x="295.3966666666667" y="806.3000000000001"/>
      <point x="345.8866666666667" y="942.33"/>
      <point x="463.8933333333333" y="942.33" type="curve" smooth="yes"/>
      <point x="524.1166666666667" y="942.33"/>
      <point x="570.6800000000001" y="911.8166666666666"/>
      <point x="599.5600000000001" y="848.1800000000001" type="curve" smooth="yes"/>
      <point x="627.5133333333334" y="787.3233333333333"/>
      <point x="641.8800000000001" y="686.4666666666667"/>
      <point x="641.8800000000001" y="548.8766666666667" type="curve" smooth="yes"/>
      <point x="641.8800000000001" y="507.7533333333333" type="line" smooth="yes"/>
      <point x="641.8800000000001" y="393.55666666666673"/>
      <point x="628.1966666666667" y="306.75"/>
      <point x="602.2933333333333" y="251.11333333333334" type="curve" smooth="yes"/>
      <point x="573.8766666666667" y="189.37666666666667"/>
      <point x="528.9466666666667" y="156.35"/>
    </contour>
  </outline>
</glyph>
<glyph name="s" format="2">
  <advance width="725.0904761904761"/>
  <unicode hex="0073"/>
  <anchor x="324.75714285714287" y="0.0" name="bottom"/>
  <anchor x="362.3833333333333" y="1104.4600000000003" name="top"/>
  <outline>
    <contour>
      <point x="314.94666666666666" y="-20.0" type="curve" smooth="yes"/>
      <point x="546.67" y="-20.0"/>
      <point x="663.6666666666666" y="102.43666666666667"/>
      <point x="663.6666666666666" y="307.6766666666667" type="curve" smooth="yes"/>
      <point x="663.6666666666666" y="357.30999999999995"/>
      <point x="656.74" y="396.77333333333337"/>
      <point x="641.8866666666667" y="434.55333333333334" type="curve" smooth="yes"/>
      <point x="605.2533333333333" y="528.04"/>
      <point x="539.3033333333333" y="573.6733333333333"/>
      <point x="432.0333333333333" y="641.0166666666667" type="curve" smooth="yes"/>
      <point x="370.34666666666664" y="680.8"/>
      <point x="321.81" y="714.6300000000001"/>
      <point x="294.9566666666667" y="754.5333333333333" type="curve" smooth="yes"/>
      <point x="280.41999999999996" y="775.9000000000001"/>
      <point x="273.49333333333334" y="800.73"/>
      <point x="273.49333333333334" y="828.8533333333334" type="curve" smooth="yes"/>
      <point x="273.49333333333334" y="904.9833333333333"/>
      <point x="317.6933333333333" y="955.3033333333333"/>
      <point x="405.21" y="955.3033333333333" type="curve" smooth="yes"/>
      <point x="458.18666666666667" y="955.3033333333333"/>
      <point x="521.8199999999999" y="936.3766666666667"/>
      <point x="586.55" y="897.9866666666667" type="curve"/>
      <point x="660.57" y="1052.8033333333333" type="line"/>
      <point x="580.0866666666667" y="1101.9966666666667"/>
      <point x="493.7466666666667" y="1125.46"/>
      <point x="401.30999999999995" y="1125.46" type="curve" smooth="yes"/>
      <point x="193.80333333333334" y="1125.46"/>
      <point x="65.19666666666666" y="1007.29"/>
      <point x="65.19666666666666" y="826.9033333333333" type="curve" smooth="yes"/>
      <point x="65.19666666666666" y="776.27"/>
      <point x="75.12333333333333" y="727.9300000000001"/>
      <point x="92.82999999999998" y="688.37" type="curve" smooth="yes"/>
      <point x="123.66" y="616.7333333333333"/>
      <point x="173.46333333333334" y="566.03"/>
      <point x="294.78333333333336" y="489.32" type="curve" smooth="yes"/>
      <point x="397.90999999999997" y="423.6333333333333"/>
      <point x="456.15" y="375.09666666666664"/>
      <point x="456.15" y="292.68" type="curve" smooth="yes"/>
      <point x="456.15" y="204.67333333333332"/>
      <point x="406.05" y="148.30333333333334"/>
      <point x="311.07" y="148.30333333333334" type="curve" smooth="yes"/>
      <point x="233.46" y="148.30333333333334"/>
      <point x="129.33999999999997" y="184.15666666666667"/>
      <point x="65.19666666666666" y="234.01" type="curve"/>
      <point x="65.19666666666666" y="44.24333333333333" type="line"/>
      <point x="123.34" y="6.293333333333333"/>
      <point x="210.14333333333332" y="-20.0"/>
    </contour>
  </outline>
</glyph>
<glyph name="t" format="2">
  <advance width="591.3095238095239"/>
  <unicode hex="0074"/>
  <anchor x="345.35" y="0.0" name="bottom"/>
  <anchor x="295.89" y="552.2666666666668" name="center"/>
  <anchor x="295.89" y="1104.4600000000003" name="top"/>
  <anchor x="749.1619047619048" y="1567.252380952381" name="topright"/>
  <outline>
    <contour>
      <point x="386.84" y="-20.0" type="curve" smooth="yes"/>
      <point x="459.25" y="-20.0"/>
      <point x="515.3199999999999" y="-7.44"/>
      <point x="553.5866666666666" y="16.68" type="curve"/>
      <point x="553.5866666666666" y="181.47" type="line"/>
      <point x="517.15" y="166.05666666666664"/>
      <point x="481.41999999999996" y="158.34999999999997"/>
      <point x="447.3233333333333" y="158.34999999999997" type="curve" smooth="yes"/>
      <point x="380.2966666666667" y="158.34999999999997"/>
      <point x="351.37" y="197.64333333333332"/>
      <point x="351.37" y="296.92" type="curve" smooth="yes"/>
      <point x="351.37" y="936.1333333333333" type="line"/>
      <point x="542.83" y="936.1333333333333" type="line"/>
      <point x="542.83" y="1104.4600000000003" type="line"/>
      <point x="351.37" y="1104.4600000000003" type="line"/>
      <point x="351.37" y="1350.4133333333334" type="line"/>
      <point x="216.33333333333334" y="1350.4133333333334" type="line"/>
      <point x="160.77666666666667" y="1106.7766666666669" type="line"/>
      <point x="36.05" y="1033.8333333333335" type="line"/>
      <point x="36.05" y="936.1333333333333" type="line"/>
      <point x="141.0" y="936.1333333333333" type="line"/>
      <point x="141.0" y="294.0133333333333" type="line" smooth="yes"/>
      <point x="141.0" y="84.85"/>
      <point x="220.63" y="-20.0"/>
    </contour>
  </outline>
</glyph>
<glyph name="u" format="2">
  <advance width="981.2"/>
  <unicode hex="0075"/>
  <anchor x="472.06666666666666" y="0.0" name="bottom"/>
  <anchor x="909.2571428571429" y="10.0" name="ogonek"/>
  <anchor x="472.06666666666666" y="1104.1952380952382" name="top"/>
  <anchor x="925.4571428571428" y="1104.1952380952382" name="topright"/>
  <outline>
    <contour>
      <point x="398.29523809523806" y="-20.0" type="curve" smooth="yes"/>
      <point x="516.4761904761905" y="-20.0"/>
      <point x="605.8" y="44.971428571428575"/>
      <point x="652.8000000000001" y="146.04285714285714" type="curve"/>
      <point x="665.4333333333333" y="146.04285714285714" type="line"/>
      <point x="690.6714285714286" y="0.0" type="line"/>
      <point x="858.0428571428571" y="0.0" type="line"/>
      <point x="858.0428571428571" y="1104.1952380952382" type="line"/>
      <point x="649.5333333333333" y="1104.1952380952382" type="line"/>
      <point x="649.5333333333333" y="549.2333333333333" type="line" smooth="yes"/>
      <point x="649.5333333333333" y="405.7952380952381"/>
      <point x="633.1666666666667" y="304.07619047619045"/>
      <point x="600.7428571428571" y="244.01904761904763" type="curve" smooth="yes"/>
      <point x="569.6857142857143" y="184.35714285714283"/>
      <point x="519.6428571428571" y="158.01904761904763"/>
      <point x="458.5285714285714" y="158.01904761904763" type="curve" smooth="yes"/>
      <point x="365.42857142857144" y="158.01904761904763"/>
      <point x="324.6952380952381" y="245.4"/>
      <point x="324.6952380952381" y="425.9809523809524" type="curve" smooth="yes"/>
      <point x="324.6952380952381" y="1104.1952380952382" type="line"/>
      <point x="115.1857142857143" y="1104.1952380952382" type="line"/>
      <point x="115.1857142857143" y="383.61904761904765" type="line" smooth="yes"/>
      <point x="115.1857142857143" y="107.25238095238095"/>
      <point x="211.38095238095238" y="-20.0"/>
    </contour>
  </outline>
</glyph>
<glyph name="x" format="2">
  <advance width="816.9857142857143"/>
  <unicode hex="0078"/>
  <anchor x="408.89000000000004" y="0.0" name="bottom"/>
  <anchor x="663.2095238095237" y="0.0" name="cyrillicbighook"/>
  <anchor x="408.89000000000004" y="1104.4600000000003" name="top"/>
  <outline>
    <contour>
      <point x="21.1" y="0.0" type="line"/>
      <point x="237.25" y="0.0" type="line"/>
      <point x="404.2566666666667" y="394.40333333333336" type="line"/>
      <point x="577.6033333333334" y="0.0" type="line"/>
      <point x="795.29" y="0.0" type="line"/>
      <point x="516.27" y="563.0466666666666" type="line"/>
      <point x="783.29" y="1104.4600000000003" type="line"/>
      <point x="568.4566666666667" y="1104.4600000000003" type="line"/>
      <point x="413.67" y="730.7166666666667" type="line"/>
      <point x="253.90999999999997" y="1104.4600000000003" type="line"/>
      <point x="36.00333333333333" y="1104.4600000000003" type="line"/>
      <point x="300.87666666666667" y="567.17" type="line"/>
    </contour>
  </outline>
</glyph>
<glyph name="y" format="2">
  <advance width="825.0952380952381"/>
  <unicode hex="0079"/>
  <anchor x="645.3066666666667" y="0.0" name="bottom"/>
  <anchor x="413.18" y="1104.4600000000003" name="top"/>
  <outline>
    <contour>
      <point x="148.6966666666667" y="-492.0" type="curve" smooth="yes"/>
      <point x="336.1733333333333" y="-492.0"/>
      <point x="438.07" y="-374.09999999999997"/>
      <point x="504.38333333333327" y="-122.52666666666667" type="curve" smooth="yes"/>
      <point x="821.3833333333333" y="1104.4600000000003" type="line"/>
      <point x="603.99" y="1104.4600000000003" type="line"/>
      <point x="461.1333333333333" y="424.82666666666665" type="line" smooth="yes"/>
      <point x="446.08333333333337" y="356.77333333333337"/>
      <point x="435.71666666666664" y="285.55333333333334"/>
      <point x="426.2033333333333" y="210.84" type="curve"/>
      <point x="419.5933333333333" y="210.84" type="line"/>
      <point x="407.69" y="305.9866666666667"/>
      <point x="388.3966666666667" y="410.5"/>
      <point x="376.56666666666666" y="458.9666666666667" type="curve" smooth="yes"/>
      <point x="218.12666666666664" y="1104.4600000000003" type="line"/>
      <point x="3.05" y="1104.4600000000003" type="line"/>
      <point x="313.89666666666665" y="-11.436666666666667" type="line"/>
      <point x="301.1633333333333" y="-63.516666666666666"/>
      <point x="295.4066666666667" y="-84.54333333333334"/>
      <point x="285.3566666666667" y="-121.13333333333333" type="curve" smooth="yes"/>
      <point x="248.6" y="-245.96666666666667"/>
      <point x="207.11333333333332" y="-310.7966666666667"/>
      <point x="112.45666666666665" y="-310.7966666666667" type="curve" smooth="yes"/>
      <point x="89.53" y="-310.7966666666667"/>
      <point x="56.04333333333334" y="-306.72333333333336"/>
      <point x="27.65333333333333" y="-298.65" type="curve"/>
      <point x="27.65333333333333" y="-475.0" type="line"/>
      <point x="65.67666666666666" y="-486.0"/>
      <point x="107.11333333333332" y="-492.0"/>
    </contour>
  </outline>
</glyph>
<glyph name="z" format="2">
  <advance width="666.7619047619048"/>
  <unicode hex="007A"/>
  <anchor x="334.0133333333333" y="0.0" name="bottom"/>
  <anchor x="334.0133333333333" y="1104.4600000000003" name="top"/>
  <outline>
    <contour>
      <point x="623.7333333333333" y="170.64333333333332" type="line"/>
      <point x="281.8566666666667" y="170.64333333333332" type="line"/>
      <point x="609.1966666666667" y="953.7900000000001" type="line"/>
      <point x="609.1966666666667" y="1104.4600000000003" type="line"/>
      <point x="68.41666666666667" y="1104.4600000000003" type="line"/>
      <point x="68.41666666666667" y="933.8166666666666" type="line"/>
      <point x="382.24333333333334" y="933.8166666666666" type="line"/>
      <point x="46.95333333333333" y="138.54999999999998" type="line"/>
      <point x="46.95333333333333" y="0.0" type="line"/>
      <point x="623.7333333333333" y="0.0" type="line"/>
    </contour>
  </outline>
</glyph>
<glyph name="bar" format="2">
  <advance width="963.9571428571428"/>
  <unicode hex="007C"/>
  <note>
bar
</note>
  <outline>
    <contour>
      <point x="397.6766666666667" y="-478.09999999999997" type="line"/>
      <point x="566.81" y="-478.09999999999997" type="line"/>
      <point x="566.81" y="1552.7566666666667" type="line"/>
      <point x="397.6766666666667" y="1552.7566666666667" type="line"/>
    </contour>
  </outline>
</glyph>
<glyph name="asciitilde" format="2">
  <advance width="884.5285714285715"/>
  <unicode hex="007E"/>
  <note>
asciitilde
</note>
  <outline>
    <contour>
      <point x="68.73" y="577.2266666666667" type="line"/>
      <point x="135.92333333333335" y="655.0066666666667"/>
      <point x="198.12" y="693.13"/>
      <point x="259.6066666666667" y="693.13" type="curve" smooth="yes"/>
      <point x="309.5566666666667" y="693.13"/>
      <point x="344.1166666666667" y="678.4233333333334"/>
      <point x="417.5566666666667" y="640.4466666666667" type="curve" smooth="yes"/>
      <point x="504.92333333333335" y="595.47"/>
      <point x="552.53" y="581.4466666666667"/>
      <point x="618.92" y="581.4466666666667" type="curve" smooth="yes"/>
      <point x="699.65" y="581.4466666666667"/>
      <point x="766.1366666666667" y="618.3"/>
      <point x="815.1366666666667" y="683.5933333333334" type="curve"/>
      <point x="815.1366666666667" y="850.1666666666666" type="line"/>
      <point x="757.7966666666666" y="780.7766666666666"/>
      <point x="690.87" y="736.4833333333333"/>
      <point x="635.6" y="736.4833333333333" type="curve" smooth="yes"/>
      <point x="575.1633333333334" y="736.4833333333333"/>
      <point x="553.6966666666667" y="745.0699999999999"/>
      <point x="465.53" y="788.0933333333334" type="curve" smooth="yes"/>
      <point x="355.55666666666673" y="841.5566666666667"/>
      <point x="324.7266666666667" y="848.0199999999999"/>
      <point x="272.72666666666663" y="848.0199999999999" type="curve" smooth="yes"/>
      <point x="191.85" y="848.0199999999999"/>
      <point x="129.85" y="816.7266666666667"/>
      <point x="68.73" y="744.3366666666667" type="curve"/>
    </contour>
  </outline>
</glyph>
<glyph name="exclamdown" format="2">
  <advance width="519.8380952380952"/>
  <unicode hex="00A1"/>
  <note>
exclamdown
</note>
  <outline>
    <contour>
      <point x="129.10333333333332" y="-376.17333333333335" type="line"/>
      <point x="385.22666666666663" y="-376.17333333333335" type="line"/>
      <point x="340.03333333333336" y="649.8633333333333" type="line"/>
      <point x="175.2233333333333" y="649.8633333333333" type="line"/>
    </contour>
    <contour>
      <point x="257.89666666666665" y="819.3266666666666" type="curve" smooth="yes"/>
      <point x="343.9866666666667" y="819.3266666666666"/>
      <point x="395.2033333333334" y="866.7866666666666"/>
      <point x="395.2033333333334" y="963.3933333333333" type="curve" smooth="yes"/>
      <point x="395.2033333333334" y="1057.0"/>
      <point x="343.9866666666667" y="1107.85"/>
      <point x="257.89666666666665" y="1107.85" type="curve" smooth="yes"/>
      <point x="173.0" y="1107.85"/>
      <point x="123.37" y="1056.1699999999998"/>
      <point x="123.37" y="963.3933333333333" type="curve" smooth="yes"/>
      <point x="123.37" y="869.2266666666667"/>
      <point x="171.14666666666665" y="819.3266666666666"/>
    </contour>
  </outline>
</glyph>
<glyph name="sterling" format="2">
  <advance width="904.3857142857142"/>
  <unicode hex="00A3"/>
  <note>
sterling
</note>
  <outline>
    <contour>
      <point x="81.4095238095238" y="0.0" type="line"/>
      <point x="847.5380952380953" y="0.0" type="line"/>
      <point x="847.5380952380953" y="191.96190476190475" type="line"/>
      <point x="317.59523809523813" y="191.96190476190475" type="line"/>
      <point x="406.53809523809525" y="255.9190476190476"/>
      <point x="445.21428571428567" y="347.9761904761905"/>
      <point x="445.21428571428567" y="476.4142857142857" type="curve" smooth="yes"/>
      <point x="445.21428571428567" y="661.4809523809523" type="line"/>
      <point x="689.2571428571429" y="661.4809523809523" type="line"/>
      <point x="689.2571428571429" y="824.9238095238095" type="line"/>
      <point x="445.21428571428567" y="824.9238095238095" type="line"/>
      <point x="445.21428571428567" y="1084.9190476190477" type="line" smooth="yes"/>
      <point x="445.21428571428567" y="1230.895238095238"/>
      <point x="486.5952380952381" y="1300.3333333333333"/>
      <point x="577.4714285714285" y="1300.3333333333333" type="curve" smooth="yes"/>
      <point x="639.8238095238096" y="1300.3333333333333"/>
      <point x="695.7523809523809" y="1282.6714285714286"/>
      <point x="760.1333333333334" y="1240.2333333333333" type="curve"/>
      <point x="834.3285714285714" y="1406.252380952381" type="line"/>
      <point x="756.0761904761905" y="1457.9714285714285"/>
      <point x="667.1476190476191" y="1483.0"/>
      <point x="567.5571428571428" y="1483.0" type="curve" smooth="yes"/>
      <point x="348.8" y="1483.0"/>
      <point x="234.6904761904762" y="1346.8047619047618"/>
      <point x="234.6904761904762" y="1088.904761904762" type="curve" smooth="yes"/>
      <point x="234.6904761904762" y="824.9238095238095" type="line"/>
      <point x="79.33809523809524" y="824.9238095238095" type="line"/>
      <point x="79.33809523809524" y="661.4809523809523" type="line"/>
      <point x="234.6904761904762" y="661.4809523809523" type="line"/>
      <point x="234.6904761904762" y="459.852380952381" type="line" smooth="yes"/>
      <point x="234.6904761904762" y="408.82380952380953"/>
      <point x="229.0142857142857" y="365.4428571428571"/>
      <point x="217.01428571428573" y="327.73809523809524" type="curve" smooth="yes"/>
      <point x="195.0" y="261.96190476190475"/>
      <point x="152.32380952380953" y="214.22857142857143"/>
      <point x="81.4095238095238" y="179.29999999999998" type="curve"/>
    </contour>
  </outline>
</glyph>
<glyph name="currency" format="2">
  <advance width="1119.7761904761905"/>
  <unicode hex="00A4"/>
  <note>
currency
</note>
  <outline>
    <contour>
      <point x="905.52" y="267.1" type="line"/>
      <point x="1014.9499999999999" y="375.53000000000003" type="line"/>
      <point x="885.9" y="504.65333333333325" type="line"/>
      <point x="930.0733333333333" y="568.3133333333333"/>
      <point x="952.1966666666666" y="641.5833333333334"/>
      <point x="952.1966666666666" y="723.4633333333334" type="curve" smooth="yes"/>
      <point x="952.1966666666666" y="802.5633333333334"/>
      <point x="930.0733333333333" y="875.8333333333334"/>
      <point x="885.9" y="941.3466666666668" type="curve"/>
      <point x="1017.2666666666667" y="1072.1766666666667" type="line"/>
      <point x="904.9100000000001" y="1179.68" type="line"/>
      <point x="774.08" y="1048.85" type="line"/>
      <point x="709.1033333333334" y="1093.9499999999998"/>
      <point x="637.2966666666666" y="1116.0"/>
      <point x="559.5866666666666" y="1116.0" type="curve" smooth="yes"/>
      <point x="479.95" y="1116.0"/>
      <point x="407.1433333333333" y="1093.8766666666666"/>
      <point x="341.5566666666667" y="1049.1666666666665" type="curve"/>
      <point x="211.65333333333336" y="1179.68" type="line"/>
      <point x="101.83333333333333" y="1069.3966666666668" type="line"/>
      <point x="232.6633333333333" y="939.3466666666667" type="line"/>
      <point x="188.17333333333332" y="870.98"/>
      <point x="166.12333333333333" y="798.2466666666667"/>
      <point x="166.12333333333333" y="723.4633333333334" type="curve" smooth="yes"/>
      <point x="166.12333333333333" y="643.51"/>
      <point x="188.17333333333332" y="571.1666666666666"/>
      <point x="232.6633333333333" y="506.0433333333333" type="curve"/>
      <point x="103.83333333333333" y="378.60333333333335" type="line"/>
      <point x="212.7266666666667" y="269.1" type="line"/>
      <point x="340.1666666666667" y="396.22333333333336" type="line"/>
      <point x="400.97333333333336" y="352.9766666666667"/>
      <point x="473.39" y="331.39"/>
      <point x="560.05" y="331.39" type="curve" smooth="yes"/>
      <point x="636.8333333333333" y="331.39"/>
      <point x="708.6400000000001" y="352.97666666666663"/>
      <point x="774.08" y="395.15" type="curve"/>
    </contour>
    <contour>
      <point x="559.1233333333333" y="484.45000000000005" type="curve" smooth="yes"/>
      <point x="425.6766666666666" y="484.45000000000005"/>
      <point x="320.5733333333334" y="590.09"/>
      <point x="320.5733333333334" y="722.5366666666666" type="curve" smooth="yes"/>
      <point x="320.5733333333334" y="856.7633333333333"/>
      <point x="426.75" y="963.55"/>
      <point x="559.1233333333333" y="963.55" type="curve" smooth="yes"/>
      <point x="692.2033333333334" y="963.55"/>
      <point x="800.6733333333333" y="857.9833333333333"/>
      <point x="800.6733333333333" y="722.5366666666666" type="curve" smooth="yes"/>
      <point x="800.6733333333333" y="591.5533333333334"/>
      <point x="693.4966666666667" y="484.45000000000005"/>
    </contour>
  </outline>
</glyph>
<glyph name="ordfeminine" format="2">
  <advance width="646.8380952380952"/>
  <unicode hex="00AA"/>
  <note>
ordfeminine
</note>
  <outline>
    <contour>
      <point x="236.77666666666667" y="773.9566666666667" type="curve" smooth="yes"/>
      <point x="315.60333333333335" y="773.9566666666667"/>
      <point x="377.3833333333333" y="812.5166666666667"/>
      <point x="421.45666666666665" y="883.3933333333333" type="curve"/>
      <point x="424.8233333333333" y="883.3933333333333" type="line"/>
      <point x="447.7" y="785.9566666666667" type="line"/>
      <point x="544.5466666666667" y="785.9566666666667" type="line"/>
      <point x="544.5466666666667" y="1235.3966666666668" type="line" smooth="yes"/>
      <point x="544.5466666666667" y="1393.6133333333335"/>
      <point x="476.0133333333333" y="1479.0"/>
      <point x="328.1633333333333" y="1479.0" type="curve" smooth="yes"/>
      <point x="253.26333333333332" y="1479.0"/>
      <point x="176.87666666666667" y="1456.5866666666668"/>
      <point x="102.02666666666666" y="1412.2233333333334" type="curve"/>
      <point x="149.0233333333333" y="1306.5233333333333" type="line"/>
      <point x="206.67999999999998" y="1340.8633333333332"/>
      <point x="257.7033333333333" y="1357.57"/>
      <point x="302.4833333333333" y="1357.57" type="curve" smooth="yes"/>
      <point x="373.3133333333333" y="1357.57"/>
      <point x="405.5566666666667" y="1317.0333333333333"/>
      <point x="405.5566666666667" y="1231.5433333333333" type="curve" smooth="yes"/>
      <point x="405.5566666666667" y="1202.1699999999998" type="line"/>
      <point x="320.0433333333333" y="1196.4866666666665" type="line" smooth="yes"/>
      <point x="133.17000000000002" y="1185.2666666666667"/>
      <point x="57.0" y="1116.0966666666668"/>
      <point x="57.0" y="978.8800000000001" type="curve" smooth="yes"/>
      <point x="57.0" y="842.64"/>
      <point x="131.58333333333334" y="773.9566666666667"/>
    </contour>
    <contour>
      <point x="276.99333333333334" y="891.6066666666667" type="curve" smooth="yes"/>
      <point x="224.57666666666665" y="891.6066666666667"/>
      <point x="199.98999999999998" y="920.2666666666667"/>
      <point x="199.98999999999998" y="980.05" type="curve" smooth="yes"/>
      <point x="199.98999999999998" y="1057.4433333333334"/>
      <point x="240.18666666666667" y="1088.98"/>
      <point x="336.6066666666667" y="1099.273333333333" type="curve" smooth="yes"/>
      <point x="405.5566666666667" y="1106.2733333333333" type="line"/>
      <point x="405.5566666666667" y="1057.88" type="line" smooth="yes"/>
      <point x="405.5566666666667" y="952.8766666666667"/>
      <point x="354.40999999999997" y="891.6066666666667"/>
    </contour>
  </outline>
</glyph>
<glyph name="logicalnot" format="2">
  <advance width="884.5285714285715"/>
  <unicode hex="00AC"/>
  <note>
logicalnot
</note>
  <outline>
    <contour>
      <point x="629.6633333333333" y="250.0" type="line"/>
      <point x="786.26" y="250.0" type="line"/>
      <point x="786.26" y="804.7733333333333" type="line"/>
      <point x="90.04333333333334" y="804.7733333333333" type="line"/>
      <point x="90.04333333333334" y="639.3733333333333" type="line"/>
      <point x="629.6633333333333" y="639.3733333333333" type="line"/>
    </contour>
  </outline>
</glyph>
<glyph name="degree" format="2">
  <advance width="846.552380952381"/>
  <unicode hex="00B0"/>
  <note>
degree
</note>
  <outline>
    <contour>
      <point x="423.17333333333335" y="832.1800000000001" type="curve" smooth="yes"/>
      <point x="605.0733333333334" y="832.1800000000001"/>
      <point x="749.9733333333334" y="972.7866666666667"/>
      <point x="749.9733333333334" y="1156.6633333333334" type="curve" smooth="yes"/>
      <point x="749.9733333333334" y="1340.0766666666666"/>
      <point x="602.2933333333333" y="1483.0"/>
      <point x="423.17333333333335" y="1483.0" type="curve" smooth="yes"/>
      <point x="241.2733333333333" y="1483.0"/>
      <point x="97.3" y="1338.6866666666667"/>
      <point x="97.3" y="1156.6633333333334" type="curve" smooth="yes"/>
      <point x="97.3" y="972.25"/>
      <point x="238.12666666666667" y="832.1800000000001"/>
    </contour>
    <contour>
      <point x="423.17333333333335" y="976.2666666666667" type="curve" smooth="yes"/>
      <point x="326.17" y="976.2666666666667"/>
      <point x="244.29000000000002" y="1056.9766666666667"/>
      <point x="244.29000000000002" y="1156.6633333333334" type="curve" smooth="yes"/>
      <point x="244.29000000000002" y="1255.74"/>
      <point x="324.0233333333333" y="1338.45"/>
      <point x="423.17333333333335" y="1338.45" type="curve" smooth="yes"/>
      <point x="522.25" y="1338.45"/>
      <point x="601.5933333333334" y="1258.3500000000001"/>
      <point x="601.5933333333334" y="1156.6633333333334" type="curve" smooth="yes"/>
      <point x="601.5933333333334" y="1055.83"/>
      <point x="520.1033333333334" y="976.2666666666667"/>
    </contour>
  </outline>
</glyph>
<glyph name="plusminus" format="2">
  <advance width="884.5285714285715"/>
  <unicode hex="00B1"/>
  <note>
plusminus
</note>
  <outline>
    <contour>
      <point x="362.97666666666663" y="289.84666666666664" type="line"/>
      <point x="521.4266666666667" y="289.84666666666664" type="line"/>
      <point x="521.4266666666667" y="664.8566666666667" type="line"/>
      <point x="793.8233333333334" y="664.8566666666667" type="line"/>
      <point x="793.8233333333334" y="819.1366666666667" type="line"/>
      <point x="521.4266666666667" y="819.1366666666667" type="line"/>
      <point x="521.4266666666667" y="1198.0" type="line"/>
      <point x="362.97666666666663" y="1198.0" type="line"/>
      <point x="362.97666666666663" y="819.1366666666667" type="line"/>
      <point x="90.04333333333334" y="819.1366666666667" type="line"/>
      <point x="90.04333333333334" y="664.8566666666667" type="line"/>
      <point x="362.97666666666663" y="664.8566666666667" type="line"/>
    </contour>
    <contour>
      <point x="90.04333333333334" y="0.0" type="line"/>
      <point x="793.8233333333334" y="0.0" type="line"/>
      <point x="793.8233333333334" y="164.47333333333336" type="line"/>
      <point x="90.04333333333334" y="164.47333333333336" type="line"/>
    </contour>
  </outline>
</glyph>
<glyph name="twosuperior" format="2">
  <advance width="662.9809523809524"/>
  <unicode hex="00B2"/>
  <note>
twosuperior
</note>
  <outline>
    <contour>
      <point x="52.24333333333333" y="586.0" type="line"/>
      <point x="588.11" y="586.0" type="line"/>
      <point x="588.11" y="737.5000000000001" type="line"/>
      <point x="247.3" y="736.5733333333334" type="line"/>
      <point x="286.0333333333333" y="780.2833333333334"/>
      <point x="324.84000000000003" y="823.4566666666666"/>
      <point x="363.5733333333333" y="867.1666666666666" type="curve" smooth="yes"/>
      <point x="457.7433333333333" y="969.29"/>
      <point x="515.2800000000001" y="1046.12"/>
      <point x="538.89" y="1102.2899999999997" type="curve" smooth="yes"/>
      <point x="557.8666666666667" y="1144.9499999999998"/>
      <point x="566.6966666666667" y="1191.1466666666668"/>
      <point x="566.6966666666667" y="1237.5633333333333" type="curve" smooth="yes"/>
      <point x="566.6966666666667" y="1390.7566666666667"/>
      <point x="473.21" y="1483.0"/>
      <point x="315.55333333333334" y="1483.0" type="curve" smooth="yes"/>
      <point x="215.7266666666667" y="1483.0"/>
      <point x="127.43666666666667" y="1442.8300000000002"/>
      <point x="49.61" y="1362.5633333333333" type="curve"/>
      <point x="136.57999999999998" y="1250.1333333333334" type="line"/>
      <point x="192.67666666666668" y="1307.45"/>
      <point x="247.14" y="1336.3033333333333"/>
      <point x="299.6533333333333" y="1336.3033333333333" type="curve" smooth="yes"/>
      <point x="364.56" y="1336.3033333333333"/>
      <point x="404.58666666666664" y="1295.91"/>
      <point x="404.58666666666664" y="1228.2966666666669" type="curve" smooth="yes"/>
      <point x="404.58666666666664" y="1192.2466666666667"/>
      <point x="397.27" y="1156.71"/>
      <point x="381.71" y="1127.2466666666667" type="curve" smooth="yes"/>
      <point x="361.17333333333335" y="1082.5366666666666"/>
      <point x="313.46666666666664" y="1022.6333333333332"/>
      <point x="243.67999999999998" y="938.4300000000001" type="curve" smooth="yes"/>
      <point x="52.24333333333333" y="716.3566666666667" type="line"/>
    </contour>
  </outline>
</glyph>
<glyph name="ordmasculine" format="2">
  <advance width="663.0095238095238"/>
  <unicode hex="00BA"/>
  <note>
ordmasculine
</note>
  <outline>
    <contour>
      <point x="599.5033333333333" y="1127.7100000000003" type="curve" smooth="yes"/>
      <point x="599.5033333333333" y="1351.0766666666668"/>
      <point x="497.21333333333337" y="1479.0"/>
      <point x="332.77666666666664" y="1479.0" type="curve" smooth="yes"/>
      <point x="164.56" y="1479.0"/>
      <point x="63.97666666666667" y="1349.976666666667"/>
      <point x="63.97666666666667" y="1127.7100000000003" type="curve" smooth="yes"/>
      <point x="63.97666666666667" y="907.71"/>
      <point x="163.58333333333334" y="773.9566666666667"/>
      <point x="331.85" y="773.9566666666667" type="curve" smooth="yes"/>
      <point x="499.8233333333333" y="773.9566666666667"/>
      <point x="599.5033333333333" y="902.15"/>
    </contour>
    <contour>
      <point x="208.64999999999998" y="1127.7100000000003" type="curve" smooth="yes"/>
      <point x="208.64999999999998" y="1282.91"/>
      <point x="250.82333333333332" y="1352.18"/>
      <point x="332.1666666666667" y="1352.18" type="curve" smooth="yes"/>
      <point x="418.17" y="1352.18"/>
      <point x="454.83" y="1283.52"/>
      <point x="454.83" y="1127.7100000000003" type="curve" smooth="yes"/>
      <point x="454.83" y="971.9"/>
      <point x="419.39000000000004" y="900.3133333333334"/>
      <point x="332.1666666666667" y="900.3133333333334" type="curve" smooth="yes"/>
      <point x="247.23666666666668" y="900.3133333333334"/>
      <point x="208.64999999999998" y="971.9000000000001"/>
    </contour>
  </outline>
</glyph>
<glyph name="questiondown" format="2">
  <advance width="713.0285714285714"/>
  <unicode hex="00BF"/>
  <note>
questiondown
</note>
  <outline>
    <contour>
      <point x="503.5685714285715" y="646.6790476190477" type="line"/>
      <point x="323.00190476190477" y="646.6790476190477" type="line"/>
      <point x="323.00190476190477" y="593.5357142857143" type="line" smooth="yes"/>
      <point x="323.00190476190477" y="550.1190476190476"/>
      <point x="319.39190476190475" y="514.8490476190477"/>
      <point x="305.1485714285714" y="477.9457142857143" type="curve" smooth="yes"/>
      <point x="289.6119047619048" y="434.0890476190476"/>
      <point x="262.4652380952381" y="392.59904761904767"/>
      <point x="217.85523809523806" y="337.9623809523809" type="curve" smooth="yes"/>
      <point x="146.6852380952381" y="252.1790476190476"/>
      <point x="104.75857142857146" y="188.73904761904757"/>
      <point x="80.83190476190474" y="127.44571428571427" type="curve" smooth="yes"/>
      <point x="56.58857142857141" y="65.1290476190476"/>
      <point x="51.441904761904794" y="3.9627380952381746"/>
      <point x="51.441904761904794" y="-74.89428571428574" type="curve" smooth="yes"/>
      <point x="51.441904761904794" y="-271.067619047619"/>
      <point x="174.3885714285714" y="-400.747619047619"/>
      <point x="377.04190476190473" y="-400.747619047619" type="curve" smooth="yes"/>
      <point x="491.15857142857146" y="-400.747619047619"/>
      <point x="592.5685714285714" y="-368.33428571428567"/>
      <point x="684.9785714285714" y="-304.9709523809523" type="curve"/>
      <point x="606.4719047619047" y="-146.96095238095242" type="line"/>
      <point x="535.255238095238" y="-193.22761904761907"/>
      <point x="471.5752380952381" y="-218.0809523809524"/>
      <point x="392.79523809523806" y="-218.0809523809524" type="curve" smooth="yes"/>
      <point x="307.2552380952381" y="-218.0809523809524"/>
      <point x="255.69190476190477" y="-149.7609523809524"/>
      <point x="255.69190476190477" y="-48.50761904761911" type="curve" smooth="yes"/>
      <point x="255.69190476190477" y="45.05571428571426"/>
      <point x="265.8152380952381" y="103.98571428571428"/>
      <point x="355.9352380952381" y="215.20904761904762" type="curve" smooth="yes"/>
      <point x="369.8619047619048" y="233.03904761904758"/>
      <point x="384.3985714285715" y="251.40571428571425"/>
      <point x="398.54523809523806" y="270.8457142857143" type="curve" smooth="yes"/>
      <point x="481.56857142857143" y="377.11571428571426"/>
      <point x="503.5685714285715" y="468.23571428571427"/>
      <point x="503.5685714285715" y="582.7057142857142" type="curve" smooth="yes"/>
    </contour>
    <contour>
      <point x="410.0652380952381" y="1105.6657142857143" type="curve" smooth="yes"/>
      <point x="325.3652380952381" y="1105.6657142857143"/>
      <point x="274.6119047619047" y="1053.4257142857143"/>
      <point x="274.6119047619047" y="961.6723809523809" type="curve" smooth="yes"/>
      <point x="274.6119047619047" y="866.4557142857143"/>
      <point x="323.51190476190476" y="816.6790476190477"/>
      <point x="410.0652380952381" y="816.6790476190477" type="curve" smooth="yes"/>
      <point x="499.9852380952381" y="816.6790476190477"/>
      <point x="545.9085714285715" y="867.9690476190476"/>
      <point x="545.9085714285715" y="961.6723809523809" type="curve" smooth="yes"/>
      <point x="545.9085714285715" y="1054.4490476190476"/>
      <point x="498.1319047619047" y="1105.6657142857143"/>
    </contour>
  </outline>
</glyph>
<glyph name="AE" format="2">
  <advance width="1333.0380952380954"/>
  <unicode hex="00C6"/>
  <note>
AE
</note>
  <anchor x="666.8866666666665" y="0.0" name="bottom"/>
  <anchor x="837.08" y="1462.0" name="top"/>
  <outline>
    <contour>
      <point x="1243.1133333333335" y="189.44666666666666" type="line"/>
      <point x="843.5466666666666" y="189.44666666666666" type="line"/>
      <point x="843.5466666666666" y="668.4966666666667" type="line"/>
      <point x="1215.7966666666666" y="668.4966666666667" type="line"/>
      <point x="1215.7966666666666" y="856.5533333333333" type="line"/>
      <point x="843.5466666666666" y="856.5533333333333" type="line"/>
      <point x="843.5466666666666" y="1273.7966666666669" type="line"/>
      <point x="1243.1133333333335" y="1273.7966666666669" type="line"/>
      <point x="1243.1133333333335" y="1462.0" type="line"/>
      <point x="459.4833333333333" y="1462.0" type="line"/>
      <point x="0.0" y="0.0" type="line"/>
      <point x="215.19999999999996" y="0.0" type="line"/>
      <point x="341.7166666666667" y="423.8966666666667" type="line"/>
      <point x="629.64" y="423.8966666666667" type="line"/>
      <point x="629.64" y="0.0" type="line"/>
      <point x="1243.1133333333335" y="0.0" type="line"/>
    </contour>
    <contour>
      <point x="629.64" y="1273.6499999999999" type="line"/>
      <point x="629.64" y="616.0266666666666" type="line"/>
      <point x="400.68666666666667" y="616.0266666666666" type="line"/>
      <point x="594.2266666666666" y="1273.6499999999999" type="line"/>
    </contour>
  </outline>
</glyph>
<glyph name="Eth" format="2">
  <advance width="1092.9619047619046"/>
  <unicode hex="00D0"/>
  <note>
Eth
</note>
  <outline>
    <contour>
      <point x="140.14285714285714" y="0.0" type="line"/>
      <point x="465.0095238095238" y="0.0" type="line" smooth="yes"/>
      <point x="814.7238095238096" y="0.0"/>
      <point x="1000.8333333333333" y="257.26666666666665"/>
      <point x="1000.8333333333333" y="745.0" type="curve" smooth="yes"/>
      <point x="1000.8333333333333" y="1202.7476190476189"/>
      <point x="815.695238095238" y="1462.0"/>
      <point x="489.54285714285714" y="1462.0" type="curve" smooth="yes"/>
      <point x="140.14285714285714" y="1462.0" type="line"/>
      <point x="140.14285714285714" y="824.7571428571428" type="line"/>
      <point x="20.623809523809527" y="824.7571428571428" type="line"/>
      <point x="20.623809523809527" y="636.4571428571428" type="line"/>
      <point x="140.14285714285714" y="636.4571428571428" type="line"/>
    </contour>
    <contour>
      <point x="353.31428571428575" y="187.96190476190475" type="line"/>
      <point x="353.31428571428575" y="636.4571428571428" type="line"/>
      <point x="550.5142857142857" y="636.4571428571428" type="line"/>
      <point x="550.5142857142857" y="824.7571428571428" type="line"/>
      <point x="353.31428571428575" y="824.7571428571428" type="line"/>
      <point x="353.31428571428575" y="1276.0238095238094" type="line"/>
      <point x="480.9095238095238" y="1276.0238095238094" type="line" smooth="yes"/>
      <point x="680.1809523809524" y="1276.0238095238094"/>
      <point x="781.3380952380952" y="1093.4142857142856"/>
      <point x="781.3380952380952" y="737.6761904761905" type="curve" smooth="yes"/>
      <point x="781.3380952380952" y="374.247619047619"/>
      <point x="681.5619047619048" y="187.96190476190475"/>
      <point x="464.3047619047619" y="187.96190476190475" type="curve" smooth="yes"/>
    </contour>
  </outline>
</glyph>
<glyph name="multiply" format="2">
  <advance width="884.5285714285715"/>
  <unicode hex="00D7"/>
  <note>
multiply
</note>
  <outline>
    <contour>
      <point x="201.7238095238095" y="332.62380952380954" type="line"/>
      <point x="444.4047619047619" y="599.8095238095239" type="line"/>
      <point x="685.4095238095238" y="333.9761904761905" type="line"/>
      <point x="789.7428571428571" y="453.1952380952381" type="line"/>
      <point x="549.0761904761905" y="719.6904761904761" type="line"/>
      <point x="791.7714285714285" y="987.5380952380953" type="line"/>
      <point x="681.4666666666667" y="1111.3904761904762" type="line"/>
      <point x="439.1095238095238" y="843.5428571428571" type="line"/>
      <point x="197.76666666666668" y="1110.0380952380954" type="line"/>
      <point x="92.77142857142857" y="991.4809523809524" type="line"/>
      <point x="334.7761904761905" y="724.9857142857143" type="line"/>
      <point x="92.09523809523809" y="457.15238095238095" type="line"/>
    </contour>
  </outline>
</glyph>
<glyph name="Thorn" format="2">
  <advance width="933.3285714285714"/>
  <unicode hex="00DE"/>
  <note>
Thorn
</note>
  <anchor x="466.7966666666666" y="0.0" name="bottom"/>
  <anchor x="466.7966666666666" y="1462.0" name="top"/>
  <outline>
    <contour>
      <point x="139.14999999999998" y="0.0" type="line"/>
      <point x="352.52000000000004" y="0.0" type="line"/>
      <point x="352.52000000000004" y="308.51666666666665" type="line"/>
      <point x="433.5733333333333" y="308.51666666666665" type="line" smooth="yes"/>
      <point x="722.18" y="308.51666666666665"/>
      <point x="873.9333333333333" y="472.4166666666667"/>
      <point x="873.9333333333333" y="779.83" type="curve" smooth="yes"/>
      <point x="873.9333333333333" y="1073.73"/>
      <point x="736.74" y="1216.5566666666666"/>
      <point x="451.74" y="1216.5566666666666" type="curve" smooth="yes"/>
      <point x="352.52000000000004" y="1216.5566666666666" type="line"/>
      <point x="352.52000000000004" y="1462.0" type="line"/>
      <point x="139.14999999999998" y="1462.0" type="line"/>
    </contour>
    <contour>
      <point x="352.52000000000004" y="495.18333333333334" type="line"/>
      <point x="352.52000000000004" y="1029.28" type="line"/>
      <point x="434.18333333333334" y="1029.28" type="line" smooth="yes"/>
      <point x="588.0966666666667" y="1029.28"/>
      <point x="658.1" y="947.8633333333333"/>
      <point x="658.1" y="768.7566666666667" type="curve" smooth="yes"/>
      <point x="658.1" y="572.8199999999999"/>
      <point x="584.8533333333334" y="495.18333333333334"/>
      <point x="420.40333333333336" y="495.18333333333334" type="curve" smooth="yes"/>
    </contour>
  </outline>
</glyph>
<glyph name="germandbls" format="2">
  <advance width="1011.6428571428572"/>
  <unicode hex="00DF"/>
  <note>
germandbls
</note>
  <anchor x="506.05666666666673" y="0.0" name="bottom"/>
  <anchor x="506.05666666666673" y="1104.4600000000003" name="top"/>
  <outline>
    <contour>
      <point x="616.9533333333334" y="-20.0" type="curve" smooth="yes"/>
      <point x="833.09" y="-20.0"/>
      <point x="959.11" y="110.58333333333334"/>
      <point x="959.11" y="318.94666666666666" type="curve" smooth="yes"/>
      <point x="959.11" y="375.19000000000005"/>
      <point x="953.4266666666667" y="423.8233333333334"/>
      <point x="937.5" y="468.9933333333333" type="curve" smooth="yes"/>
      <point x="917.2566666666668" y="525.65"/>
      <point x="880.9166666666666" y="575.99"/>
      <point x="816.58" y="622.3066666666667" type="curve" smooth="yes"/>
      <point x="790.4100000000001" y="643.6733333333334"/>
      <point x="761.6533333333333" y="670.09"/>
      <point x="749.7033333333333" y="678.4066666666666" type="curve" smooth="yes"/>
      <point x="673.75" y="752.6566666666666"/>
      <point x="653.0666666666667" y="786.9033333333333"/>
      <point x="653.0666666666667" y="833.2233333333334" type="curve" smooth="yes"/>
      <point x="653.0666666666667" y="887.2266666666667"/>
      <point x="677.0433333333333" y="919.8866666666667"/>
      <point x="745.4566666666667" y="989.9133333333333" type="curve" smooth="yes"/>
      <point x="775.5300000000001" y="1022.7199999999999"/>
      <point x="796.7733333333334" y="1045.94"/>
      <point x="816.2366666666666" y="1083.8933333333334" type="curve" smooth="yes"/>
      <point x="845.5999999999999" y="1129.9166666666667"/>
      <point x="860.5500000000001" y="1180.1333333333334"/>
      <point x="860.5500000000001" y="1264.1766666666667" type="curve" smooth="yes"/>
      <point x="860.5500000000001" y="1453.4166666666667"/>
      <point x="729.0466666666667" y="1567.0"/>
      <point x="501.3033333333333" y="1567.0" type="curve" smooth="yes"/>
      <point x="261.75333333333333" y="1567.0"/>
      <point x="123.68666666666665" y="1424.1966666666667"/>
      <point x="123.68666666666665" y="1168.7866666666666" type="curve" smooth="yes"/>
      <point x="123.68666666666665" y="0.0" type="line"/>
      <point x="332.2033333333334" y="0.0" type="line"/>
      <point x="332.2033333333334" y="1167.2033333333334" type="line" smooth="yes"/>
      <point x="332.2033333333334" y="1313.6466666666668"/>
      <point x="389.1066666666667" y="1390.3566666666666"/>
      <point x="499.0833333333333" y="1390.3566666666666" type="curve" smooth="yes"/>
      <point x="597.3266666666666" y="1390.3566666666666"/>
      <point x="648.7166666666667" y="1333.5266666666669"/>
      <point x="648.7166666666667" y="1233.9133333333334" type="curve" smooth="yes"/>
      <point x="648.7166666666667" y="1159.4199999999998"/>
      <point x="619.91" y="1105.59"/>
      <point x="549.9866666666667" y="1032.9566666666667" type="curve" smooth="yes"/>
      <point x="479.25666666666666" y="956.4433333333333"/>
      <point x="451.25666666666666" y="896.5933333333334"/>
      <point x="451.25666666666666" y="822.8366666666666" type="curve" smooth="yes"/>
      <point x="451.25666666666666" y="711.86"/>
      <point x="501.59999999999997" y="632.9566666666667"/>
      <point x="609.4" y="536.59" type="curve" smooth="yes"/>
      <point x="723.1533333333333" y="430.19666666666666"/>
      <point x="746.74" y="386.02666666666664"/>
      <point x="746.74" y="306.51" type="curve" smooth="yes"/>
      <point x="746.74" y="204.35666666666665"/>
      <point x="696.69" y="148.30333333333334"/>
      <point x="601.4433333333333" y="148.30333333333334" type="curve" smooth="yes"/>
      <point x="532.1266666666667" y="148.30333333333334"/>
      <point x="468.25" y="173.20666666666665"/>
      <point x="405.49666666666667" y="215.47333333333336" type="curve"/>
      <point x="405.49666666666667" y="33.0" type="line"/>
      <point x="459.93333333333334" y="-2.0"/>
      <point x="534.1033333333332" y="-20.0"/>
    </contour>
  </outline>
</glyph>
<glyph name="eth" format="2">
  <advance width="959.2571428571429"/>
  <unicode hex="00F0"/>
  <note>
eth
</note>
  <outline>
    <contour>
      <point x="475.43" y="-20.0" type="curve" smooth="yes"/>
      <point x="734.7166666666666" y="-20.0"/>
      <point x="878.2966666666666" y="187.19"/>
      <point x="878.2966666666666" y="550.6033333333334" type="curve" smooth="yes"/>
      <point x="878.2966666666666" y="880.3900000000001"/>
      <point x="792.1733333333334" y="1139.81"/>
      <point x="609.1966666666666" y="1337.35" type="curve"/>
      <point x="780.4166666666666" y="1445.4466666666667" type="line"/>
      <point x="705.74" y="1562.8033333333333" type="line"/>
      <point x="504.76666666666665" y="1432.4166666666667" type="line"/>
      <point x="451.89" y="1476.8799999999999"/>
      <point x="384.50333333333333" y="1521.2933333333335"/>
      <point x="302.1433333333333" y="1565.73" type="curve"/>
      <point x="224.1" y="1440.79" type="line"/>
      <point x="282.26666666666665" y="1405.4499999999998"/>
      <point x="328.6066666666667" y="1373.45"/>
      <point x="363.9" y="1344.79" type="curve"/>
      <point x="182.12333333333333" y="1231.3300000000002" type="line"/>
      <point x="258.6533333333333" y="1113.4366666666667" type="line"/>
      <point x="463.23333333333335" y="1243.6999999999998" type="line"/>
      <point x="563.5300000000001" y="1133.5966666666666"/>
      <point x="631.02" y="1006.6866666666667"/>
      <point x="664.1666666666666" y="861.58" type="curve"/>
      <point x="653.85" y="859.7266666666666" type="line"/>
      <point x="599.7533333333333" y="938.4833333333333"/>
      <point x="529.3133333333334" y="978.5566666666666"/>
      <point x="441.2133333333333" y="978.5566666666666" type="curve" smooth="yes"/>
      <point x="211.0233333333333" y="978.5566666666666"/>
      <point x="80.56333333333333" y="795.29"/>
      <point x="80.56333333333333" y="478.2666666666667" type="curve" smooth="yes"/>
      <point x="80.56333333333333" y="174.75666666666666"/>
      <point x="234.41333333333333" y="-20.0"/>
    </contour>
    <contour>
      <point x="481.42999999999995" y="159.59333333333333" type="curve" smooth="yes"/>
      <point x="362.1566666666667" y="159.59333333333333"/>
      <point x="293.3233333333334" y="276.99"/>
      <point x="293.3233333333334" y="475.82666666666665" type="curve" smooth="yes"/>
      <point x="293.3233333333334" y="696.81"/>
      <point x="353.84000000000003" y="808.8633333333333"/>
      <point x="483.43" y="808.8633333333333" type="curve" smooth="yes"/>
      <point x="593.7766666666666" y="808.8633333333333"/>
      <point x="666.0" y="691.0266666666666"/>
      <point x="666.0" y="514.0433333333333" type="curve" smooth="yes"/>
      <point x="666.0" y="276.59666666666664"/>
      <point x="611.9966666666667" y="159.59333333333333"/>
    </contour>
  </outline>
</glyph>
<glyph name="divide" format="2">
  <advance width="884.5285714285715"/>
  <unicode hex="00F7"/>
  <note>
divide
</note>
  <outline>
    <contour>
      <point x="90.04333333333334" y="639.3733333333333" type="line"/>
      <point x="793.8233333333334" y="639.3733333333333" type="line"/>
      <point x="793.8233333333334" y="804.7733333333333" type="line"/>
      <point x="90.04333333333334" y="804.7733333333333" type="line"/>
    </contour>
    <contour>
      <point x="441.0433333333333" y="240.51666666666665" type="curve" smooth="yes"/>
      <point x="506.2833333333333" y="240.51666666666665"/>
      <point x="548.1600000000001" y="287.27000000000004"/>
      <point x="548.1600000000001" y="373.0" type="curve" smooth="yes"/>
      <point x="548.1600000000001" y="458.82666666666665"/>
      <point x="511.9666666666667" y="504.4833333333333"/>
      <point x="441.0433333333333" y="504.4833333333333" type="curve" smooth="yes"/>
      <point x="369.12" y="504.4833333333333"/>
      <point x="331.53666666666663" y="461.1433333333333"/>
      <point x="331.53666666666663" y="373.0" type="curve" smooth="yes"/>
      <point x="331.53666666666663" y="280.68666666666667"/>
      <point x="375.6066666666667" y="240.51666666666665"/>
    </contour>
    <contour>
      <point x="441.0433333333333" y="939.5166666666667" type="curve" smooth="yes"/>
      <point x="506.2833333333333" y="939.5166666666667"/>
      <point x="548.1600000000001" y="986.1966666666667"/>
      <point x="548.1600000000001" y="1071.0" type="curve" smooth="yes"/>
      <point x="548.1600000000001" y="1157.7533333333333"/>
      <point x="511.9666666666667" y="1203.4833333333333"/>
      <point x="441.0433333333333" y="1203.4833333333333" type="curve" smooth="yes"/>
      <point x="369.12" y="1203.4833333333333"/>
      <point x="331.53666666666663" y="1159.1433333333334"/>
      <point x="331.53666666666663" y="1071.0" type="curve" smooth="yes"/>
      <point x="331.53666666666663" y="978.6866666666667"/>
      <point x="375.6066666666667" y="939.5166666666667"/>
    </contour>
  </outline>
</glyph>
<glyph name="oslash" format="2">
  <advance width="957.2285714285714"/>
  <unicode hex="00F8"/>
  <note>
oslash
</note>
  <anchor x="478.28333333333336" y="1104.4600000000003" name="top"/>
  <outline>
    <contour>
      <point x="234.74" y="-111.95666666666666" type="line"/>
      <point x="304.25666666666666" y="27.223333333333336" type="line"/>
      <point x="352.18333333333334" y="-4.413333333333333"/>
      <point x="410.94" y="-20.0"/>
      <point x="475.74666666666667" y="-20.0" type="curve" smooth="yes"/>
      <point x="726.8866666666667" y="-20.0"/>
      <point x="876.0033333333333" y="187.8766666666667"/>
      <point x="876.0033333333333" y="555.6566666666666" type="curve" smooth="yes"/>
      <point x="876.0033333333333" y="727.6066666666667"/>
      <point x="842.6633333333333" y="864.1666666666666"/>
      <point x="774.52" y="963.1666666666666" type="curve"/>
      <point x="856.5966666666667" y="1127.2233333333334" type="line"/>
      <point x="725.9966666666667" y="1190.0" type="line"/>
      <point x="663.7733333333333" y="1069.1133333333335" type="line"/>
      <point x="612.1633333333334" y="1104.8"/>
      <point x="550.7966666666666" y="1125.46"/>
      <point x="479.28333333333336" y="1125.46" type="curve" smooth="yes"/>
      <point x="226.31333333333333" y="1125.46"/>
      <point x="80.56333333333333" y="920.3900000000001"/>
      <point x="80.56333333333333" y="555.1933333333333" type="curve" smooth="yes"/>
      <point x="80.56333333333333" y="364.31666666666666"/>
      <point x="123.46333333333332" y="223.39"/>
      <point x="191.58333333333334" y="129.17000000000002" type="curve"/>
      <point x="101.82333333333334" y="-47.78999999999999" type="line"/>
    </contour>
    <contour>
      <point x="478.21" y="160.34999999999997" type="curve" smooth="yes"/>
      <point x="441.3766666666666" y="160.34999999999997"/>
      <point x="411.05666666666673" y="172.15666666666667"/>
      <point x="388.1766666666667" y="196.30666666666664" type="curve"/>
      <point x="652.8" y="721.5066666666667" type="line"/>
      <point x="664.0699999999999" y="679.8433333333332"/>
      <point x="669.9733333333334" y="624.69"/>
      <point x="669.9733333333334" y="555.6566666666666" type="curve" smooth="yes"/>
      <point x="669.9733333333334" y="285.9166666666667"/>
      <point x="604.4833333333333" y="160.34999999999997"/>
    </contour>
    <contour>
      <point x="309.30333333333334" y="364.9033333333333" type="line"/>
      <point x="295.8866666666667" y="412.56666666666666"/>
      <point x="288.90999999999997" y="475.33000000000004"/>
      <point x="288.90999999999997" y="555.1933333333333" type="curve" smooth="yes"/>
      <point x="288.90999999999997" y="793.1333333333333"/>
      <point x="332.3533333333333" y="943.72"/>
      <point x="478.21" y="943.72" type="curve" smooth="yes"/>
      <point x="519.1166666666667" y="943.72"/>
      <point x="552.5833333333334" y="928.1566666666666"/>
      <point x="578.4633333333334" y="897.5666666666666" type="curve"/>
    </contour>
  </outline>
</glyph>
<glyph name="dcroat" format="2">
  <advance width="974.4142857142857"/>
  <unicode hex="0111"/>
  <note>
dcroat
</note>
  <outline>
    <contour>
      <point x="408.60999999999996" y="-20.0" type="curve" smooth="yes"/>
      <point x="513.22" y="-20.0"/>
      <point x="595.5366666666666" y="34.75666666666666"/>
      <point x="652.3900000000001" y="147.9766666666667" type="curve"/>
      <point x="662.7066666666667" y="147.9766666666667" type="line"/>
      <point x="694.5566666666666" y="0.0" type="line"/>
      <point x="851.7866666666666" y="0.0" type="line"/>
      <point x="851.7866666666666" y="1228.8866666666668" type="line"/>
      <point x="973.4933333333333" y="1228.8866666666668" type="line"/>
      <point x="973.4933333333333" y="1380.8500000000001" type="line"/>
      <point x="851.7866666666666" y="1380.8500000000001" type="line"/>
      <point x="851.7866666666666" y="1556.0" type="line"/>
      <point x="643.7333333333333" y="1556.0" type="line"/>
      <point x="643.7333333333333" y="1380.8500000000001" type="line"/>
      <point x="396.56" y="1380.8500000000001" type="line"/>
      <point x="396.56" y="1228.8866666666668" type="line"/>
      <point x="643.7333333333333" y="1228.8866666666668" type="line"/>
      <point x="643.7333333333333" y="1114.4066666666668" type="line" smooth="yes"/>
      <point x="644.27" y="1070.1633333333334"/>
      <point x="648.1233333333334" y="999.0466666666667"/>
      <point x="652.8299999999999" y="930.2466666666668" type="curve"/>
      <point x="639.7333333333333" y="930.2466666666668" type="line"/>
      <point x="583.1" y="1038.9766666666667"/>
      <point x="503.0" y="1092.1000000000001"/>
      <point x="406.0" y="1092.1000000000001" type="curve" smooth="yes"/>
      <point x="196.82999999999998" y="1092.1000000000001"/>
      <point x="80.56333333333333" y="886.76"/>
      <point x="80.56333333333333" y="535.44" type="curve" smooth="yes"/>
      <point x="80.56333333333333" y="174.87666666666667"/>
      <point x="200.39" y="-20.0"/>
    </contour>
    <contour>
      <point x="467.8933333333333" y="157.05666666666664" type="curve" smooth="yes"/>
      <point x="323.35" y="157.05666666666664"/>
      <point x="294.46999999999997" y="333.48"/>
      <point x="294.46999999999997" y="531.5866666666667" type="curve" smooth="yes"/>
      <point x="294.46999999999997" y="778.5"/>
      <point x="346.35" y="910.36"/>
      <point x="464.82000000000005" y="910.36" type="curve" smooth="yes"/>
      <point x="616.34" y="910.36"/>
      <point x="641.8800000000001" y="743.3266666666666"/>
      <point x="641.8800000000001" y="546.56" type="curve" smooth="yes"/>
      <point x="641.8800000000001" y="515.8766666666667" type="line" smooth="yes"/>
      <point x="641.8800000000001" y="277.89"/>
      <point x="589.7033333333333" y="157.05666666666664"/>
    </contour>
  </outline>
</glyph>
<glyph name="idotless" format="2">
  <advance width="458.47142857142853"/>
  <unicode hex="0131"/>
  <note>
dotlessi
</note>
  <anchor x="229.60333333333335" y="0.0" name="bottom"/>
  <anchor x="399.4714285714286" y="10.0" name="ogonek"/>
  <anchor x="229.60333333333335" y="1104.4600000000003" name="top"/>
  <outline>
    <contour>
      <point x="333.5933333333333" y="1104.4600000000003" type="line"/>
      <point x="125.07666666666667" y="1104.4600000000003" type="line"/>
      <point x="125.07666666666667" y="0.0" type="line"/>
      <point x="333.5933333333333" y="0.0" type="line"/>
    </contour>
  </outline>
</glyph>
<glyph name="Ldot" format="2">
  <advance width="785.1333333333333"/>
  <unicode hex="013F"/>
  <note>
Ldot
</note>
  <outline>
    <contour>
      <point x="741.8166666666667" y="0.0" type="line"/>
      <point x="741.8166666666667" y="189.44666666666666" type="line"/>
      <point x="352.52000000000004" y="189.44666666666666" type="line"/>
      <point x="352.52000000000004" y="1462.0" type="line"/>
      <point x="139.14999999999998" y="1462.0" type="line"/>
      <point x="139.14999999999998" y="0.0" type="line"/>
    </contour>
    <contour>
      <point x="511.12" y="733.8733333333333" type="curve" smooth="yes"/>
      <point x="511.12" y="651.39"/>
      <point x="555.7266666666666" y="606.9766666666667"/>
      <point x="634.5733333333334" y="606.9766666666667" type="curve" smooth="yes"/>
      <point x="711.3466666666667" y="606.9766666666667"/>
      <point x="756.1233333333333" y="651.39"/>
      <point x="756.1233333333333" y="733.8733333333333" type="curve" smooth="yes"/>
      <point x="756.1233333333333" y="816.5766666666667"/>
      <point x="714.1266666666667" y="860.38"/>
      <point x="634.5733333333334" y="860.38" type="curve" smooth="yes"/>
      <point x="553.8733333333333" y="860.38"/>
      <point x="511.12" y="816.5766666666667"/>
    </contour>
  </outline>
</glyph>
<glyph name="Eng" format="2">
  <advance width="1217.0857142857142"/>
  <unicode hex="014A"/>
  <note>
Eng
</note>
  <outline>
    <contour>
      <point x="747.92" y="-404.21333333333337" type="curve" smooth="yes"/>
      <point x="956.3966666666666" y="-404.21333333333337"/>
      <point x="1077.8033333333333" y="-248.29333333333332"/>
      <point x="1077.8033333333333" y="21.94333333333334" type="curve" smooth="yes"/>
      <point x="1077.8033333333333" y="1462.0" type="line"/>
      <point x="879.4066666666668" y="1462.0" type="line"/>
      <point x="879.4066666666668" y="789.9233333333334" type="line" smooth="yes"/>
      <point x="879.4066666666668" y="693.0"/>
      <point x="884.26" y="574.81"/>
      <point x="894.8199999999999" y="434.4266666666667" type="curve"/>
      <point x="884.65" y="434.4266666666667" type="line"/>
      <point x="395.41999999999996" y="1462.0" type="line"/>
      <point x="139.14999999999998" y="1462.0" type="line"/>
      <point x="139.14999999999998" y="0.0" type="line"/>
      <point x="338.47333333333336" y="0.0" type="line"/>
      <point x="338.47333333333336" y="784.4366666666667" type="line" smooth="yes"/>
      <point x="338.47333333333336" y="867.0466666666667"/>
      <point x="332.1566666666667" y="988.3333333333333"/>
      <point x="319.5233333333333" y="1149.2966666666666" type="curve"/>
      <point x="332.1566666666667" y="1149.2966666666666" type="line"/>
      <point x="888.14" y="-21.46666666666667" type="line"/>
      <point x="877.9433333333334" y="31.61333333333333" type="line"/>
      <point x="873.2866666666666" y="-128.51999999999998"/>
      <point x="828.0699999999999" y="-211.30333333333334"/>
      <point x="721.8266666666666" y="-211.30333333333334" type="curve" smooth="yes"/>
      <point x="679.6800000000001" y="-211.30333333333334"/>
      <point x="638.4366666666666" y="-204.30333333333334"/>
      <point x="596.17" y="-191.30333333333334" type="curve"/>
      <point x="596.17" y="-379.2133333333333" type="line"/>
      <point x="634.73" y="-396.2133333333333"/>
      <point x="685.7766666666666" y="-404.21333333333337"/>
    </contour>
  </outline>
</glyph>
<glyph name="eng" format="2">
  <advance width="981.2"/>
  <unicode hex="014B"/>
  <note>
eng
</note>
  <outline>
    <contour>
      <point x="601.65" y="-492.0" type="curve" smooth="yes"/>
      <point x="773.7866666666666" y="-492.0"/>
      <point x="866.1466666666668" y="-371.8333333333333"/>
      <point x="866.1466666666668" y="-153.74" type="curve" smooth="yes"/>
      <point x="866.1466666666668" y="721.0466666666667" type="line" smooth="yes"/>
      <point x="866.1466666666668" y="995.95"/>
      <point x="772.37" y="1125.46"/>
      <point x="581.25" y="1125.46" type="curve" smooth="yes"/>
      <point x="469.6666666666667" y="1125.46"/>
      <point x="375.74" y="1065.5566666666666"/>
      <point x="328.03333333333336" y="958.5566666666667" type="curve"/>
      <point x="314.5466666666667" y="958.5566666666667" type="line"/>
      <point x="290.33" y="1104.4600000000003" type="line"/>
      <point x="123.68666666666665" y="1104.4600000000003" type="line"/>
      <point x="123.68666666666665" y="0.0" type="line"/>
      <point x="332.2033333333334" y="0.0" type="line"/>
      <point x="332.2033333333334" y="555.2266666666667" type="line" smooth="yes"/>
      <point x="332.2033333333334" y="700.4233333333333"/>
      <point x="347.49666666666667" y="798.6933333333333"/>
      <point x="379.30333333333334" y="858.8166666666666" type="curve" smooth="yes"/>
      <point x="407.89" y="913.5733333333334"/>
      <point x="454.0133333333333" y="943.89"/>
      <point x="515.8199999999999" y="943.89" type="curve" smooth="yes"/>
      <point x="613.6766666666666" y="943.89"/>
      <point x="656.7766666666666" y="860.5233333333333"/>
      <point x="656.7766666666666" y="692.8633333333335" type="curve" smooth="yes"/>
      <point x="656.7766666666666" y="-134.84333333333333" type="line" smooth="yes"/>
      <point x="656.7766666666666" y="-252.82"/>
      <point x="626.85" y="-310.65000000000003"/>
      <point x="565.2166666666667" y="-310.65000000000003" type="curve" smooth="yes"/>
      <point x="542.0466666666667" y="-310.65000000000003"/>
      <point x="513.0966666666667" y="-303.7966666666667"/>
      <point x="486.39000000000004" y="-292.7966666666666" type="curve"/>
      <point x="486.39000000000004" y="-469.44" type="line"/>
      <point x="516.9733333333334" y="-484.61"/>
      <point x="559.8233333333334" y="-492.0"/>
    </contour>
  </outline>
</glyph>
<glyph name="OE" format="2">
  <advance width="1373.9857142857143"/>
  <unicode hex="0152"/>
  <note>
OE
</note>
  <anchor x="687.4266666666666" y="0.0" name="bottom"/>
  <anchor x="687.4266666666666" y="1462.0" name="top"/>
  <outline>
    <contour>
      <point x="607.3133333333333" y="-15.266666666666666" type="curve" smooth="yes"/>
      <point x="653.9466666666667" y="-14.193333333333332"/>
      <point x="695.8733333333333" y="-9.413333333333332"/>
      <point x="743.8966666666666" y="0.0" type="curve"/>
      <point x="1283.73" y="0.0" type="line"/>
      <point x="1283.73" y="189.44666666666666" type="line"/>
      <point x="884.09" y="189.44666666666666" type="line"/>
      <point x="884.09" y="668.4966666666667" type="line"/>
      <point x="1256.4133333333334" y="668.4966666666667" type="line"/>
      <point x="1256.4133333333334" y="856.5533333333333" type="line"/>
      <point x="884.09" y="856.5533333333333" type="line"/>
      <point x="884.09" y="1274.4066666666668" type="line"/>
      <point x="1283.73" y="1274.4066666666668" type="line"/>
      <point x="1283.73" y="1462.0" type="line"/>
      <point x="749.7733333333333" y="1462.0" type="line"/>
      <point x="702.5066666666668" y="1472.8033333333333"/>
      <point x="658.8733333333333" y="1478.51"/>
      <point x="611.1433333333333" y="1479.5833333333333" type="curve" smooth="yes"/>
      <point x="271.5866666666667" y="1479.5833333333333"/>
      <point x="93.39333333333333" y="1219.0733333333333"/>
      <point x="93.39333333333333" y="736.8533333333334" type="curve" smooth="yes"/>
      <point x="93.39333333333333" y="245.17"/>
      <point x="267.1466666666667" y="-15.266666666666666"/>
    </contour>
    <contour>
      <point x="608.73" y="176.03333333333333" type="curve" smooth="yes"/>
      <point x="407.45" y="177.10666666666665"/>
      <point x="312.29999999999995" y="358.52333333333337"/>
      <point x="312.29999999999995" y="733.0" type="curve" smooth="yes"/>
      <point x="312.29999999999995" y="1109.0133333333333"/>
      <point x="408.5966666666667" y="1287.21"/>
      <point x="610.12" y="1288.2833333333333" type="curve" smooth="yes"/>
      <point x="627.8733333333333" y="1288.2833333333333"/>
      <point x="649.26" y="1285.503333333333"/>
      <point x="670.72" y="1279.48" type="curve"/>
      <point x="670.72" y="185.76333333333332" type="line"/>
      <point x="652.5033333333333" y="179.73999999999998"/>
      <point x="630.19" y="176.03333333333333"/>
    </contour>
  </outline>
</glyph>
<glyph name="florin" format="2">
  <advance width="904.3857142857142"/>
  <unicode hex="0192"/>
  <note>
florin
</note>
  <outline>
    <contour>
      <point x="218.58333333333334" y="-492.0" type="curve" smooth="yes"/>
      <point x="427.87" y="-492.0"/>
      <point x="535.6433333333333" y="-368.12333333333333"/>
      <point x="535.6433333333333" y="-117.95000000000002" type="curve" smooth="yes"/>
      <point x="535.6433333333333" y="826.5400000000001" type="line"/>
      <point x="744.64" y="826.5400000000001" type="line"/>
      <point x="744.64" y="996.2566666666667" type="line"/>
      <point x="535.6433333333333" y="996.2566666666667" type="line"/>
      <point x="535.6433333333333" y="1106.7566666666664" type="line" smooth="yes"/>
      <point x="535.6433333333333" y="1154.8333333333335"/>
      <point x="539.1800000000001" y="1194.08"/>
      <point x="549.5699999999999" y="1223.4966666666667" type="curve" smooth="yes"/>
      <point x="565.6433333333333" y="1276.8433333333332"/>
      <point x="593.8633333333333" y="1304.3566666666666"/>
      <point x="651.67" y="1304.3566666666666" type="curve" smooth="yes"/>
      <point x="691.1566666666668" y="1304.3566666666666"/>
      <point x="732.79" y="1293.82"/>
      <point x="780.35" y="1273.6733333333334" type="curve"/>
      <point x="839.42" y="1439.8300000000002" type="line"/>
      <point x="773.7633333333333" y="1468.6100000000001"/>
      <point x="702.6933333333333" y="1483.0"/>
      <point x="623.9666666666667" y="1483.0" type="curve" smooth="yes"/>
      <point x="407.19666666666666" y="1483.0"/>
      <point x="317.3966666666667" y="1365.9266666666667"/>
      <point x="317.3966666666667" y="1119.05" type="curve" smooth="yes"/>
      <point x="317.3966666666667" y="998.6966666666666" type="line"/>
      <point x="153.61666666666665" y="934.2133333333334" type="line"/>
      <point x="153.61666666666665" y="826.5400000000001" type="line"/>
      <point x="317.39666666666665" y="826.5400000000001" type="line"/>
      <point x="317.39666666666665" y="-106.22666666666667" type="line" smooth="yes"/>
      <point x="317.39666666666665" y="-244.94"/>
      <point x="276.3233333333334" y="-310.7966666666667"/>
      <point x="179.6866666666667" y="-310.7966666666667" type="curve" smooth="yes"/>
      <point x="139.73666666666668" y="-310.7966666666667"/>
      <point x="101.12666666666667" y="-304.7966666666667"/>
      <point x="59.14999999999999" y="-292.7966666666667" type="curve"/>
      <point x="59.14999999999999" y="-472.05" type="line"/>
      <point x="108.88000000000001" y="-484.7566666666667"/>
      <point x="159.6833333333333" y="-492.0"/>
    </contour>
  </outline>
</glyph>
<glyph name="Ohorn" format="2">
  <advance width="1223.7714285714285"/>
  <unicode hex="01A0"/>
  <note>
Ohorn
</note>
  <anchor x="583.26" y="0.0" name="bottom"/>
  <anchor x="586.5033333333333" y="1462.0" name="top"/>
  <outline>
    <contour>
      <point x="583.43" y="-20.0" type="curve" smooth="yes"/>
      <point x="899.0566666666666" y="-20.0"/>
      <point x="1073.54" y="249.0"/>
      <point x="1073.54" y="733.0" type="curve" smooth="yes"/>
      <point x="1073.54" y="891.5166666666667"/>
      <point x="1054.8566666666666" y="1027.7633333333333"/>
      <point x="1016.5633333333334" y="1144.4466666666667" type="curve"/>
      <point x="1158.0" y="1200.2"/>
      <point x="1240.5833333333335" y="1319.2466666666667"/>
      <point x="1275.75" y="1533.2433333333333" type="curve"/>
      <point x="1260.6033333333332" y="1556.0" type="line"/>
      <point x="1045.3333333333333" y="1556.0" type="line"/>
      <point x="1042.3333333333333" y="1405.53"/>
      <point x="1013.5266666666668" y="1320.8233333333333"/>
      <point x="950.2033333333333" y="1284.9966666666667" type="curve"/>
      <point x="863.7666666666667" y="1417.95"/>
      <point x="742.3299999999999" y="1484.3899999999999"/>
      <point x="585.9666666666667" y="1484.3899999999999" type="curve" smooth="yes"/>
      <point x="264.97333333333336" y="1484.3899999999999"/>
      <point x="93.39333333333333" y="1225.5633333333333"/>
      <point x="93.39333333333333" y="735.0" type="curve" smooth="yes"/>
      <point x="93.39333333333333" y="248.29333333333335"/>
      <point x="265.73" y="-20.0"/>
    </contour>
    <contour>
      <point x="583.43" y="171.3" type="curve" smooth="yes"/>
      <point x="405.5466666666666" y="171.3"/>
      <point x="311.22666666666663" y="365.18333333333334"/>
      <point x="311.22666666666663" y="733.0" type="curve" smooth="yes"/>
      <point x="311.22666666666663" y="1099.84"/>
      <point x="404.32666666666665" y="1293.5533333333333"/>
      <point x="585.9666666666666" y="1293.5533333333333" type="curve" smooth="yes"/>
      <point x="764.85" y="1293.5533333333333"/>
      <point x="855.2433333333333" y="1105.3033333333333"/>
      <point x="855.2433333333333" y="733.0" type="curve" smooth="yes"/>
      <point x="855.2433333333333" y="358.8666666666666"/>
      <point x="762.7766666666666" y="171.3"/>
    </contour>
  </outline>
</glyph>
<glyph name="ohorn" format="2">
  <advance width="1028.7142857142858"/>
  <unicode hex="01A1"/>
  <note>
ohorn
</note>
  <anchor x="476.21" y="0.0" name="bottom"/>
  <anchor x="480.21" y="1104.4600000000003" name="top"/>
  <outline>
    <contour>
      <point x="478.52666666666664" y="-20.0" type="curve" smooth="yes"/>
      <point x="726.4233333333333" y="-20.0"/>
      <point x="876.0033333333333" y="189.26666666666665"/>
      <point x="876.0033333333333" y="553.34" type="curve" smooth="yes"/>
      <point x="876.0033333333333" y="676.7566666666667"/>
      <point x="859.0033333333333" y="781.4166666666667"/>
      <point x="825.0033333333333" y="868.3199999999999" type="curve"/>
      <point x="969.0466666666666" y="923.44"/>
      <point x="1048.0433333333335" y="1028.61"/>
      <point x="1083.4533333333334" y="1245.7266666666667" type="curve"/>
      <point x="1067.8433333333335" y="1268.4833333333333" type="line"/>
      <point x="853.0366666666666" y="1268.4833333333333" type="line"/>
      <point x="850.0366666666666" y="1124.4066666666665"/>
      <point x="818.1833333333333" y="1037.48"/>
      <point x="747.6933333333333" y="997.3833333333333" type="curve"/>
      <point x="678.6466666666666" y="1082.02"/>
      <point x="589.8433333333332" y="1125.46"/>
      <point x="479.28333333333336" y="1125.46" type="curve" smooth="yes"/>
      <point x="226.31333333333333" y="1125.46"/>
      <point x="80.56333333333333" y="919.9266666666667"/>
      <point x="80.56333333333333" y="556.1199999999999" type="curve" smooth="yes"/>
      <point x="80.56333333333333" y="245.0"/>
      <point x="202.33666666666667" y="-20.0"/>
    </contour>
    <contour>
      <point x="477.28333333333336" y="159.5933333333333" type="curve" smooth="yes"/>
      <point x="412.9133333333333" y="159.5933333333333"/>
      <point x="363.88666666666666" y="195.37666666666667"/>
      <point x="333.7633333333333" y="271.1133333333333" type="curve" smooth="yes"/>
      <point x="308.47" y="332.89666666666665"/>
      <point x="294.47" y="428.85"/>
      <point x="294.47" y="555.6566666666666" type="curve" smooth="yes"/>
      <point x="294.47" y="681.9300000000001"/>
      <point x="307.7633333333333" y="778.9333333333333"/>
      <point x="337.74" y="845.8866666666667" type="curve" smooth="yes"/>
      <point x="367.32666666666665" y="911.5966666666667"/>
      <point x="413.28" y="943.72"/>
      <point x="478.21" y="943.72" type="curve" smooth="yes"/>
      <point x="540.7733333333333" y="943.72"/>
      <point x="587.5799999999999" y="911.3533333333334"/>
      <point x="617.3133333333334" y="849.3266666666667" type="curve" smooth="yes"/>
      <point x="647.6566666666666" y="786.5433333333334"/>
      <point x="663.0233333333333" y="686.54"/>
      <point x="663.0233333333333" y="554.2666666666667" type="curve" smooth="yes"/>
      <point x="663.0233333333333" y="418.55333333333334"/>
      <point x="647.51" y="317.64666666666665"/>
      <point x="614.1666666666666" y="253.01" type="curve" smooth="yes"/>
      <point x="582.58" y="190.42333333333332"/>
      <point x="537.7" y="159.5933333333333"/>
    </contour>
  </outline>
</glyph>
<glyph name="gravecomb" format="2">
  <unicode hex="0300"/>
  <note>
gravecomb
</note>
  <anchor x="0.6619047619047613" y="1104.1952380952382" name="_top"/>
  <anchor x="0.6619047619047618" y="1569.0" name="top"/>
  <outline>
    <contour>
      <point x="76.59523809523809" y="1219.9142857142858" type="curve"/>
      <point x="216.60000000000002" y="1219.9142857142858" type="line"/>
      <point x="216.60000000000002" y="1244.8857142857144" type="line"/>
      <point x="159.5" y="1319.647619047619"/>
      <point x="74.17619047619047" y="1467.8857142857141"/>
      <point x="38.838095238095235" y="1547.9142857142858" type="curve"/>
      <point x="-214.57142857142856" y="1547.9142857142858" type="line"/>
      <point x="-214.57142857142856" y="1527.6047619047617" type="line"/>
      <point x="-174.51428571428573" y="1456.4619047619046"/>
      <point x="-17.685714285714283" y="1296.2095238095237"/>
    </contour>
  </outline>
</glyph>
<glyph name="acutecomb" format="2">
  <unicode hex="0301"/>
  <note>
acutecomb
</note>
  <anchor x="-80.07142857142857" y="1139.547619047619" name="_top"/>
  <anchor x="0.0" y="1569.0" name="top"/>
  <outline>
    <contour>
      <point x="-217.27619047619046" y="1219.5761904761905" type="line"/>
      <point x="-77.60952380952381" y="1219.5761904761905" type="line"/>
      <point x="32.614285714285714" y="1309.8285714285714"/>
      <point x="175.13333333333333" y="1458.7571428571428"/>
      <point x="213.89523809523808" y="1527.2666666666667" type="curve"/>
      <point x="213.89523809523808" y="1547.5761904761905" type="line"/>
      <point x="-38.85238095238095" y="1547.5761904761905" type="line"/>
      <point x="-73.24761904761904" y="1471.4476190476191"/>
      <point x="-150.8095238095238" y="1329.7333333333331"/>
      <point x="-217.27619047619046" y="1244.547619047619" type="curve"/>
    </contour>
  </outline>
</glyph>
<glyph name="circumflexcomb" format="2">
  <unicode hex="0302"/>
  <note>
circumflex
</note>
  <anchor x="456.4142857142857" y="1104.195238095238" name="_top"/>
  <anchor x="456.4142857142857" y="1569.0" name="top"/>
  <outline>
    <contour>
      <point x="140.64761904761903" y="1219.9142857142858" type="line"/>
      <point x="265.7238095238095" y="1219.9142857142858" type="line"/>
      <point x="294.0333333333333" y="1243.2523809523811"/>
      <point x="333.01904761904757" y="1278.942857142857"/>
      <point x="364.68095238095236" y="1311.6333333333334" type="curve" smooth="yes"/>
      <point x="385.3142857142857" y="1333.2809523809524"/>
      <point x="406.947619047619" y="1355.9285714285713"/>
      <point x="454.7523809523809" y="1409.747619047619" type="curve"/>
      <point x="502.4" y="1357.0857142857142"/>
      <point x="533.5" y="1322.2952380952381"/>
      <point x="543.1476190476191" y="1313.6333333333332" type="curve" smooth="yes"/>
      <point x="572.8666666666667" y="1281.547619047619"/>
      <point x="586.8952380952381" y="1267.1666666666667"/>
      <point x="642.7523809523809" y="1219.9142857142858" type="curve"/>
      <point x="769.8428571428572" y="1219.9142857142858" type="line"/>
      <point x="769.8428571428572" y="1244.209523809524" type="line"/>
      <point x="668.6904761904761" y="1373.3333333333335"/>
      <point x="593.3095238095237" y="1486.1666666666667"/>
      <point x="562.6333333333333" y="1547.9142857142858" type="curve"/>
      <point x="346.50476190476195" y="1547.9142857142858" type="line"/>
      <point x="314.75714285714287" y="1482.3761904761905"/>
      <point x="246.13809523809522" y="1382.0238095238094"/>
      <point x="140.64761904761903" y="1244.209523809524" type="curve"/>
    </contour>
  </outline>
</glyph>
<glyph name="tildecomb" format="2">
  <unicode hex="0303"/>
  <note>
tildecomb
</note>
  <anchor x="324.01666666666665" y="1104.46" name="_top"/>
  <anchor x="324.01666666666665" y="1512.3799999999999" name="top"/>
  <outline>
    <contour>
      <point x="-0.6761904761904844" y="1219.9142857142856" type="curve"/>
      <point x="117.67142857142858" y="1219.9142857142856" type="line"/>
      <point x="130.33333333333331" y="1299.8857142857144"/>
      <point x="156.68571428571428" y="1335.6761904761904"/>
      <point x="197.03809523809525" y="1335.6761904761904" type="curve" smooth="yes"/>
      <point x="239.95238095238093" y="1335.6761904761904"/>
      <point x="278.27619047619044" y="1304.3380952380953"/>
      <point x="319.93809523809523" y="1272.6761904761904" type="curve" smooth="yes"/>
      <point x="351.6714285714286" y="1246.6333333333334"/>
      <point x="395.6857142857143" y="1221.9142857142858"/>
      <point x="449.3047619047619" y="1221.9142857142858" type="curve" smooth="yes"/>
      <point x="559.4857142857143" y="1221.9142857142858"/>
      <point x="634.3714285714286" y="1313.1380952380953"/>
      <point x="648.3571428571429" y="1492.4857142857143" type="curve"/>
      <point x="530.0095238095238" y="1492.4857142857143" type="line"/>
      <point x="516.6857142857143" y="1419.1333333333334"/>
      <point x="499.3333333333333" y="1377.3857142857144"/>
      <point x="452.99523809523805" y="1377.3857142857144" type="curve" smooth="yes"/>
      <point x="416.68571428571425" y="1377.3857142857144"/>
      <point x="380.34761904761905" y="1404.752380952381"/>
      <point x="339.0238095238095" y="1434.104761904762" type="curve" smooth="yes"/>
      <point x="301.9952380952381" y="1460.4714285714285"/>
      <point x="256.6714285714286" y="1490.4857142857145"/>
      <point x="199.08095238095237" y="1490.4857142857145" type="curve" smooth="yes"/>
      <point x="88.51904761904763" y="1490.4857142857145"/>
      <point x="14.661904761904765" y="1400.5428571428572"/>
    </contour>
  </outline>
</glyph>
<glyph name="macroncomb" format="2">
  <unicode hex="0304"/>
  <anchor x="276.9666666666667" y="1104.46" name="_top"/>
  <anchor x="276.9666666666667" y="1407.5966666666668" name="top"/>
  <outline>
    <contour>
      <point x="-1.0142857142857338" y="1219.9142857142856" type="line"/>
      <point x="552.9190476190477" y="1219.9142857142856" type="line"/>
      <point x="552.9190476190477" y="1380.0190476190476" type="line"/>
      <point x="-1.0142857142857338" y="1380.0190476190476" type="line"/>
    </contour>
  </outline>
</glyph>
<glyph name="brevecomb" format="2">
  <unicode hex="0306"/>
  <note>
breve
</note>
  <anchor x="568.4095238095238" y="1104.195238095238" name="_top"/>
  <anchor x="568.4095238095238" y="1537.2476190476189" name="top"/>
  <outline>
    <contour>
      <point x="563.3809523809524" y="1219.9142857142856" type="curve" smooth="yes"/>
      <point x="732.8285714285714" y="1219.9142857142856"/>
      <point x="835.0095238095238" y="1328.7714285714287"/>
      <point x="846.2904761904763" y="1515.4714285714288" type="curve"/>
      <point x="715.3809523809523" y="1515.4714285714288" type="line"/>
      <point x="702.3809523809523" y="1421.4285714285713"/>
      <point x="662.9714285714285" y="1382.0190476190478"/>
      <point x="566.0571428571428" y="1382.0190476190478" type="curve" smooth="yes"/>
      <point x="464.1857142857143" y="1382.0190476190478"/>
      <point x="426.7333333333334" y="1419.1190476190477"/>
      <point x="417.73333333333335" y="1515.4714285714288" type="curve"/>
      <point x="288.83809523809526" y="1515.4714285714288" type="line"/>
      <point x="296.5142857142857" y="1325.7142857142856"/>
      <point x="389.0190476190476" y="1219.9142857142856"/>
    </contour>
  </outline>
</glyph>
<glyph name="dotaccentcomb" format="2">
  <unicode hex="0307"/>
  <note>
dotaccent
</note>
  <anchor x="253.8952380952381" y="1104.1952380952382" name="_top"/>
  <anchor x="253.8952380952381" y="1525.347619047619" name="top"/>
  <outline>
    <contour>
      <point x="250.90952380952385" y="1239.9142857142858" type="curve" smooth="yes"/>
      <point x="327.2857142857143" y="1239.9142857142858"/>
      <point x="372.1285714285714" y="1283.5333333333333"/>
      <point x="372.1285714285714" y="1367.009523809524" type="curve" smooth="yes"/>
      <point x="372.1285714285714" y="1449.5142857142855"/>
      <point x="330.5952380952381" y="1493.1190476190477"/>
      <point x="250.90952380952385" y="1493.1190476190477" type="curve" smooth="yes"/>
      <point x="169.54761904761907" y="1493.1190476190477"/>
      <point x="126.66190476190476" y="1449.5142857142857"/>
      <point x="126.66190476190476" y="1367.009523809524" type="curve" smooth="yes"/>
      <point x="126.66190476190476" y="1283.5333333333333"/>
      <point x="171.53333333333333" y="1239.9142857142858"/>
    </contour>
  </outline>
</glyph>
<glyph name="dieresiscomb" format="2">
  <unicode hex="0308"/>
  <note>
dieresis
</note>
  <anchor x="564.3238095238095" y="1138.9142857142856" name="_top"/>
  <anchor x="564.3238095238095" y="1511.0380952380951" name="top"/>
  <outline>
    <contour>
      <point x="745.0666666666666" y="1239.9142857142858" type="curve" smooth="yes"/>
      <point x="810.5" y="1239.9142857142858"/>
      <point x="853.7380952380952" y="1279.4761904761906"/>
      <point x="853.7380952380952" y="1352.3761904761905" type="curve" smooth="yes"/>
      <point x="853.7380952380952" y="1425.9238095238095"/>
      <point x="809.1761904761905" y="1465.1476190476192"/>
      <point x="745.0666666666666" y="1465.1476190476192" type="curve" smooth="yes"/>
      <point x="678.9857142857143" y="1465.1476190476192"/>
      <point x="636.0714285714286" y="1425.9238095238095"/>
      <point x="636.0714285714286" y="1352.3761904761905" type="curve" smooth="yes"/>
      <point x="636.0714285714286" y="1280.138095238095"/>
      <point x="679.6476190476191" y="1239.9142857142858"/>
    </contour>
    <contour>
      <point x="377.8619047619047" y="1239.9142857142858" type="curve" smooth="yes"/>
      <point x="442.6190476190476" y="1239.9142857142858"/>
      <point x="487.1809523809524" y="1281.4619047619049"/>
      <point x="487.1809523809524" y="1352.3761904761905" type="curve" smooth="yes"/>
      <point x="487.1809523809524" y="1423.2761904761905"/>
      <point x="442.6190476190476" y="1465.1476190476192"/>
      <point x="377.8619047619047" y="1465.1476190476192" type="curve" smooth="yes"/>
      <point x="312.42857142857144" y="1465.1476190476192"/>
      <point x="269.51428571428573" y="1425.9238095238095"/>
      <point x="269.51428571428573" y="1352.3761904761905" type="curve" smooth="yes"/>
      <point x="269.51428571428573" y="1278.8142857142857"/>
      <point x="312.42857142857144" y="1239.9142857142858"/>
    </contour>
  </outline>
</glyph>
<glyph name="hookabovecomb" format="2">
  <unicode hex="0309"/>
  <note>
hookabovecomb
</note>
  <anchor x="-1.0" y="1104.1952380952382" name="_top"/>
  <anchor x="-1.0" y="1688.8999999999999" name="top"/>
  <outline>
    <contour>
      <point x="-104.84285714285714" y="1219.9142857142858" type="line"/>
      <point x="26.71428571428571" y="1219.9142857142858" type="line"/>
      <point x="36.714285714285715" y="1313.1142857142859" type="line"/>
      <point x="144.36190476190475" y="1339.4380952380955"/>
      <point x="197.6857142857143" y="1400.747619047619"/>
      <point x="197.6857142857143" y="1499.0428571428572" type="curve" smooth="yes"/>
      <point x="197.6857142857143" y="1629.2380952380952"/>
      <point x="112.44761904761904" y="1694.8571428571427"/>
      <point x="-55.32380952380952" y="1694.8571428571427" type="curve" smooth="yes"/>
      <point x="-116.13809523809525" y="1694.8571428571427"/>
      <point x="-162.37619047619046" y="1688.8714285714286"/>
      <point x="-197.6857142857143" y="1676.9" type="curve"/>
      <point x="-197.6857142857143" y="1550.6380952380953" type="line"/>
      <point x="-155.77142857142857" y="1561.2714285714285"/>
      <point x="-117.84285714285714" y="1566.9190476190477"/>
      <point x="-82.57619047619048" y="1566.9190476190477" type="curve" smooth="yes"/>
      <point x="-17.05238095238095" y="1566.9190476190477"/>
      <point x="23.65238095238096" y="1540.8619047619047"/>
      <point x="23.65238095238096" y="1486.4380952380952" type="curve" smooth="yes"/>
      <point x="23.65238095238096" y="1429.352380952381"/>
      <point x="-24.166666666666664" y="1391.957142857143"/>
      <point x="-120.10952380952381" y="1380.7047619047619" type="curve"/>
    </contour>
  </outline>
</glyph>
<glyph name="ringcomb" format="2">
  <unicode hex="030A"/>
  <note>
ring
</note>
  <anchor x="569.8190476190476" y="1104.1952380952382" name="_top"/>
  <anchor x="569.8190476190476" y="1678.2761904761905" name="top"/>
  <outline>
    <contour>
      <point x="566.8333333333333" y="1219.9142857142856" type="curve" smooth="yes"/>
      <point x="706.3666666666668" y="1219.9142857142856"/>
      <point x="799.5904761904762" y="1305.8142857142857"/>
      <point x="799.5904761904762" y="1440.7" type="curve" smooth="yes"/>
      <point x="799.5904761904762" y="1568.9095238095238"/>
      <point x="703.3523809523809" y="1655.1333333333332"/>
      <point x="566.8333333333333" y="1655.1333333333332" type="curve" smooth="yes"/>
      <point x="428.60952380952386" y="1655.1333333333332"/>
      <point x="338.7095238095238" y="1571.5428571428572"/>
      <point x="338.7095238095238" y="1438.0238095238094" type="curve" smooth="yes"/>
      <point x="338.7095238095238" y="1303.8285714285714"/>
      <point x="427.60952380952386" y="1219.9142857142856"/>
    </contour>
    <contour>
      <point x="566.8333333333333" y="1331.6142857142859" type="curve" smooth="yes"/>
      <point x="495.43809523809523" y="1331.6142857142859"/>
      <point x="459.7333333333333" y="1372.9809523809524"/>
      <point x="459.7333333333333" y="1438.0238095238094" type="curve" smooth="yes"/>
      <point x="459.7333333333333" y="1502.0523809523809"/>
      <point x="505.4238095238095" y="1544.095238095238"/>
      <point x="566.8333333333333" y="1544.095238095238" type="curve" smooth="yes"/>
      <point x="631.9333333333334" y="1544.095238095238"/>
      <point x="673.9333333333334" y="1502.052380952381"/>
      <point x="673.9333333333334" y="1438.0238095238094" type="curve" smooth="yes"/>
      <point x="673.9333333333334" y="1372.3190476190475"/>
      <point x="628.9047619047619" y="1331.6142857142859"/>
    </contour>
  </outline>
</glyph>
<glyph name="hungarumlautcomb" format="2">
  <unicode hex="030B"/>
  <note>
hungarumlaut
</note>
  <anchor x="577.0285714285715" y="1104.1952380952382" name="_top"/>
  <anchor x="577.0285714285714" y="1569.0" name="top"/>
  <outline>
    <contour>
      <point x="549.1" y="1220.2523809523811" type="line"/>
      <point x="663.6142857142856" y="1220.2523809523811" type="line"/>
      <point x="767.1190476190476" y="1307.814285714286"/>
      <point x="908.2285714285714" y="1458.0809523809523"/>
      <point x="947.9761904761905" y="1527.942857142857" type="curve"/>
      <point x="947.9761904761905" y="1548.2523809523811" type="line"/>
      <point x="721.747619047619" y="1548.2523809523811" type="line"/>
      <point x="688.0428571428571" y="1473.1523809523808"/>
      <point x="610.4238095238096" y="1328.857142857143"/>
      <point x="549.1" y="1245.2238095238097" type="curve"/>
    </contour>
    <contour>
      <point x="201.02380952380952" y="1220.2523809523811" type="line"/>
      <point x="316.2" y="1220.2523809523811" type="line"/>
      <point x="405.8333333333333" y="1293.6047619047617"/>
      <point x="551.1809523809524" y="1449.1238095238095"/>
      <point x="599.2380952380952" y="1527.942857142857" type="curve"/>
      <point x="599.2380952380952" y="1548.2523809523811" type="line"/>
      <point x="373.00952380952384" y="1548.2523809523811" type="line"/>
      <point x="339.3047619047619" y="1472.4904761904763"/>
      <point x="261.6857142857143" y="1328.857142857143"/>
      <point x="201.02380952380952" y="1245.2238095238097" type="curve"/>
    </contour>
  </outline>
</glyph>
<glyph name="caroncomb" format="2">
  <unicode hex="030C"/>
  <note>
caron
</note>
  <anchor x="572.3809523809524" y="1104.1952380952382" name="_top"/>
  <anchor x="572.3809523809524" y="1569.0" name="top"/>
  <outline>
    <contour>
      <point x="462.1333333333333" y="1219.9142857142858" type="curve"/>
      <point x="677.6" y="1219.9142857142858" type="line"/>
      <point x="689.9238095238096" y="1243.5904761904762"/>
      <point x="708.2476190476191" y="1273.9428571428573"/>
      <point x="732.5571428571428" y="1309.942857142857" type="curve" smooth="yes"/>
      <point x="771.5571428571429" y="1370.338095238095"/>
      <point x="824.2190476190476" y="1445.3809523809523"/>
      <point x="885.4714285714285" y="1523.6190476190477" type="curve"/>
      <point x="885.4714285714285" y="1547.9142857142858" type="line"/>
      <point x="758.3809523809524" y="1547.9142857142858" type="line"/>
      <point x="701.1571428571428" y="1498.9857142857143"/>
      <point x="618.4238095238095" y="1412.490476190476"/>
      <point x="572.3666666666668" y="1358.0809523809523" type="curve"/>
      <point x="482.15238095238095" y="1464.6619047619047"/>
      <point x="447.02857142857135" y="1492.8428571428572"/>
      <point x="381.3523809523809" y="1547.9142857142858" type="curve"/>
      <point x="255.61428571428576" y="1547.9142857142858" type="line"/>
      <point x="255.61428571428576" y="1523.6190476190477" type="line"/>
      <point x="319.2047619047619" y="1441.0142857142857"/>
      <point x="370.50000000000006" y="1369.0142857142857"/>
      <point x="409.5" y="1307.6190476190477" type="curve" smooth="yes"/>
      <point x="432.4571428571428" y="1273.3095238095239"/>
      <point x="449.7809523809524" y="1243.6333333333332"/>
    </contour>
  </outline>
</glyph>
<glyph name="dblgravecomb" format="2">
  <unicode hex="030F"/>
  <note>
uni030F
</note>
  <anchor x="-0.3380952380952381" y="1104.1952380952382" name="_top"/>
  <anchor x="-0.3380952380952381" y="1569.0" name="top"/>
  <outline>
    <contour>
      <point x="258.46190476190475" y="1219.9142857142858" type="curve"/>
      <point x="373.6380952380953" y="1219.9142857142858" type="line"/>
      <point x="373.6380952380953" y="1244.8857142857144" type="line"/>
      <point x="321.3428571428571" y="1314.4761904761906"/>
      <point x="248.01904761904763" y="1443.8"/>
      <point x="200.99047619047622" y="1547.9142857142858" type="curve"/>
      <point x="-26.9" y="1547.9142857142858" type="line"/>
      <point x="-26.9" y="1527.6047619047617" type="line"/>
      <point x="17.185714285714283" y="1452.4190476190477"/>
      <point x="165.60476190476192" y="1296.152380952381"/>
    </contour>
    <contour>
      <point x="-90.95238095238095" y="1219.9142857142858" type="curve"/>
      <point x="24.561904761904763" y="1219.9142857142858" type="line"/>
      <point x="24.561904761904763" y="1244.8857142857144" type="line"/>
      <point x="-20.15714285714286" y="1303.6190476190477"/>
      <point x="-97.67619047619047" y="1434.7428571428572"/>
      <point x="-148.42380952380952" y="1547.9142857142858" type="curve"/>
      <point x="-374.3142857142857" y="1547.9142857142858" type="line"/>
      <point x="-374.3142857142857" y="1527.6047619047617" type="line"/>
      <point x="-331.58095238095234" y="1453.757142857143"/>
      <point x="-182.1761904761905" y="1295.1952380952382"/>
    </contour>
  </outline>
</glyph>
<glyph name="commaturnedabovecomb" format="2">
  <unicode hex="0312"/>
  <anchor x="301.0" y="1104.1952380952382" name="_top"/>
  <anchor x="301.0" y="1569.0" name="top"/>
  <outline>
    <contour>
      <point x="154.25714285714287" y="1219.9142857142856" type="line"/>
      <point x="364.1761904761905" y="1219.9142857142856" type="line"/>
      <point x="374.51428571428573" y="1304.0"/>
      <point x="413.30476190476185" y="1449.1285714285714"/>
      <point x="441.33333333333337" y="1522.942857142857" type="curve"/>
      <point x="441.33333333333337" y="1547.9142857142856" type="line"/>
      <point x="318.24285714285725" y="1547.9142857142856" type="line"/>
      <point x="248.22857142857143" y="1459.4238095238095"/>
      <point x="188.12857142857143" y="1338.490476190476"/>
      <point x="154.25714285714287" y="1240.9142857142856" type="curve"/>
    </contour>
  </outline>
</glyph>
<glyph name="dotbelowcomb" format="2">
  <unicode hex="0323"/>
  <note>
dotbelowcomb
</note>
  <anchor x="-1.0" y="0.0" name="_bottom"/>
  <anchor x="-1.0" y="-383.2047619047619" name="bottom"/>
  <outline>
    <contour>
      <point x="1.0142857142857145" y="-383.20476190476194" type="curve" smooth="yes"/>
      <point x="79.71428571428572" y="-383.20476190476194"/>
      <point x="123.89523809523811" y="-338.2761904761905"/>
      <point x="123.89523809523811" y="-258.0952380952381" type="curve" smooth="yes"/>
      <point x="123.89523809523811" y="-178.23809523809524"/>
      <point x="81.7" y="-131.0"/>
      <point x="1.0142857142857145" y="-131.0" type="curve" smooth="yes"/>
      <point x="-80.02380952380952" y="-131.0"/>
      <point x="-123.89523809523811" y="-174.26666666666665"/>
      <point x="-123.89523809523811" y="-258.0952380952381" type="curve" smooth="yes"/>
      <point x="-123.89523809523811" y="-340.26190476190476"/>
      <point x="-78.03809523809524" y="-383.20476190476194"/>
    </contour>
  </outline>
</glyph>
<glyph name="commaaccentcomb" format="2">
  <unicode hex="0326"/>
  <anchor x="240.33333333333334" y="0.0" name="_bottom"/>
  <anchor x="240.33333333333331" y="-453.0" name="bottom"/>
  <outline>
    <contour>
      <point x="100.0" y="-458.32380952380953" type="line"/>
      <point x="221.09047619047618" y="-458.32380952380953" type="line"/>
      <point x="280.06190476190477" y="-374.7190476190476"/>
      <point x="339.0904761904762" y="-262.92857142857144"/>
      <point x="380.9904761904761" y="-150.3238095238095" type="curve"/>
      <point x="380.9904761904761" y="-130.32380952380953" type="line"/>
      <point x="169.38095238095238" y="-130.32380952380953" type="line"/>
      <point x="160.71904761904764" y="-212.7047619047619"/>
      <point x="127.01428571428573" y="-350.70476190476194"/>
      <point x="100.0" y="-433.35238095238094" type="curve"/>
    </contour>
  </outline>
</glyph>
<glyph name="cedillacomb" format="2">
  <unicode hex="0327"/>
  <note>
cedilla
</note>
  <anchor x="216.452380952381" y="0.0" name="_bottom"/>
  <anchor x="216.452380952381" y="-492.0" name="bottom"/>
  <outline>
    <contour>
      <point x="139.14285714285717" y="-528.5142857142857" type="curve" smooth="yes"/>
      <point x="319.22380952380956" y="-528.5142857142857"/>
      <point x="410.2095238095239" y="-446.6142857142857"/>
      <point x="410.2095238095239" y="-306.9952380952381" type="curve" smooth="yes"/>
      <point x="410.2095238095239" y="-209.3761904761905"/>
      <point x="349.2666666666667" y="-149.71428571428572"/>
      <point x="252.8571428571429" y="-126.36190476190475" type="curve"/>
      <point x="295.252380952381" y="-36.51428571428572" type="line"/>
      <point x="155.3857142857143" y="-36.51428571428572" type="line"/>
      <point x="78.09047619047621" y="-195.19047619047618" type="line"/>
      <point x="182.0904761904762" y="-211.85238095238097"/>
      <point x="238.7952380952381" y="-247.52857142857144"/>
      <point x="238.7952380952381" y="-312.96666666666664" type="curve" smooth="yes"/>
      <point x="238.7952380952381" y="-365.77142857142854"/>
      <point x="204.03333333333333" y="-397.56190476190477"/>
      <point x="129.15714285714284" y="-397.56190476190477" type="curve" smooth="yes"/>
      <point x="92.20000000000002" y="-397.56190476190477"/>
      <point x="56.93333333333334" y="-392.23809523809524"/>
      <point x="22.695238095238096" y="-382.5904761904762" type="curve"/>
      <point x="22.695238095238096" y="-510.23333333333335" type="line"/>
      <point x="53.25714285714287" y="-522.5285714285715"/>
      <point x="91.52380952380952" y="-528.5142857142857"/>
    </contour>
  </outline>
</glyph>
<glyph name="ogonekcomb" format="2">
  <unicode hex="0328"/>
  <note>
ogonek
</note>
  <anchor x="400.1666666666667" y="10.0" name="_ogonek"/>
  <outline>
    <contour>
      <point x="251.89999999999998" y="-506.3285714285714" type="curve" smooth="yes"/>
      <point x="285.2095238095238" y="-506.3285714285714"/>
      <point x="320.1380952380952" y="-501.6666666666667"/>
      <point x="358.0095238095238" y="-491.68095238095236" type="curve"/>
      <point x="358.0095238095238" y="-354.79999999999995" type="line"/>
      <point x="335.41904761904766" y="-363.447619047619"/>
      <point x="312.447619047619" y="-367.77142857142854"/>
      <point x="285.7857142857143" y="-367.77142857142854" type="curve" smooth="yes"/>
      <point x="237.67142857142858" y="-367.77142857142854"/>
      <point x="205.67142857142858" y="-339.052380952381"/>
      <point x="205.67142857142858" y="-275.31904761904764" type="curve" smooth="yes"/>
      <point x="205.67142857142858" y="-202.88095238095235"/>
      <point x="244.98095238095237" y="-125.54285714285713"/>
      <point x="334.0238095238096" y="-35.838095238095235" type="curve"/>
      <point x="197.8047619047619" y="-35.838095238095235" type="line"/>
      <point x="100.25714285714284" y="-110.73809523809524"/>
      <point x="42.86190476190475" y="-206.17619047619047"/>
      <point x="42.86190476190475" y="-301.8666666666667" type="curve" smooth="yes"/>
      <point x="42.86190476190475" y="-430.7809523809524"/>
      <point x="122.69047619047619" y="-506.3285714285714"/>
    </contour>
  </outline>
</glyph>
<glyph name="tonos" format="2">
  <advance width="1126.3999999999999"/>
  <unicode hex="0384"/>
  <note>
tonos
</note>
  <anchor x="536.3666666666667" y="1104.195238095238" name="_top"/>
  <anchor x="754.6095238095238" y="1556.0" name="_topleft"/>
  <outline>
    <contour>
      <point x="417.16190476190474" y="1219.9142857142858" type="line"/>
      <point x="544.3095238095237" y="1219.9142857142858" type="line"/>
      <point x="613.547619047619" y="1335.1952380952382"/>
      <point x="672.252380952381" y="1451.7619047619046"/>
      <point x="707.8857142857144" y="1536.804761904762" type="curve"/>
      <point x="707.8857142857144" y="1560.452380952381" type="line"/>
      <point x="497.2761904761905" y="1560.452380952381" type="line"/>
      <point x="480.96666666666664" y="1462.3"/>
      <point x="447.1761904761905" y="1334.209523809524"/>
      <point x="417.16190476190474" y="1248.1952380952382" type="curve"/>
    </contour>
  </outline>
</glyph>
<glyph name="dieresistonos" format="2">
  <advance width="1135.9285714285716"/>
  <unicode hex="0385"/>
  <note>
dieresistonos
</note>
  <anchor x="568.6333333333333" y="1104.1952380952382" name="_top"/>
  <outline>
    <contour>
      <point x="486.8761904761905" y="1329.209523809524" type="line"/>
      <point x="586.8428571428572" y="1329.209523809524" type="line"/>
      <point x="659.6285714285714" y="1426.6285714285714"/>
      <point x="726.6857142857143" y="1555.3095238095239"/>
      <point x="759.5428571428571" y="1636.2095238095237" type="curve"/>
      <point x="759.5428571428571" y="1656.547619047619" type="line"/>
      <point x="556.9190476190477" y="1656.547619047619" type="line"/>
      <point x="545.9619047619047" y="1567.661904761905"/>
      <point x="516.5380952380953" y="1446.7285714285715"/>
      <point x="486.8761904761905" y="1354.1809523809525" type="curve"/>
    </contour>
    <contour>
      <point x="336.7809523809524" y="1226.6761904761904" type="curve" smooth="yes"/>
      <point x="394.91904761904766" y="1226.6761904761904"/>
      <point x="440.4809523809524" y="1260.9571428571428"/>
      <point x="440.4809523809524" y="1339.8" type="curve" smooth="yes"/>
      <point x="440.4809523809524" y="1418.642857142857"/>
      <point x="394.25714285714287" y="1451.5857142857142"/>
      <point x="336.7809523809524" y="1451.5857142857142" type="curve" smooth="yes"/>
      <point x="279.62857142857143" y="1451.5857142857142"/>
      <point x="236.05238095238093" y="1419.304761904762"/>
      <point x="236.05238095238093" y="1339.8" type="curve" smooth="yes"/>
      <point x="236.05238095238093" y="1260.2952380952381"/>
      <point x="279.62857142857143" y="1226.6761904761904"/>
    </contour>
    <contour>
      <point x="796.5" y="1226.6761904761904" type="curve" smooth="yes"/>
      <point x="855.3142857142857" y="1226.6761904761904"/>
      <point x="900.8761904761905" y="1260.9571428571428"/>
      <point x="900.8761904761905" y="1339.1380952380953" type="curve" smooth="yes"/>
      <point x="900.8761904761905" y="1417.9809523809524"/>
      <point x="855.3142857142857" y="1451.5857142857142"/>
      <point x="795.8380952380953" y="1451.5857142857142" type="curve" smooth="yes"/>
      <point x="735.052380952381" y="1451.5857142857142"/>
      <point x="695.1238095238095" y="1415.3333333333333"/>
      <point x="695.1238095238095" y="1339.8" type="curve" smooth="yes"/>
      <point x="695.1238095238095" y="1260.9571428571428"/>
      <point x="738.3619047619048" y="1226.6761904761904"/>
    </contour>
  </outline>
</glyph>
<glyph name="anoteleia" format="2">
  <advance width="508.7095238095238"/>
  <unicode hex="0387"/>
  <note>
anoteleia
</note>
  <outline>
    <contour>
      <point x="254.09" y="577.9333333333334" type="curve" smooth="yes"/>
      <point x="338.32666666666665" y="577.9333333333334"/>
      <point x="390.47" y="627.8566666666667"/>
      <point x="390.47" y="722.3900000000001" type="curve" smooth="yes"/>
      <point x="390.47" y="818.9966666666667"/>
      <point x="340.6433333333333" y="866.92"/>
      <point x="254.09" y="866.92" type="curve" smooth="yes"/>
      <point x="164.56" y="866.92"/>
      <point x="118.17333333333333" y="815.1666666666666"/>
      <point x="118.17333333333333" y="722.3900000000001" type="curve" smooth="yes"/>
      <point x="118.17333333333333" y="630.0766666666666"/>
      <point x="165.02333333333334" y="577.9333333333334"/>
    </contour>
  </outline>
</glyph>
<glyph name="Lambda" format="2">
  <advance width="957.9571428571429"/>
  <unicode hex="039B"/>
  <note>
Lambda
</note>
  <outline>
    <contour>
      <point x="0.0" y="0.0" type="line"/>
      <point x="215.98" y="0.0" type="line"/>
      <point x="431.38" y="988.6666666666666" type="line" smooth="yes"/>
      <point x="456.89000000000004" y="1115.85"/>
      <point x="466.89" y="1180.3366666666666"/>
      <point x="476.9866666666667" y="1263.6733333333332" type="curve"/>
      <point x="489.54666666666674" y="1161.8766666666668"/>
      <point x="512.5933333333332" y="1027.89"/>
      <point x="520.9599999999999" y="988.2033333333334" type="curve" smooth="yes"/>
      <point x="742.6533333333333" y="0.0" type="line"/>
      <point x="958.0233333333332" y="0.0" type="line"/>
      <point x="609.6066666666667" y="1462.0" type="line"/>
      <point x="346.44" y="1462.0" type="line"/>
    </contour>
  </outline>
</glyph>
<glyph name="Xi" format="2">
  <advance width="810.952380952381"/>
  <unicode hex="039E"/>
  <note>
Xi
</note>
  <outline>
    <contour>
      <point x="70.66333333333333" y="0.0" type="line"/>
      <point x="739.1566666666668" y="0.0" type="line"/>
      <point x="739.1566666666668" y="189.44666666666666" type="line"/>
      <point x="70.66333333333333" y="189.44666666666666" type="line"/>
    </contour>
    <contour>
      <point x="151.83" y="668.4966666666667" type="line"/>
      <point x="658.99" y="668.4966666666667" type="line"/>
      <point x="658.99" y="856.5533333333333" type="line"/>
      <point x="151.83" y="856.5533333333333" type="line"/>
    </contour>
    <contour>
      <point x="98.15" y="1274.4066666666668" type="line"/>
      <point x="712.67" y="1274.4066666666668" type="line"/>
      <point x="712.67" y="1462.0" type="line"/>
      <point x="98.15" y="1462.0" type="line"/>
    </contour>
  </outline>
</glyph>
<glyph name="Phi" format="2">
  <advance width="1353.590476190476"/>
  <unicode hex="03A6"/>
  <note>
Phi
</note>
  <outline>
    <contour>
      <point x="576.1666666666666" y="-20.0" type="line"/>
      <point x="778.4166666666666" y="-20.0" type="line"/>
      <point x="778.4166666666666" y="205.0" type="line"/>
      <point x="785.4399999999999" y="205.0" type="line" smooth="yes"/>
      <point x="894.27" y="205.0"/>
      <point x="986.88" y="232.12333333333333"/>
      <point x="1060.27" y="284.07666666666665" type="curve" smooth="yes"/>
      <point x="1197.46" y="375.37"/>
      <point x="1268.5066666666667" y="549.3433333333334"/>
      <point x="1268.5066666666667" y="765.0733333333334" type="curve" smooth="yes"/>
      <point x="1268.5066666666667" y="952.3433333333334"/>
      <point x="1213.75" y="1101.5633333333335"/>
      <point x="1111.4566666666667" y="1194.4166666666667" type="curve" smooth="yes"/>
      <point x="1032.8966666666668" y="1266.22"/>
      <point x="928.1666666666666" y="1303.0733333333333"/>
      <point x="803.9733333333334" y="1303.0733333333333" type="curve" smooth="yes"/>
      <point x="778.4166666666666" y="1303.0733333333333" type="line"/>
      <point x="778.4166666666666" y="1483.0" type="line"/>
      <point x="576.1666666666666" y="1483.0" type="line"/>
      <point x="576.1666666666666" y="1303.0" type="line"/>
      <point x="553.8533333333332" y="1303.0" type="line" smooth="yes"/>
      <point x="456.3666666666667" y="1303.0"/>
      <point x="374.27000000000004" y="1279.5366666666666"/>
      <point x="304.9533333333333" y="1234.4633333333334" type="curve" smooth="yes"/>
      <point x="162.00333333333333" y="1142.4633333333334"/>
      <point x="84.68666666666667" y="969.0733333333333"/>
      <point x="84.68666666666667" y="756.27" type="curve" smooth="yes"/>
      <point x="84.68666666666667" y="626.42"/>
      <point x="111.95333333333333" y="514.52"/>
      <point x="161.39000000000001" y="429.52000000000004" type="curve" smooth="yes"/>
      <point x="238.8766666666667" y="286.32"/>
      <point x="379.9733333333333" y="205.53666666666666"/>
      <point x="566.7533333333333" y="205.0" type="curve" smooth="yes"/>
      <point x="576.1666666666666" y="205.0" type="line"/>
    </contour>
    <contour>
      <point x="568.6066666666667" y="371.5233333333333" type="line" smooth="yes"/>
      <point x="398.81666666666666" y="372.06"/>
      <point x="303.52" y="512.26"/>
      <point x="303.52" y="764.61" type="curve" smooth="yes"/>
      <point x="303.52" y="996.6433333333333"/>
      <point x="394.0133333333333" y="1135.5500000000002"/>
      <point x="557.17" y="1135.5500000000002" type="curve" smooth="yes"/>
      <point x="576.7033333333333" y="1135.5500000000002" type="line"/>
      <point x="576.1666666666666" y="371.5233333333333" type="line"/>
    </contour>
    <contour>
      <point x="778.4166666666666" y="370.9866666666667" type="line"/>
      <point x="778.4166666666666" y="1135.16" type="line"/>
      <point x="796.5600000000001" y="1135.16" type="line" smooth="yes"/>
      <point x="962.0833333333333" y="1134.6233333333334"/>
      <point x="1049.21" y="1005.0833333333334"/>
      <point x="1049.21" y="763.22" type="curve" smooth="yes"/>
      <point x="1049.21" y="513.1866666666666"/>
      <point x="955.1566666666666" y="370.9866666666667"/>
      <point x="784.05" y="370.9866666666667" type="curve" smooth="yes"/>
    </contour>
  </outline>
</glyph>
